<svg xmlns="http://www.w3.org/2000/svg" xmlns:xlink="http://www.w3.org/1999/xlink" width="23.954" height="23.955" viewBox="0 0 23.954 23.955">
  <defs>
    <linearGradient id="linear-gradient" x1="0.016" y1="1" x2="0.977" y2="0.124" gradientUnits="objectBoundingBox">
      <stop offset="0" stop-color="#ffd03f"/>
      <stop offset="0.2" stop-color="#fcc939"/>
      <stop offset="0.46" stop-color="#f5b82a"/>
      <stop offset="0.77" stop-color="#ea9c12"/>
      <stop offset="0.9" stop-color="#e58e06"/>
      <stop offset="1" stop-color="#df8800"/>
    </linearGradient>
  </defs>
  <g id="check-list" transform="translate(0 0.001)">
    <path id="Union_5" data-name="Union 5" d="M-717.257-1961.2v-2.105h4.211v2.105a2.109,2.109,0,0,1-2.106,2.106A2.108,2.108,0,0,1-717.257-1961.2Zm-17.638,2.106A2.107,2.107,0,0,1-737-1961.2v-15.533a2.107,2.107,0,0,1,2.105-2.105v.7a2.108,2.108,0,0,0,2.106,2.105h9.824a2.107,2.107,0,0,0,2.105-2.105v-.7a2.108,2.108,0,0,1,2.106,2.105v15.533a2.108,2.108,0,0,1-2.106,2.105Zm6.316-4.912a.7.7,0,0,0,.7.7h5.614a.7.7,0,0,0,.7-.7.7.7,0,0,0-.7-.7h-5.614A.7.7,0,0,0-728.579-1964Zm-5.409-1.9a.7.7,0,0,0,0,.993l1.4,1.4a.7.7,0,0,0,1.124-.182l1.4-2.807a.7.7,0,0,0-.313-.942.7.7,0,0,0-.942.314l-.968,1.936-.715-.715a.7.7,0,0,0-.5-.206A.7.7,0,0,0-733.988-1965.9Zm6.813-.907a.7.7,0,0,0,.7.7h4.211a.7.7,0,0,0,.7-.7.7.7,0,0,0-.7-.7h-4.211A.7.7,0,0,0-727.175-1966.811Zm-1.4-2.9a.7.7,0,0,0,.7.7h5.614a.7.7,0,0,0,.7-.7.7.7,0,0,0-.7-.7h-5.614A.7.7,0,0,0-728.579-1969.712Zm-5.409-1.9a.7.7,0,0,0,0,.993l1.4,1.4a.7.7,0,0,0,1.124-.182l1.4-2.807a.7.7,0,0,0-.313-.942.7.7,0,0,0-.942.314l-.968,1.936-.715-.715a.7.7,0,0,0-.5-.206A.7.7,0,0,0-733.988-1971.612Zm6.813-.907a.7.7,0,0,0,.7.7h4.211a.7.7,0,0,0,.7-.7.7.7,0,0,0-.7-.7h-4.211A.7.7,0,0,0-727.175-1972.519Zm9.918,7.813v-10.621a.7.7,0,0,1,.074-.314l1.4-2.806a.73.73,0,0,1,1.255,0l1.4,2.806a.7.7,0,0,1,.075.314v10.621Zm-15.532-12.726a.7.7,0,0,1-.7-.7v-.7a1.408,1.408,0,0,1,1.4-1.4h1.348l.112-.562a2.814,2.814,0,0,1,3.489-2.15,2.92,2.92,0,0,1,2.042,2.3l.083.416h1.348a1.408,1.408,0,0,1,1.4,1.4v.7a.7.7,0,0,1-.7.7Zm4.21-2.807a.7.7,0,0,0,.7.7.7.7,0,0,0,.7-.7.7.7,0,0,0-.7-.7A.7.7,0,0,0-728.579-1980.24Z" transform="translate(737 1983.046)" fill="url(#linear-gradient)"/>
  </g>
</svg>
