<svg xmlns="http://www.w3.org/2000/svg" width="706.798" height="476.124" viewBox="0 0 706.798 476.124">
  <g id="Group_5835" data-name="Group 5835" transform="translate(0 -0.005)">
    <g id="Group_5836" data-name="Group 5836" transform="translate(0 0.005)">
      <path id="Path_31670" data-name="Path 31670" d="M16.377,370.432c8.4,17.211,11.633,23.611,24.3,41.451,10.022,14.111,31.592,33.242,46.582,42.233,13.624,8.173,38.881,19.189,54.39,20.362,10.3.779,19.465,1.956,30.052,1.577a169.674,169.674,0,0,0,68.694-17.74c7.06-3.47,11.081-6.968,17.221-10.314,4.735-2.582,26.363-19.278,28.833-23.513.654-1.12,4.54-4.763,5.787-6.071,2.5-2.619,2.355-4.267,6.766-4.591,3.25,5.778.786-.611,4.2,4.062a16.926,16.926,0,0,0,7.509,5.463c2.21.87,0-.482,2.329,1.671,1.886,1.745,7.95,6.333,9.95,7.075,2.085.776,2.944,2.013,5.046,2.936,4.251,1.867,6.36,5.918,10.36,4.582,1.557,2.9,1.64,2.675,4.164,3.6,1.93.707,3.2.525,4.719,1.094,2.956,1.113,5.1,3.258,8.618,4.523,6.346,2.282,10.39,4.948,18.349,6.914,12.737,3.147,24.583,6.025,38.485,7.5,24.9,2.636,59.96-2.551,89.492-16.977,5.927-2.895,17.634-9.168,21.64-12.687,2.693-2.366,6.112-4.247,9-6.756,2.613-2.266,6.3-5.622,8.488-7.256,6.031-4.5,24.445-25.949,27.06-31.111,3.738-7.381,4.874-6.724,9.3-16.818,3.063-6.985,5.365-9.72,7.8-17.365.941-2.963,2.181-5.579,3.413-8.635l5.905-18.373c.419-1.977.772-2.9,1.227-4.661.486-1.874.356-3.5.651-4.654L629.416,306.3c13.4-6.552,17.841-10.111,28.236-18.5,8.864-7.15,5.534-7.106,13.14-14.686l8.128-10.136c1.327-1.636,2.779-3.968,3.745-5.189,2.49-3.151,1.947-1.219,3.22-5.474a19.045,19.045,0,0,1,2.871-5.339c1.489-2.232,1.585-3.792,2.507-5.633.816-1.626,2.321-3.475,3.3-5.323,1.128-2.137,3.928-9.072,4.339-11.476.74-4.34,1.947-6.283,2.2-8.787a7.581,7.581,0,0,1,.608-3.09c2.69-7.836,6.02-29.253,4.84-37.077l-2.023-20.054c-.326-2.826-1.252-3.835-1.337-6.894-.175-6.392-6.582-23.6-10.235-31.008-5.65-11.463-15.569-26.222-24.032-34.877-3.159-3.23-6.135-5.589-9.26-8.481-9.288-8.6-27.65-19.5-39.723-23.655-17.085-5.881-27.475-7.488-45.94-7.395-6.935.035-17.75,1.324-25.534,3.977-7.206,2.456-20.961,5.286-27.624,9.631L496.756,71.8l-2.4-4.76C479.989,37.5,448.945,13.6,425.881,6.869c-3.554-1.035-6.922-2.775-9.948-3.629C411.566,2.01,399.568-.1,395.315.009,377.3.464,380.923-.743,360.54,3.3c-19.664,3.9-52.165,21.238-63.865,34.984-7.21,8.472-16.452,17.918-22.461,26.885a204.737,204.737,0,0,0-16.168,29.049c-2.227,4.866-4.847,9.881-7.134,14.869-1.48,3.227-4.322,14.368-5.611,15.544-11.523-7.139-17.217-10.662-30.243-14.225-10.672-2.919-21.577-6.529-33.248-6.828-12.782-.327-22.66-.288-36.574,2.829-39.5,8.847-79.817,32.471-102.2,65.248C36.514,181.2,30.112,189.978,24.89,200c-1.236,2.37-3.222,4.757-4.131,7.092-.876,2.256-1.858,5.853-2.784,7.822-.68,1.444-1.177,1.979-1.8,3.479-3.335,8.043-7.626,19.126-9.99,27.133L2.334,265.561c-1.036,3.226-.177,1.382-.194,4.453a61.608,61.608,0,0,1-1.055,8.411A112.65,112.65,0,0,0,.072,295.409c-.022,11.235-.8,23.26,3.339,35.8,1.148,3.478,3.176,13.9,5.223,19.177,1.034,2.664,1.462,5.631,2.858,9.452a113.939,113.939,0,0,0,4.885,10.594" transform="translate(0 -0.005)" fill="#55217b" fill-rule="evenodd"/>
      <path id="Path_31671" data-name="Path 31671" d="M1232.79,715.648c-2.853.763-6.78,2.13-9.079,3.984-4.508,3.639-9.936,10.257-10.568,15.768-.411,3.609-.463,14.249,2.768,16.823,1.61,1.283.37.43,1.215,2.113.783,1.563.092-.692,1.246,2.114.749,1.824,4.828,5.761,6.577,6.937,3.75,2.519,4.3,2.946,8.968,4.252,2.006.56,10.636.33,12.708-.4,6.909-2.437,10.724-5.576,14.678-11.716,10.176-15.807,6.276-36.7-15.311-40.156-2.1-.337-11.212-.25-13.2.281" transform="translate(-773.818 -456.254)" fill="#fff" fill-rule="evenodd" opacity="0.1"/>
      <path id="Path_31672" data-name="Path 31672" d="M622.856,703.224c-6.3,1.842-12.081,4.906-15.716,10.56-1.85,2.878-3.83,5.446-4.26,8.938-.407,3.285-.441,9.456.541,12.586,1.173,3.738,2.634,5.313,4.852,8.307,1.123,1.518-.306,1.834,5.921,7.29,5.084,4.458,15.334,5.859,21.527,3.811,5.389-1.782,8.02-4.013,11.63-8.034,1.067-1.187,2.5-2.008,3.585-3.126,5.37-5.537,10.351-28.093-5.291-37.025a26.688,26.688,0,0,0-9.631-3.585c-2.406-.315-10.973-.359-13.157.278" transform="translate(-384.446 -448.315)" fill="#fff" fill-rule="evenodd" opacity="0.1"/>
      <path id="Path_31673" data-name="Path 31673" d="M484.058,523.47c-.826.533-2.836,3.359-5.2,5.19-.52.4-1.119,1.228-1.757,1.868-1.036,1.042-2.955,2.305-3.189,3.724-.424,2.584-.117,3.694,1.553,5.442,1.162.548,4.427.01,6.261-2l7.77-7.18c2.526,1.254,4.936,4.994,7.716,6.924,3.127,2.172,4.795,4.407,8.425,6.416,6.241,3.453,15.742,6.447,22.851,6.569,9.322.161,17.476.345,26.311-3.125,8.147-3.2,12.114-3.915,20.26-9.491,1.508-1.034,2.571-2.167,4.069-3.219,1.2-.843,3.76-1.669,4.357-2.81.891-1.7-.035-.656,1.692-2.069.924-.755.892-1.113,1.858-1.795a15.633,15.633,0,0,0,4.014-3.54c1.355-1.567,2.554-2.626,2.131-4.892-.3-1.588-1.784-3.651-3.481-3.7-3.706-.1-6.341,3.357-9.241,5.585-6.173,4.742-10.357,8.229-17.218,12.256a68.475,68.475,0,0,1-22.487,7.368c-8.593.928-17.229.659-25.441-2.76-7.56-3.146-11.423-6.072-17.064-11.919-4.551-4.718-9.567-11.189-12.424-17.066a37.362,37.362,0,0,1-2.194-5.129c-.445-1.7-.243-4.909-1.3-6.2a5.107,5.107,0,0,0-5.379-1.214,7,7,0,0,0-2.123,1.5c-1.173.909-1.655.766-2.793,1.3-3.855,1.815-21.811,16.42-23.919,19.976-2.169,3.656,2.822,7.393,6.716,4.216,3-2.447,4.533-4.4,7.965-6.629,3.019-1.957,5.612-4.3,8.52-6.353,7.48-5.276,4.437-1.034,8.54,5.384,1.19,1.863.107,1.018,2.654,4.643a11.294,11.294,0,0,1,1.544,2.725" transform="translate(-285.549 -316.695)" fill="#350e51" fill-rule="evenodd"/>
      <path id="Path_31674" data-name="Path 31674" d="M1159.152,543.205c.039.044.151.052.163.067.281.353.219,0,.186.406-5.45.471-8.425,1.739-14.372,1.37-15.67-.976-32.29-9.5-43.926-19.821-2.384-2.117-6.288-6.758-9.761-5.908-8.535,2.09,1.932,11.309,4.642,12.732,2.684,1.408,2.52,1.841,4.655,3.466.8.607,1.449,1.294,2.117,1.8,1.36,1.037,1.37.123,2.527,1.426,1.694,1.913,3.029,1.816,4.869,2.992.994.638.913,1.07,2.175,1.747l7.668,4.376c1.495.932,10,3.77,11.813,4.117,12.017,2.3,30.4,2.609,41.034-3.867,1.643-1,3.917-1.715,5.043-2.77a12.344,12.344,0,0,1,2.408-1.571l10.459-9.844c4.431-.26,11.226,13.664,15.915,7.934.95-1.161.823-4.039.148-5.34-.854-1.646-9.761-9.032-9.938-10.3-.127-.912,5.121-8.211,6.308-10.833a24.154,24.154,0,0,1,1.847-4.086c2.564.016.74.048,3.823,1.381l3.38,1.9c1.363,1.069.917,1.807,2.406,2.637l6.312,4.06c2.851,3.021,5.145,3.979,5.906,4.752,1.607,1.629,1.677,1.4,4.079,1.338,1.747-2.684,1.524-1.249,1.419-5.155l-8.75-8.609c-2.458-2.649-6.693-5.552-9.709-7.7-2.14-1.52-8.585-6.32-10.833-6.585-6.635-.783-4.121,4.7-6.709,10.847-5.753,13.664-21.681,31.466-37.3,33.041" transform="translate(-694.205 -318.501)" fill="#350e51" fill-rule="evenodd"/>
      <path id="Path_31675" data-name="Path 31675" d="M950.852,880.925c-5.013-4.137-6.043,4.053-6.846,6.385a43.035,43.035,0,0,0-1.663,5.927c-.176.929-1.872,3.729-2.394,4.875-1.324,2.9-6.585,6.531-7.99,6.826-2.207.462-3.88,1.214-6.365,1.206-7.766-.018-3.517-.427-6.471-.88-2.738-.42-.537-.038-2.654-1.213a14.607,14.607,0,0,1-2.175-1.462c-3.556-2.659-4.272-4.441-5.484-5.73l-2.587-4.663c-.193-.467-.472-1.947-.791-2.884-2.389-7-.341-9.3-3.328-11.563-2.5-1.893-7.043.164-5.562,7.734.914,4.681,5.977,17.365,9.4,20.417a49.693,49.693,0,0,0,8.82,6.039c5.723,2.513,6.259,2.29,12.535,2.28,7.6-.013,10.5-2.489,15.86-6.5,1.966-1.469,1.825-2.264,3.148-4.118a11.1,11.1,0,0,0,2.318-5.341c.406-2.565,1.13-3.23,1.829-5.438.638-2.019.64-3.753,1.331-5.941.58-1.844.731-4.595-.925-5.961" transform="translate(-571.777 -559.555)" fill="#350e51" fill-rule="evenodd"/>
    </g>
  </g>
</svg>
