<svg xmlns="http://www.w3.org/2000/svg" width="555.634" height="404.107" viewBox="0 0 555.634 404.107">
  <g id="Group_861" data-name="Group 861" transform="translate(-429.388 -2196.629)">
    <path id="Path_31444" data-name="Path 31444" d="M345.469,243.737c-7.662,11.495-17.662,19.305-29.739,23.579-17.532,6.19-34.415,3.39-50.128-6.779-22.6,40.379-70.907,45.242-98.309,11.495a71.132,71.132,0,0,0-.779-16.5c-4.8-31.389-28.311-54.231-55.972-54.231h-.779c-.649-.589-1.3-1.179-1.818-1.621A128.742,128.742,0,0,0,72.75,177.569a112.476,112.476,0,0,0-9.48-19.305,82.3,82.3,0,0,0,14.545-11.789c14.415-14.295,32.6-15.474,50.907-11.347,14.026-37.873,37.921-59.979,74.413-59.242s59.609,23.873,72.076,61.452c32.337-8.989,57.271.147,72.725,26.379,14.285,24.316,13.376,56.442-2.468,80.02Z" transform="translate(626.985 2120.761)" fill="#fdf7ed"/>
    <path id="Path_31445" data-name="Path 31445" d="M353.984,252.627c-2.987,1.326-6.363,2.505-9.35,2.505a8.952,8.952,0,0,1-2.078-.295,21.92,21.92,0,0,0-4.156-.442c-6.1,0-10.519,3.537-15.324,8.842-10.909,11.789-23.116,17.242-36.363,17.242-7.792,0-15.714-1.916-24.025-5.305-13.9,26.084-36.363,39.347-59.089,39.347s-44.674-12.821-58.959-39.2c-4.415,1.769-8.831,3.979-13.506,5.305a55.549,55.549,0,0,1-15.194,2.21c-13.246,0-25.454-5.158-36.752-15.179-2.727-2.505-6.753-4.421-10.13-4.421h-.909a28.493,28.493,0,0,1-4.935.295c-21.818,0-39.609-16.21-42.077-39.936-2.857-27.116,13.246-49.073,38.181-52.021,1.429-.147,2.857-.442,4.286-.589,5.065-30.947,15.974-46.273,32.726-46.273,8.7,0,18.96,4.126,30.778,12.231,12.207-25.052,30-42.442,54.674-50.1a74.846,74.846,0,0,1,22.467-3.389c25.324,0,49.349,12.674,65.323,34.484A95.227,95.227,0,0,1,283.727,145.2c2.467,7.074,6.1,8.695,11.948,11.053a103.008,103.008,0,0,1,29.61,18.421c5.195,4.569,9.091,7.811,15.714,7.811h2.857c15.324,0,27.791,12.821,30.389,29.916a4.606,4.606,0,0,1,.13,1.326C376.581,230.375,368.01,246.88,353.984,252.627Z" transform="translate(408.578 2157.812)" fill="#fdf7ed"/>
    <path id="Path_31446" data-name="Path 31446" d="M168.346,266.553c-22.921,13.116-43.7,11.347-62.985-7.074-1.558-1.474-4.805-1.474-7.078-1.032-16.753,3.39-31.752-3.316-40.583-18.421-8.376-14.368-8.246-33.452.325-48.115,8.441-14.368,23.83-21,40.129-17.758,2.467.516,5.974.147,7.727-1.548,15.129-14.221,31.947-18.568,50.843-12.231a20.358,20.358,0,0,0,3.442.368c6.039-19.305,16.3-34.631,32.467-44.136,32.921-19.379,73.244-4.126,88.634,34.115,2.857,7.074,5.649,8.253,12.207,7.369,17.922-2.358,33.051,4.937,44.8,20.484,2.987,3.979,5.519,5.674,10.454,5.01,12.272-1.695,22.142,3.758,28.7,15.768s6.428,24.463-.195,36.252c-6.818,12.232-17.142,16.8-29.739,15.842-2.857-.221-6.883.295-8.7,2.358-22.077,25.716-48.83,28.368-74.154,6.779-.584-.516-1.3-.958-2.532-1.916-9.415,20.926-23.441,34.852-44.869,36.474-21.1,1.621-36.947-8.842-48.895-28.737Z" transform="translate(568.881 2305.43)" fill="#fdf7ed"/>
  </g>
</svg>
