<svg xmlns="http://www.w3.org/2000/svg" xmlns:xlink="http://www.w3.org/1999/xlink" width="803.331" height="579.831" viewBox="0 0 803.331 579.831">
  <defs>
    <linearGradient id="linear-gradient" y1="0.5" x2="1" y2="0.5" gradientUnits="objectBoundingBox">
      <stop offset="0" stop-color="#ffd03f"/>
      <stop offset="0.2" stop-color="#fcc939"/>
      <stop offset="0.46" stop-color="#f5b82a"/>
      <stop offset="0.77" stop-color="#ea9c12"/>
      <stop offset="0.9" stop-color="#e58e06"/>
      <stop offset="1" stop-color="#df8800"/>
    </linearGradient>
    <linearGradient id="linear-gradient-2" x1="0.001" y1="0.5" x2="1" y2="0.5" xlink:href="#linear-gradient"/>
    <linearGradient id="linear-gradient-3" x1="0" y1="0.5" x2="1" y2="0.5" xlink:href="#linear-gradient"/>
    <linearGradient id="linear-gradient-5" x1="0" y1="0.5" x2="0.999" y2="0.5" xlink:href="#linear-gradient"/>
  </defs>
  <g id="Group_5859" data-name="Group 5859" transform="translate(-108 -332.018)">
    <g id="Group_5854" data-name="Group 5854" transform="translate(26.892 17.954)">
      <path id="Union_7" data-name="Union 7" d="M53.6,437.721C-33.584,309.072-12.321,139.4,102.165,50.043,217.2-39.722,379.184-4.7,439,122.884c33.73,71.918,22.662,153.81-28.176,200.6-5.715,5.26-13.79,9.56-14.257,9.469s6.084-8.522,12.836-16.368c30.633-35.592,31.711-85.135,22.644-144.408C421.859,105.3,364.91,29.525,301.928,13.559c10.522,7.763,18.8,10.679,27.076,16.787C267.6,11.8,201.484,7.962,145.271,39.417,46.346,94.748-26.643,294.188,91.155,411.8c40.378,40.316,105.3,66.79,170.232,63.837,51.53-2.342,103.138-26.176,142.062-56.736,27.106-21.279,49.589-54.087,68.021-89.075,2.15-4.081,3.8-4.557,5.07-2.807,3.976-10.245,7.82-19.966,10.923-27.793-.294,24.056-3.478,51.082,15.279,68.449,16.751,15.547,36.124,28.231,54.32,42.2,2.13-1.012,4.287-2.025,6.419-3.063-8.376-38.609-22.981-80-9.577-117.3,31.334,34.6,61.546,57.8,94.352,74.523,1.659-.937,3.345-1.873,5-2.81-5.94-12.389-9.419-27.08-18.356-36.713-16.4-17.688-36.419-31.95-54.16-48.46-14.691-13.7-29.675-27.508-41.824-43.349-6.77-8.858-8.054-21.916-9.847-33.957,9.178,25.1,23.333,45.784,46.561,60.18-33.85-31.87-46.909-69.787-36.392-115.438,4.71,38.667,32.378,59.351,60.582,79.688,8.938,6.449,17.848,12.951,26.277,20.016,30.719,25.768,45.275,58.307,38.907,98.552-4.469,28.311-10.061,56.462-16.028,89.482-27.481-16.778-50.387-30.746-74.042-45.169-4.977,27.321-10.221,56.247-16.055,88.277-41.265-24.927-84.146-42.479-86.621-99.356-2.234,3.309-4.049,6.035-5.767,8.81-34.728,56.434-80.788,100.616-141.71,127.509-26.844,11.845-56.482,17.507-86.361,17.509C166.5,528.81,93.136,496.018,53.6,437.721Z" transform="translate(81.108 342.285)" fill="url(#linear-gradient)"/>
      <g id="Group_5852" data-name="Group 5852" transform="translate(551.793 314.065)">
        <path id="Path_31690" data-name="Path 31690" d="M230.121,39.442,205.931,62.7a7.173,7.173,0,0,1-10.115-.187L172.589,38.345a7.172,7.172,0,0,1,.187-10.115l9.66-9.285L199,3l3.1-3,2.3,2.382,12.871,13.379,13.032,13.567A7.172,7.172,0,0,1,230.121,39.442Z" transform="translate(-49.205 0)" fill="url(#linear-gradient-2)"/>
        <path id="Path_31692" data-name="Path 31692" d="M125.23,196.1c1.07-3.238,43.242-77.814,47.55-98.365,0,0,40,67,72.409,91.863l-21.621,87.555s-46.748-52.42-49.985-121.592l-34.3,74.042L125.23,196.1Z" transform="translate(-125.23 163.783)" fill="url(#linear-gradient-3)"/>
        <path id="Path_31693" data-name="Path 31693" d="M373.425,9.838c-18.57,29.274-34.733,59.94-55.845,86.7-25.073,31.763-55.9,58.361-96.706,68.9-12.6,3.265-28.123,2.435-30.96-13.353-2.676-14.878,11.774-17.42,23.28-22.156,21.808-8.964,46.587-16.109,62.99-31.6C310.729,65.737,310.355,55.7,284.4,8.42c-19.935,39.228-51.029,61.117-93.923,67.619-18.437,2.783-26.464,18.6-21.942,35.268,8.268,30.4,17.741,60.9,30.826,89.454,10.115,22.049,26.732,26.01,49.985,17.554,12.657-4.6,24.484-11.48,36.659-17.34,1.124,1.284,2.221,2.569,3.345,3.853-16.189,16.243-30.8,34.519-48.835,48.353-3.291,2.515-6.636,4.817-10.008,6.984,14.5,12.255,26.812,26.224,32.726,45.972,26.625-19.989,46.186-47.631,60.261-79.179,21.808-48.942,37.971-100.372,59-149.688,11.48-26.919.321-47.2-9.1-67.432Z" transform="translate(-54.727 14.111)" fill="url(#linear-gradient-3)"/>
      </g>
    </g>
    <g id="Group_5855" data-name="Group 5855" transform="translate(-52.791 7.298)">
      <path id="Path_31694" data-name="Path 31694" d="M224.007,203.536l-20,26.449a7.051,7.051,0,0,1-9.892,1.375l-26.423-20a7.05,7.05,0,0,1-1.375-9.892l7.988-10.553,13.674-18.144,2.566-3.385,2.618,1.984L207.82,182.43l14.838,11.215a7.051,7.051,0,0,1,1.375,9.892Z" transform="translate(576.029 613.463)" fill="url(#linear-gradient-5)"/>
      <path id="Path_31695" data-name="Path 31695" d="M224.5,225.576l-20,26.449a7.051,7.051,0,0,1-9.892,1.375l-26.423-20a7.051,7.051,0,0,1-1.375-9.892L174.8,212.96l13.674-18.144,2.566-3.386,2.618,1.984L208.31,204.47l14.838,11.215a7.05,7.05,0,0,1,1.375,9.892Z" transform="translate(576.835 649.717)" fill="url(#linear-gradient-5)"/>
    </g>
  </g>
</svg>
