<svg xmlns="http://www.w3.org/2000/svg" width="410.655" height="139.549" viewBox="0 0 410.655 139.549">
  <g id="Group_5821" data-name="Group 5821" transform="translate(-1341.677 -5937.303)">
    <path id="Path_31649" data-name="Path 31649" d="M1795.341,79.643c-.127,6.4-9.172,11.417-20.2,11.193-.812-.01-1.621-.071-2.4-.14h-.072a31.473,31.473,0,0,1-5.765-1.069c-.354-.107-.718-.211-1.059-.331a14.088,14.088,0,0,1-1,1.082,27.209,27.209,0,0,1-11.726,6.425,40.435,40.435,0,0,1-5.2,1.153,47.882,47.882,0,0,1-8.62.588,46.136,46.136,0,0,1-14.464-2.55c-5.391,3.348-13.177,5.378-21.8,5.2a43.15,43.15,0,0,1-18.865-4.462c-3.677,9.315-14.989,15.964-28.241,15.694h-.081a19.284,19.284,0,0,1,.176,2.982c-.163,8.448-5.769,15.788-14.191,20.088a38.53,38.53,0,0,1-18.312,4.041c-15.367-.318-28.018-8.965-30.883-20.206-1.575.117-3.183.176-4.826.14-12.96-.269-23.838-5.414-27.43-12.3-.458,0-.916,0-1.374-.013-12.7-.257-23.389-5.2-27.218-11.865a10.58,10.58,0,0,1-.67-1.361h-.435c-10.29-.212-19.241-3.5-24.318-8.282a44.715,44.715,0,0,1-16.822,2.751c-.7-.013-1.4-.048-2.079-.094-1.045-.061-2.055-.153-3.065-.282a39.05,39.05,0,0,1-8.611,2.5,49.261,49.261,0,0,1-9.28.7,46.883,46.883,0,0,1-11.277-1.576,37.989,37.989,0,0,1-5.486-1.9l-.62.341-.449.234a38.637,38.637,0,0,1-33.526-.8,26.41,26.41,0,0,1-12.508,2.631c-10.033-.212-18.068-5.1-17.952-10.911s8.354-10.387,18.374-10.173a29.406,29.406,0,0,1,7.506,1.1c4.194-4.349,12.229-7.2,21.45-7.133,1.244-8.715,13.944-15.363,29.284-15.058,9.293.2,17.5,2.9,22.743,6.94.809-.081,1.63-.14,2.465-.188,2.7-7.763,14.626-13.437,28.826-13.145a45.126,45.126,0,0,1,4.6.305,18.107,18.107,0,0,1-1.822-8.221c.26-12.417,13.463-22.226,29.508-21.9a35.266,35.266,0,0,1,15.3,3.726c3.761-9.221,15-15.766,28.157-15.5,11.339.237,21.041,5.463,25.679,12.888a36.771,36.771,0,0,1,6.886-.506c12.229.247,22.564,6.32,26.676,14.684,8.718-7.883,21.791-12.758,36.3-12.462,24.139.493,43.708,15.106,45.706,33.361a43.614,43.614,0,0,1,18.254-3.349c16.036.331,28.885,8.153,28.7,17.468a10.732,10.732,0,0,1-1.809,5.639c10.147.753,17.995,5.875,17.864,11.914" transform="translate(-43.015 5937.303)" fill="#fefbf5"/>
    <path id="Path_31650" data-name="Path 31650" d="M1792.712,106.439c2.459-2.391,3.443-6.444,4.05-10.023,1.28-7.506,2.037-16.543-3.816-21.418-2.248-1.871-5.132-2.761-7.669-4.219-6.31-3.621-10-10.407-15.031-15.672-9.322-9.763-23.827-13.59-37.31-12.94-17.377.838-18.283,9.874-18.283,9.874-2.582-5.232-7.12-13.119-20.307-11.375-5.915.783-8.711-9.978-13.817-11.861-6.73-2.485-16.727.7-22.759,4.57s-10.14,10.377-11.836,17.345c-.519,2.128-1.12,4.667-3.176,5.424-2.238.825-4.463-1.069-6.226-2.676a45.183,45.183,0,0,0-28.4-11.635c-4.752-.185-9.728.465-13.671,3.122s-6.545,7.695-5.242,12.267c.6,2.1,1.946,4.388.87,6.3a4.968,4.968,0,0,1-3.286,2.03c-6.785,1.7-15.578-.13-19.511,5.655-1.738,2.553-2.017,6.165-4.531,7.958-3.1,2.219-7.3.267-10.975-.773-13.729-3.894-36.855,16.093-16.055,20.1,4.531.874,9.189-.019,13.8-.247,15.857-.776,30.908,6.321,45.19,13.252q12.365,6,24.737,12.008c8.449,4.1,17.641,8.312,26.871,6.584,5.239,12.2,18.829,19.439,32.1,19.748,7.773.182,15.75-1.8,21.937-6.5s10.338-12.333,9.9-20.1a34.73,34.73,0,0,0,28.537-15.678c6.3,4.359,14.568,4.593,22.161,3.592s15.123-3.063,22.776-2.718c2.163.1,4.4.377,6.437-.371a7.164,7.164,0,0,0,2.54-1.614" transform="translate(-97.158 5926.708)" fill="#fcf6e8"/>
    <path id="Path_31651" data-name="Path 31651" d="M1812.354,103.912a5.4,5.4,0,0,1-.578,2.325,30.294,30.294,0,0,1-6.824-1.4c-2.7,3.255-7.188,5.9-12.723,7.506a22.519,22.519,0,0,1-3.193-.8,13.885,13.885,0,0,1-2.01,1.952,47.889,47.889,0,0,1-8.62.588,46.129,46.129,0,0,1-14.463-2.55c-5.393,3.348-13.178,5.378-21.8,5.2a43.156,43.156,0,0,1-18.865-4.463c-3.675,9.316-14.989,15.964-28.242,15.694h-.081a19.273,19.273,0,0,1,.175,2.982c-.162,8.448-5.767,15.788-14.191,20.089a32.332,32.332,0,0,1-4.4.211c-12.135-.247-22.142-7.084-24.41-15.964-1.246.094-2.513.127-3.806.1-10.244-.212-18.842-4.287-21.683-9.725-.364.009-.73,0-1.095,0-10.7-.224-19.6-4.655-22.035-10.456l-.353-.013c-8.117-.163-15.2-2.761-19.207-6.541a34.891,34.891,0,0,1-13.05,2.183,10.48,10.48,0,0,1-.669-1.361h-.436c-10.289-.211-19.241-3.5-24.318-8.282a44.688,44.688,0,0,1-16.821,2.751,48.83,48.83,0,0,1-5.145-.377,46.548,46.548,0,0,1-34.653-.282c-.342.2-.705.387-1.069.575l-.013-.269c.094-4.606,6.591-8.211,14.523-8.046a23.405,23.405,0,0,1,5.931.881c3.312-3.43,9.669-5.7,16.952-5.638.987-6.9,11.017-12.148,23.141-11.9,7.354.153,13.838,2.29,17.985,5.486.634-.068,1.293-.117,1.949-.153,2.127-6.132,11.56-10.618,22.778-10.4,1.244.036,2.455.12,3.641.247a14.194,14.194,0,0,1-1.445-6.5c.2-9.819,10.644-17.559,23.331-17.3a27.886,27.886,0,0,1,12.086,2.936c2.972-7.282,11.865-12.449,22.262-12.239,8.949.176,16.633,4.31,20.3,10.173a30.824,30.824,0,0,1,5.44-.39c9.666.2,17.831,4.992,21.083,11.608,6.886-6.226,17.225-10.091,28.7-9.857,19.075.39,34.535,11.946,36.122,26.374a34.19,34.19,0,0,1,14.424-2.643c12.677.256,22.837,6.437,22.685,13.8a8.6,8.6,0,0,1-1.422,4.454c8.012.6,14.217,4.651,14.122,9.422" transform="translate(-82.12 5921.762)" fill="#fffffd"/>
    <path id="Path_31652" data-name="Path 31652" d="M1593.291,93.987a17.906,17.906,0,0,0-8.974,3.277c-4.9,3.654-7.058,11.264-3.381,16.14a54.37,54.37,0,0,0-31.165-9.5c-5.522.058-11.277,1.068-15.649,4.44s-6.883,9.585-4.661,14.649c-.951.315-1.9.6-2.868.857-1.046-.061-2.056-.153-3.066-.282a39.05,39.05,0,0,1-8.61,2.5q-1.409.16-2.82.247a71.569,71.569,0,0,1-11.969-.257c-1.939-.214-3.852-.493-5.768-.871a37.977,37.977,0,0,1-5.486-1.9l-.62.341c-1.706-1.585,2.137-4.7,3.439-5.382a20.285,20.285,0,0,1,7.331-2.546c3.537-.412,8.445.41,11.277-1.315,4.31-2.644,3.076-3.466,14.505-4.349,3.891-6.918,11.95-10.757,19.865-11.205s15.717,2.069,22.918,5.391a27.588,27.588,0,0,1,25.7-10.231" transform="translate(-82.14 5901.766)" fill="#fff"/>
    <path id="Path_31655" data-name="Path 31655" d="M1793.959,112.029l.023.7c-.045,3.024-.76,6.285-3.034,8.445a10.08,10.08,0,0,1-7.276,2.439c-6.07-.13-11.978-2.91-17.552-5.031a55.872,55.872,0,0,0-7.987-2.6l-.731-.14-.516-.058a12.871,12.871,0,0,0-1.332-.017c.136-.006.292-.163-.188.062l.078-.058-.516.249a5.309,5.309,0,0,0-1.42,1.066c-2.1,2.088-3.293,5.295-5.947,7.107-3.576,2.446-8.068,1.3-11.686-.439-4.2-2.01-7.253-5.641-11.177-8.054a9.91,9.91,0,0,0-10.9-.208c-3.537,2.059-6.792,4.3-11.079,4.187-4.4-.124-8.162-2.43-11.6-4.967-3.521-2.6-6.854-5.547-10.735-7.623-2.887-1.543-6.431-2.393-9.273-.282-2.492,1.855-3.742,4.986-4.873,7.783-1.3,3.235-2.54,6.525-4.8,9.227-6.019,7.187-16.867,5.064-24.029.916-8.464-4.9-13.882-13.034-21.037-19.424a35.469,35.469,0,0,0-10.933-6.518c-3.924-1.481-8.458-2.543-12.577-1.2-4.251,1.383-5.573,5.138-6.479,9.152-.978,4.307-1.241,8.906-2.956,13.012-7.493,17.968-30,7.876-42.263,1.647a117.049,117.049,0,0,0-12.658-5.98,55.046,55.046,0,0,0-16.051-3.371c-11.709-.614-22.577,2.842-33.832,5.437-6.161,1.422-12.5,2.316-18.777,1.13-4.6-.867-8.432-4.664-13.2-4.563-5.457.117-11.1,2.306-16.292,3.816A64.586,64.586,0,0,1,1414.1,120.9c-8.64.231-22.077-2.352-22.346-12.985-4.233,1.845-6.99,4.768-7.058,8.117-.117,5.82,7.916,10.705,17.942,10.91a26.313,26.313,0,0,0,12.512-2.628,35.868,35.868,0,0,0,16.785,4.222c6.954.143,13.262-1.4,17.809-3.995a44.476,44.476,0,0,0,16.773,3.469,43.787,43.787,0,0,0,17.887-3.186,49.539,49.539,0,0,0,5.138.374,44.583,44.583,0,0,0,16.828-2.751c5.067,4.781,14.028,8.068,24.308,8.279l.445,0c3.073,7.344,14.34,12.953,27.881,13.229q.692.015,1.374.01c3.6,6.879,14.476,12.033,27.436,12.3,1.64.033,3.251-.016,4.82-.136,2.865,11.241,15.522,19.887,30.886,20.2,17.675.361,32.227-10.44,32.506-24.12a19.03,19.03,0,0,0-.179-2.995l.078,0c13.255.269,24.568-6.376,28.248-15.7a42.959,42.959,0,0,0,18.858,4.469c8.624.175,16.412-1.851,21.8-5.21a46.027,46.027,0,0,0,14.461,2.553c11.68.237,21.824-3.563,26.556-9.241a31.837,31.837,0,0,0,9.283,1.533c11.031.224,20.079-4.784,20.209-11.19a7.569,7.569,0,0,0-1.387-4.4" transform="translate(-43.016 5900.516)" fill="#fdf7ed"/>
    <path id="Path_31653" data-name="Path 31653" d="M1657.76,94.121c.367-.036.74-.071,1.118-.094l.14.328c-.41-.094-.832-.163-1.257-.234" transform="translate(-146.61 5901.631)" fill="#fff"/>
    <path id="Path_31654" data-name="Path 31654" d="M1876.4,106.432c-1.939-.354-3.888-.717-5.837-1.069-.354-.107-.717-.211-1.058-.331a13.841,13.841,0,0,1-1,1.082,36.244,36.244,0,0,1-23.224,7.977c6.178-4.4,12.979-9.949,13.073-17.539.1-7.188-6.379-13.132-13.356-14.906s-14.33-.364-21.392,1.033c-4.817-11.632-16.893-19.219-29.355-21.028s-25.2,1.458-36.674,6.649a17.775,17.775,0,0,0-10.2-8.9c-2.8-.929-5.791-1.14-8.624-1.952-4.875-1.4-9.091-4.5-13.837-6.3a27.755,27.755,0,0,0-24.048,2.29c-1.725,1.059-3.439,2.361-5.46,2.55-1.845.176-3.618-.611-5.392-1.162-6.038-1.881-13.028-.975-18,2.936s-7.519,10.913-5.593,16.938a29.723,29.723,0,0,0-7.493-.61c-3.241-7.705,1.679-17.2,9.2-20.98,7.61-3.829,16.844-2.89,24.867-.013,7.8-12.475,27.205-15.542,38.473-6.083,1.725,1.455,3.358,3.183,5.531,3.839a17.14,17.14,0,0,0,5.145.273,23.729,23.729,0,0,1,19.995,11.066c10.855-7.578,24.643-11.442,37.6-8.74s24.606,12.6,27.686,25.477a37.225,37.225,0,0,1,25.926-.315c3.394,1.221,6.707,3.04,8.809,5.976s2.7,7.142.681,10.127c3.421.458,6.967.974,9.845,2.865s4.886,5.606,3.7,8.848" transform="translate(-146.673 5921.567)" fill="#fff"/>
    <path id="Path_31656" data-name="Path 31656" d="M1682.876,84.441a7.983,7.983,0,0,1-2.027-5.6,8.359,8.359,0,0,1,2.417-5.373,11.1,11.1,0,0,1,9.182-3.209,9.319,9.319,0,0,1,3.291,1.013,12.541,12.541,0,0,0-6.162.474,11.692,11.692,0,0,0-4.622,2.916,9.356,9.356,0,0,0-2.455,4.447,10.009,10.009,0,0,0,.377,5.333" transform="translate(-155.366 5910.679)" fill="#fcf6e8"/>
    <path id="Path_31657" data-name="Path 31657" d="M1780.052,84.979a12.5,12.5,0,0,0-2.085-3.68,11.465,11.465,0,0,0-6.483-3.995,10.1,10.1,0,0,0-7.2,1.189,10.345,10.345,0,0,0-1.386.984,15.873,15.873,0,0,0-.721-1.77,14.191,14.191,0,0,0-6.571-6.646,11.467,11.467,0,0,0-8.659-.519,13.99,13.99,0,0,0-7.3,6.155,16.264,16.264,0,0,1,7.545-3.573,12.5,12.5,0,0,1,7.338,1.1,15.029,15.029,0,0,1,5.954,5.154,16.231,16.231,0,0,1,1.052,1.783c.127.331.257.666.384,1a11.9,11.9,0,0,1,2.991-1.692,10.964,10.964,0,0,1,6.207-.487,12.251,12.251,0,0,1,5.733,2.943,14.061,14.061,0,0,1,3.917,6.337,11.993,11.993,0,0,0-.711-4.281" transform="translate(-177.674 5910.773)" fill="#fcf6e8"/>
  </g>
</svg>
