<svg xmlns="http://www.w3.org/2000/svg" width="629.853" height="214.036" viewBox="0 0 629.853 214.036">
  <g id="Group_5819" data-name="Group 5819" transform="translate(0 -60.686)">
    <g id="Group_5820" data-name="Group 5820" transform="translate(0 60.686)">
      <path id="Path_31638" data-name="Path 31638" d="M629.848,182.837c-.2,9.82-14.07,17.514-30.988,17.171-1.245-.017-2.488-.108-3.676-.216h-.108a47.985,47.985,0,0,1-8.847-1.638c-.541-.162-1.1-.324-1.621-.506a21.7,21.7,0,0,1-1.53,1.658c-4.2,4.234-10.47,7.675-17.983,9.856a62.357,62.357,0,0,1-7.982,1.766,73.12,73.12,0,0,1-13.223.9,70.612,70.612,0,0,1-22.181-3.91c-8.269,5.135-20.213,8.252-33.439,7.982-11.116-.236-21.206-2.792-28.935-6.848-5.639,14.287-22.991,24.487-43.315,24.072h-.125a29.66,29.66,0,0,1,.27,4.576c-.253,12.955-8.847,24.217-21.765,30.811a59.074,59.074,0,0,1-28.087,6.2c-23.568-.487-42.973-13.747-47.37-30.991-2.412.182-4.883.27-7.4.216-19.874-.413-36.558-8.3-42.072-18.862-.7,0-1.405,0-2.107-.02-19.477-.4-35.873-7.98-41.746-18.2a17.254,17.254,0,0,1-1.029-2.09h-.666c-15.782-.324-29.512-5.369-37.295-12.7a68.5,68.5,0,0,1-25.8,4.217c-1.081-.017-2.144-.071-3.19-.145-1.6-.088-3.151-.233-4.7-.432a59.946,59.946,0,0,1-13.206,3.839,75.981,75.981,0,0,1-14.235,1.063,71.845,71.845,0,0,1-17.3-2.414,58.476,58.476,0,0,1-8.414-2.92c-.307.182-.631.361-.955.523-.216.125-.45.233-.685.361-6.81,3.441-15.819,5.457-25.673,5.261-10.019-.216-19.044-2.667-25.747-6.487a40.505,40.505,0,0,1-19.189,4.035C12.144,198.639-.18,191.144,0,182.226c.179-8.938,12.811-15.927,28.178-15.6a45.161,45.161,0,0,1,11.514,1.7c6.432-6.668,18.754-11.045,32.9-10.937,1.911-13.368,21.387-23.568,44.916-23.1,14.253.307,26.847,4.45,34.883,10.649,1.242-.127,2.5-.216,3.782-.29,4.143-11.909,22.431-20.611,44.214-20.159a68.533,68.533,0,0,1,7.046.466,27.806,27.806,0,0,1-2.792-12.612c.4-19.044,20.648-34.087,45.257-33.584a54.176,54.176,0,0,1,23.477,5.71c5.767-14.142,23.009-24.178,43.187-23.765,17.386.361,32.27,8.38,39.385,19.766a56.073,56.073,0,0,1,10.559-.773c18.757.378,34.611,9.691,40.917,22.519,13.368-12.089,33.422-19.564,55.674-19.115,37.025.757,67.043,23.171,70.105,51.169a66.815,66.815,0,0,1,28-5.136c24.592.506,44.3,12.5,44.015,26.794a16.439,16.439,0,0,1-2.773,8.647c15.567,1.152,27.6,9.009,27.4,18.268" transform="translate(0 -60.686)" fill="#fefbf5"/>
      <path id="Path_31639" data-name="Path 31639" d="M696.4,237.751c3.77-3.672,5.278-9.885,6.214-15.375,1.96-11.514,3.119-25.376-5.855-32.849-3.446-2.871-7.874-4.237-11.764-6.472-9.679-5.558-15.343-15.964-23.053-24.037-14.3-14.975-36.546-20.845-57.228-19.85-26.651,1.284-28.043,15.146-28.043,15.146-3.959-8.029-10.917-20.122-31.145-17.447-9.067,1.2-13.361-15.3-21.193-18.195-10.32-3.807-25.654,1.066-34.908,7.012s-15.549,15.915-18.155,26.6c-.794,3.262-1.717,7.159-4.868,8.321-3.434,1.265-6.847-1.641-9.552-4.1a69.312,69.312,0,0,0-43.566-17.848c-7.287-.283-14.92.715-20.97,4.787s-10.038,11.8-8.039,18.815c.921,3.227,2.982,6.732,1.334,9.655-1,1.771-3.068,2.621-5.037,3.114-10.411,2.606-23.9-.2-29.932,8.675-2.663,3.917-3.093,9.454-6.948,12.206-4.76,3.4-11.2.408-16.831-1.188-21.058-5.973-56.531,24.688-24.624,30.826,6.951,1.338,14.1-.032,21.164-.378,24.318-1.194,47.4,9.694,69.307,20.324q18.973,9.206,37.944,18.415c12.956,6.29,27.056,12.75,41.213,10.1,8.036,18.708,28.881,29.819,49.236,30.29,11.92.278,24.158-2.753,33.648-9.972S570.6,275.4,569.936,263.5a53.285,53.285,0,0,0,43.772-24.047c9.659,6.686,22.343,7.041,33.992,5.511s23.193-4.7,34.93-4.173c3.318.147,6.756.577,9.873-.567a10.987,10.987,0,0,0,3.9-2.473" transform="translate(-153.629 -90.744)" fill="#fcf6e8"/>
      <path id="Path_31640" data-name="Path 31640" d="M706.923,240.32a8.279,8.279,0,0,1-.884,3.566,46.558,46.558,0,0,1-10.468-2.144c-4.143,4.993-11.028,9.046-19.513,11.514a35.28,35.28,0,0,1-4.9-1.225,21.039,21.039,0,0,1-3.082,2.992,73.118,73.118,0,0,1-13.223.9,70.6,70.6,0,0,1-22.18-3.91c-8.27,5.136-20.214,8.253-33.439,7.982-11.116-.236-21.206-2.793-28.935-6.848-5.639,14.287-22.991,24.487-43.315,24.072h-.125a29.725,29.725,0,0,1,.27,4.576c-.253,12.955-8.847,24.217-21.765,30.811a49.354,49.354,0,0,1-6.757.324c-18.612-.381-33.962-10.866-37.44-24.487q-2.863.218-5.838.162c-15.709-.324-28.9-6.575-33.26-14.918-.558.017-1.115,0-1.675,0-16.414-.342-30.069-7.135-33.8-16.035l-.54-.017c-12.45-.253-23.316-4.234-29.458-10.035a53.576,53.576,0,0,1-20.017,3.35,17.326,17.326,0,0,1-1.029-2.09h-.666c-15.782-.324-29.512-5.369-37.295-12.7a68.5,68.5,0,0,1-25.8,4.217,74.477,74.477,0,0,1-7.891-.577,67.35,67.35,0,0,1-27.441,4.9,68.142,68.142,0,0,1-25.71-5.335c-.523.307-1.081.594-1.641.884l-.017-.415c.145-7.064,10.107-12.595,22.269-12.342a35.892,35.892,0,0,1,9.1,1.351c5.079-5.261,14.827-8.739,26-8.648,1.516-10.576,16.9-18.632,35.495-18.251,11.279.233,21.225,3.512,27.584,8.412.972-.108,1.982-.179,2.991-.233,3.262-9.4,17.73-16.288,34.935-15.944,1.911.054,3.765.179,5.585.378a21.841,21.841,0,0,1-2.216-9.964c.307-15.063,16.323-26.936,35.782-26.541a42.821,42.821,0,0,1,18.54,4.5c4.559-11.17,18.2-19.1,34.142-18.774,13.729.27,25.513,6.614,31.135,15.6a46.869,46.869,0,0,1,8.341-.594c14.829.307,27.351,7.658,32.341,17.8,10.559-9.549,26.415-15.478,44.017-15.117,29.259.594,52.969,18.325,55.4,40.449a52.461,52.461,0,0,1,22.124-4.053c19.44.4,35.026,9.874,34.79,21.169a13.168,13.168,0,0,1-2.178,6.83c12.288.919,21.8,7.135,21.657,14.449" transform="translate(-110.963 -104.78)" fill="#fffffd"/>
      <path id="Path_31641" data-name="Path 31641" d="M370.95,251.167a27.5,27.5,0,0,0-13.763,5.028c-7.513,5.6-10.829,17.278-5.189,24.757a83.428,83.428,0,0,0-47.8-14.576c-8.468.091-17.295,1.64-24,6.81s-10.558,14.7-7.154,22.468c-1.459.486-2.918.918-4.4,1.314-1.6-.089-3.151-.234-4.7-.433a59.9,59.9,0,0,1-13.206,3.839q-2.163.244-4.325.378a109.359,109.359,0,0,1-18.359-.4c-2.974-.324-5.909-.757-8.847-1.331a58.449,58.449,0,0,1-8.414-2.92c-.307.182-.631.361-.955.523-2.613-2.431,3.279-7.206,5.278-8.252,3.8-1.965,7.029-3.424,11.244-3.91,5.423-.631,12.953.631,17.3-2.017,6.611-4.055,4.718-5.317,22.249-6.668,5.963-10.612,18.325-16.5,30.467-17.187,12.126-.685,24.109,3.171,35.154,8.27a42.307,42.307,0,0,1,39.419-15.694" transform="translate(-111.015 -161.519)" fill="#fff"/>
      <path id="Path_31642" data-name="Path 31642" d="M553.884,251.551c.56-.054,1.137-.108,1.712-.143l.216.5c-.628-.145-1.277-.253-1.928-.361" transform="translate(-293.948 -161.903)" fill="#fff"/>
      <path id="Path_31643" data-name="Path 31643" d="M889.309,244.442c-2.972-.54-5.963-1.1-8.955-1.638-.541-.162-1.1-.325-1.621-.506a21.816,21.816,0,0,1-1.53,1.658,55.584,55.584,0,0,1-35.622,12.234c9.478-6.754,19.909-15.26,20.053-26.9.162-11.028-9.782-20.142-20.486-22.864s-21.979-.56-32.808,1.584c-7.388-17.836-25.909-29.475-45.027-32.25s-38.646,2.235-56.248,10.2a27.259,27.259,0,0,0-15.64-13.656c-4.288-1.424-8.881-1.749-13.223-2.991-7.479-2.144-13.946-6.9-21.225-9.657a42.574,42.574,0,0,0-36.882,3.512c-2.648,1.623-5.278,3.622-8.377,3.91-2.829.27-5.548-.936-8.27-1.783-9.262-2.883-19.98-1.5-27.6,4.5-7.641,6-11.531,16.738-8.576,25.98a45.58,45.58,0,0,0-11.5-.936c-4.971-11.821,2.576-26.378,14.107-32.179,11.676-5.875,25.838-4.433,38.143-.017,11.966-19.135,41.728-23.838,59.006-9.333,2.65,2.232,5.155,4.883,8.488,5.89,2.539.759,5.241.452,7.891.415a36.386,36.386,0,0,1,30.664,16.973c16.65-11.622,37.8-17.551,57.675-13.4s37.745,19.332,42.465,39.078a57.085,57.085,0,0,1,39.763-.486c5.21,1.874,10.288,4.666,13.513,9.171,3.227,4.487,4.146,10.954,1.047,15.532,5.243.7,10.683,1.493,15.1,4.4,4.433,2.9,7.5,8.594,5.676,13.565" transform="translate(-294.126 -105.336)" fill="#fff"/>
      <path id="Path_31644" data-name="Path 31644" d="M627.732,280.474c0,.359.037.7.032,1.069-.069,4.637-1.164,9.64-4.649,12.953-2.984,2.839-7.142,3.827-11.16,3.74-9.311-.2-18.376-4.465-26.926-7.717a85.3,85.3,0,0,0-12.248-3.994c-.371-.081-.744-.15-1.117-.216l-.793-.089a19.526,19.526,0,0,0-2.044-.027c.209-.01.447-.248-.29.1-.342.16.071-.069.118-.091-.268.118-.533.246-.791.383a8.341,8.341,0,0,0-2.176,1.633c-3.218,3.2-5.052,8.12-9.119,10.9-5.487,3.753-12.376,1.985-17.927-.673-6.435-3.082-11.124-8.653-17.143-12.356-5.563-3.422-11.123-3.581-16.726-.317-5.42,3.156-10.411,6.6-16.991,6.42-6.744-.187-12.518-3.723-17.784-7.616-5.4-3.994-10.512-8.51-16.463-11.691-4.433-2.368-9.866-3.675-14.223-.433-3.824,2.844-5.742,7.643-7.474,11.937-2,4.959-3.9,10.006-7.371,14.154-9.227,11.023-25.872,7.764-36.855,1.405-12.978-7.515-21.291-20-32.263-29.794a54.32,54.32,0,0,0-16.77-10c-6.022-2.274-12.973-3.9-19.29-1.844-6.523,2.125-8.547,7.879-9.942,14.039-1.5,6.6-1.9,13.66-4.532,19.958-11.494,27.557-46.019,12.079-64.82,2.522-6.4-3.249-12.661-6.7-19.42-9.171a84.416,84.416,0,0,0-24.617-5.17c-17.956-.94-34.63,4.36-51.891,8.341-9.448,2.181-19.172,3.549-28.8,1.732-7.049-1.329-12.929-7.152-20.248-7-8.37.177-17.027,3.537-24.99,5.853-8.137,2.365-16.407,4.424-24.921,4.652-13.245.356-33.857-3.6-34.274-19.918C4.348,276.984.118,281.466.013,286.6c-.182,8.93,12.138,16.424,27.518,16.738a40.376,40.376,0,0,0,19.189-4.033c6.7,3.819,15.734,6.275,25.747,6.479,10.667.219,20.341-2.154,27.314-6.13a68.278,68.278,0,0,0,25.727,5.322,67.242,67.242,0,0,0,27.434-4.887,75.883,75.883,0,0,0,7.881.574,68.353,68.353,0,0,0,25.808-4.224c7.773,7.336,21.52,12.379,37.288,12.7.229.005.454,0,.683,0,4.71,11.266,21.991,19.872,42.759,20.294.708.015,1.41.017,2.11.013,5.526,10.554,22.2,18.457,42.082,18.862,2.518.052,4.983-.025,7.393-.209,4.394,17.244,23.809,30.5,47.373,30.983,27.107.553,49.43-16.011,49.858-37a29.684,29.684,0,0,0-.275-4.59l.12,0c20.329.415,37.681-9.777,43.325-24.077,7.722,4.06,17.819,6.632,28.923,6.857,13.23.27,25.177-2.839,33.446-7.99A70.562,70.562,0,0,0,543.89,316.2c17.914.363,33.476-5.463,40.733-14.169a49.019,49.019,0,0,0,14.238,2.348c16.919.344,30.8-7.339,31-17.163a11.587,11.587,0,0,0-2.125-6.747" transform="translate(-0.006 -165.067)" fill="#fdf7ed"/>
      <path id="Path_31645" data-name="Path 31645" d="M603.819,224.907a12.224,12.224,0,0,1-3.107-8.591,12.8,12.8,0,0,1,3.709-8.245,16.733,16.733,0,0,1,8.727-4.7,16.916,16.916,0,0,1,5.354-.223,14.408,14.408,0,0,1,5.047,1.557,19.3,19.3,0,0,0-9.451.725,17.942,17.942,0,0,0-7.088,4.472,14.372,14.372,0,0,0-3.768,6.82,15.38,15.38,0,0,0,.577,8.184" transform="translate(-318.792 -136.229)" fill="#fcf6e8"/>
      <path id="Path_31646" data-name="Path 31646" d="M1124.595,293.921a12.235,12.235,0,0,1,6.307-6.612,12.809,12.809,0,0,1,9.031-.353,17.046,17.046,0,0,1,10.681,10.411,14.336,14.336,0,0,1,.855,5.212,19.269,19.269,0,0,0-4.858-8.137,17.981,17.981,0,0,0-7.165-4.352,14.375,14.375,0,0,0-7.783-.334,15.387,15.387,0,0,0-7.069,4.165" transform="translate(-596.827 -180.422)" fill="#fcf6e8"/>
      <path id="Path_31647" data-name="Path 31647" d="M924.953,273.764a12.225,12.225,0,0,1,5.028-7.628,12.787,12.787,0,0,1,8.825-1.957,17.051,17.051,0,0,1,12.364,8.341,14.4,14.4,0,0,1,1.771,4.978,19.273,19.273,0,0,0-6.231-7.142,17.977,17.977,0,0,0-7.825-3.006,14.362,14.362,0,0,0-7.719,1.059,15.382,15.382,0,0,0-6.212,5.357" transform="translate(-490.876 -168.619)" fill="#fcf6e8"/>
      <path id="Path_31648" data-name="Path 31648" d="M781.946,225.609a19.023,19.023,0,0,0-3.2-5.642,17.546,17.546,0,0,0-9.944-6.128,15.472,15.472,0,0,0-13.167,3.333,23.49,23.49,0,0,0-1.1-2.716,21.768,21.768,0,0,0-10.077-10.193,17.591,17.591,0,0,0-13.285-.8,21.46,21.46,0,0,0-11.2,9.438,25,25,0,0,1,11.573-5.48,19.25,19.25,0,0,1,11.256,1.688,23.1,23.1,0,0,1,9.129,7.908,24.85,24.85,0,0,1,1.614,2.734l.589,1.533a18.119,18.119,0,0,1,4.588-2.6,16.859,16.859,0,0,1,9.52-.749,18.809,18.809,0,0,1,8.792,4.512,21.552,21.552,0,0,1,6.008,9.726,18.26,18.26,0,0,0-1.091-6.57" transform="translate(-382.09 -135.961)" fill="#fcf6e8"/>
    </g>
  </g>
</svg>
