<svg xmlns="http://www.w3.org/2000/svg" xmlns:xlink="http://www.w3.org/1999/xlink" width="543.161" height="356.877" viewBox="0 0 543.161 356.877">
  <defs>
    <linearGradient id="linear-gradient" y1="0.5" x2="1" y2="0.5" gradientUnits="objectBoundingBox">
      <stop offset="0" stop-color="#ffd03f"/>
      <stop offset="0.2" stop-color="#fcc939"/>
      <stop offset="0.46" stop-color="#f5b82a"/>
      <stop offset="0.77" stop-color="#ea9c12"/>
      <stop offset="0.9" stop-color="#e58e06"/>
      <stop offset="1" stop-color="#df8800"/>
    </linearGradient>
    <linearGradient id="linear-gradient-2" x1="0" y1="0.5" x2="1" y2="0.5" xlink:href="#linear-gradient"/>
    <linearGradient id="linear-gradient-3" x1="0" y1="0.501" x2="1" y2="0.501" xlink:href="#linear-gradient"/>
  </defs>
  <g id="Group_5" data-name="Group 5" transform="translate(-756.811 -1068.868)">
    <path id="Path_13" data-name="Path 13" d="M331.957,216.718A55.315,55.315,0,0,1,303.642,236.5c-16.692,5.193-32.767,2.844-47.728-5.688-21.515,33.88-67.512,37.96-93.6,9.645a52.7,52.7,0,0,0-.742-13.849c-4.575-26.337-26.955-45.5-53.292-45.5h-.742c-.618-.495-1.236-.989-1.731-1.36A126.013,126.013,0,0,0,72.3,161.2,90.277,90.277,0,0,0,63.27,145a77.383,77.383,0,0,0,13.849-9.892c13.725-11.994,31.036-12.983,48.47-9.521,13.354-31.778,36.105-50.325,70.85-49.707s56.754,20.031,68.625,51.561c30.788-7.543,54.529.124,69.243,22.133a57.817,57.817,0,0,1-2.349,67.141Z" transform="translate(956.048 993)" fill="url(#linear-gradient)"/>
    <path id="Path_14" data-name="Path 14" d="M338.031,225.4a25.945,25.945,0,0,1-8.9,2.1,9.609,9.609,0,0,1-1.978-.247,23.574,23.574,0,0,0-3.957-.371c-5.811,0-10.016,2.968-14.59,7.419-10.386,9.892-22.009,14.467-34.621,14.467a67.553,67.553,0,0,1-22.875-4.451c-13.23,21.886-34.621,33.014-56.26,33.014s-42.535-10.757-56.136-32.89c-4.2,1.484-8.408,3.339-12.859,4.451a59.538,59.538,0,0,1-14.467,1.855c-12.612,0-24.235-4.328-34.992-12.736a16.7,16.7,0,0,0-9.645-3.709h-.866a30.718,30.718,0,0,1-4.7.247c-20.773,0-37.713-13.6-40.062-33.509-2.72-22.751,12.612-41.175,36.353-43.648,1.36-.124,2.72-.371,4.08-.495,4.822-25.966,15.209-38.826,31.159-38.826,8.284,0,18.053,3.462,29.3,10.263,11.623-21.02,28.563-35.611,52.056-42.04a81.437,81.437,0,0,1,83.586,26.09,77.053,77.053,0,0,1,13.478,22.875c2.349,5.935,5.811,7.3,11.376,9.274a100.97,100.97,0,0,1,28.192,15.456c4.946,3.833,8.655,6.553,14.961,6.553h2.72c14.591,0,26.461,10.757,28.934,25.1a3.425,3.425,0,0,1,.124,1.113A30.137,30.137,0,0,1,338.031,225.4Z" transform="translate(736.001 1032.295)" fill="url(#linear-gradient-2)"/>
    <path id="Path_15" data-name="Path 15" d="M162.752,241.065c-21.824,11-41.608,9.521-59.969-5.935-1.484-1.236-4.575-1.236-6.739-.865-15.951,2.844-30.232-2.782-38.64-15.456a36.7,36.7,0,0,1,.309-40.371c8.037-12.056,22.689-17.62,38.207-14.9,2.349.433,5.688.124,7.357-1.3,14.405-11.932,30.417-15.58,48.408-10.263a21.883,21.883,0,0,0,3.277.309c5.75-16.2,15.518-29.057,30.912-37.033,31.345-16.26,69.738-3.462,84.39,28.624,2.72,5.935,5.379,6.924,11.623,6.182,17.063-1.978,31.468,4.142,42.659,17.187,2.844,3.339,5.255,4.76,9.954,4.2,11.685-1.422,21.082,3.153,27.326,13.23s6.121,20.526-.185,30.417c-6.492,10.263-16.322,14.1-28.315,13.292-2.72-.185-6.553.247-8.284,1.978-21.02,21.577-46.492,23.8-70.6,5.688-.556-.433-1.236-.8-2.411-1.607-8.964,17.558-22.318,29.243-42.72,30.6-20.093,1.36-35.178-7.419-46.554-24.111Z" transform="translate(895.083 1160.554)" fill="url(#linear-gradient-3)"/>
  </g>
</svg>
