<svg xmlns="http://www.w3.org/2000/svg" xmlns:xlink="http://www.w3.org/1999/xlink" width="118" height="118" viewBox="0 0 118 118">
  <defs>
    <linearGradient id="linear-gradient" x1="0.5" x2="0.5" y2="1" gradientUnits="objectBoundingBox">
      <stop offset="0" stop-color="#ffd03f"/>
      <stop offset="0.2" stop-color="#fcc939"/>
      <stop offset="0.46" stop-color="#f5b82a"/>
      <stop offset="0.77" stop-color="#ea9c12"/>
      <stop offset="0.9" stop-color="#e58e06"/>
      <stop offset="1" stop-color="#df8800"/>
    </linearGradient>
  </defs>
  <g id="Group_900" data-name="Group 900" transform="translate(-1273 -1203)">
    <path id="Polygon_4" data-name="Polygon 4" d="M54.757,4.243a6,6,0,0,1,8.485,0l50.515,50.515a6,6,0,0,1,0,8.485L63.243,113.757a6,6,0,0,1-8.485,0L4.243,63.243a6,6,0,0,1,0-8.485Z" transform="translate(1273 1203)" fill="url(#linear-gradient)"/>
    <g id="whatsapp_17_" data-name="whatsapp (17)" transform="translate(1317.47 1245.471)">
      <path id="Path_31467" data-name="Path 31467" d="M21.562,17.1l-.012.1c-2.972-1.481-3.283-1.679-3.667-1.1-.266.4-1.042,1.3-1.276,1.571s-.472.284-.873.1a10.97,10.97,0,0,1-3.248-2.007,12.263,12.263,0,0,1-2.244-2.8c-.4-.684.433-.781,1.187-2.209a.743.743,0,0,0-.034-.708c-.1-.2-.908-2.19-1.246-2.982s-.658-.689-.908-.689a2.012,2.012,0,0,0-1.849.465c-2.182,2.4-1.631,4.871.235,7.5,3.668,4.8,5.623,5.685,9.2,6.912a5.592,5.592,0,0,0,2.541.164A4.16,4.16,0,0,0,22.089,19.5a3.346,3.346,0,0,0,.243-1.926c-.1-.182-.365-.284-.77-.466Z" transform="translate(2.102 2.234)" fill="#401460"/>
      <path id="Path_31468" data-name="Path 31468" d="M27.736,4.662C17.343-5.385.143,1.9.137,16.075a16,16,0,0,0,2.156,8.036L0,32.44l8.563-2.233A16.18,16.18,0,0,0,32.44,16.084,15.942,15.942,0,0,0,27.716,4.715Zm2,11.377A13.458,13.458,0,0,1,9.448,27.534l-.487-.289L3.893,28.562l1.358-4.927-.323-.507A13.406,13.406,0,0,1,25.807,6.591a13.23,13.23,0,0,1,3.932,9.448Z" transform="translate(0 0)" fill="#401460"/>
    </g>
  </g>
</svg>
