<svg xmlns="http://www.w3.org/2000/svg" width="5048.754" height="1314.828" viewBox="0 0 5048.754 1314.828">
  <g id="Group_897" data-name="Group 897" transform="translate(0 -18)">
    <path id="Path_1317" data-name="Path 1317" d="M180.225,1245.261A140.055,140.055,0,0,0,375.652,1229a246.366,246.366,0,0,0-1.711,28.97,241.8,241.8,0,0,0,58.2,157.708c-33.37,87.823-118.341,150.244-217.88,150.244C118.13,1565.922,35.6,1507.7,0,1424.607v-99.945a143.558,143.558,0,0,0,180.225-79.4" transform="translate(0 -309.675)" fill="#070707"/>
    <path id="Path_1318" data-name="Path 1318" d="M4531.551,1547.761a90.849,90.849,0,0,1-58.674-21.378,91.37,91.37,0,0,1-99.262,28.01,91.256,91.256,0,0,1-150.587-98.464,91.247,91.247,0,0,1-80.9-90.659,93.907,93.907,0,0,1,.473-9.384,144.763,144.763,0,0,1-92.972-51.733,76.793,76.793,0,0,1-84.809,45.117A91.265,91.265,0,0,1,3798.463,1318c-.587.016-1.173.016-1.761.016a90.688,90.688,0,0,1-45.654-12.236,115.7,115.7,0,0,1-219.07,49.467,91.3,91.3,0,0,1-104.655-15.267,91.272,91.272,0,0,1-136.834,37.475,91,91,0,0,1-70.585,33.434c-1.107,0-2.216-.015-3.323-.065a91.276,91.276,0,0,1-142.6,97.567,141.752,141.752,0,0,1-231.11,93.266,141.795,141.795,0,0,1-262.085-98.594,115.738,115.738,0,0,1-92.467-113.355c0-.994.049-1.956.081-2.933a.058.058,0,0,0-.049-.016,114.7,114.7,0,0,1-39.072-17.108,115.709,115.709,0,0,1-218.711-32.522,91.284,91.284,0,0,1-117.005-87.547c0-1.45.033-2.884.1-4.318a91.344,91.344,0,0,1-83.456-14.632,91.249,91.249,0,0,1-133.641,61.248,115.71,115.71,0,0,1-221.448,21.2,91.349,91.349,0,0,1-120.8-56.294,91.252,91.252,0,0,1-108.663-1.417,115.679,115.679,0,0,1-195.281,101.135,91.4,91.4,0,0,1-108.63,50.885,107.575,107.575,0,0,1-203.753,10.037A107.609,107.609,0,0,1,823.667,1401.7a91.253,91.253,0,0,1-174.913-36.434,90.2,90.2,0,0,1,.635-10.753,91.292,91.292,0,0,1-122.969-36.532,241.746,241.746,0,0,0,1.76-29.3q0-6.624-.342-13.165,2.322.414,4.693.733c.326.049.651.082.994.131.407.049.831.1,1.255.147.864.1,1.743.2,2.623.277s1.76.147,2.656.211q.88.074,1.76.1a.793.793,0,0,0,.2.016c.489.033.994.049,1.5.065.554.016,1.124.049,1.678.049.847.017,1.695.033,2.542.033a111.828,111.828,0,0,0,60.4-17.63q.953,2.444,2,4.839c.44,1.011.9,2.021,1.369,3.015.261.587.538,1.157.815,1.743.619,1.3,1.27,2.591,1.938,3.862.163.343.342.668.505.994.375.7.75,1.4,1.141,2.1.114.211.228.423.358.636.717,1.3,1.467,2.591,2.233,3.861.407.717.847,1.417,1.287,2.1.912,1.5,1.874,3,2.884,4.464.472.717.978,1.433,1.466,2.134q1.051,1.516,2.151,2.982c.8,1.091,1.629,2.182,2.476,3.259.31.407.636.814.962,1.205.57.717,1.141,1.418,1.727,2.118.734.9,1.5,1.776,2.248,2.64.049.048.1.114.146.162.522.586,1.043,1.173,1.581,1.76.57.635,1.157,1.254,1.743,1.89l.017.016c.586.619,1.173,1.238,1.776,1.858s1.206,1.222,1.825,1.824c.6.6,1.206,1.206,1.825,1.792l.032.033c.62.587,1.255,1.173,1.874,1.743,1.254,1.158,2.542,2.3,3.829,3.405.033.033.049.066.081.066.636.553,1.287,1.091,1.939,1.629s1.32,1.091,2,1.63c1.092.863,2.2,1.726,3.324,2.574.261.2.505.391.766.57l2.1,1.515q1.956,1.4,3.961,2.734a139.58,139.58,0,0,0,12.463,7.384c2.048,1.084,4.124,2.1,6.226,3.073q5.086,2.37,10.38,4.349c.686.257,1.37.52,2.066.757.09.033.179.064.269.1.212.074.424.154.638.227.137.049.276.1.412.148,1.043.359,2.1.7,3.145,1.043.09.029.184.053.275.081q4.443,1.406,9.012,2.517c.314.077.63.158.945.237.163.032.326.082.489.114.344.077.689.15,1.033.227q.99.225,1.987.434c.231.051.464.1.7.154.6.128,1.209.241,1.82.355.473.09.945.182,1.419.268l.932.174c.033,0,.049.016.082.016h.032c.408.082.831.147,1.239.213l1.1.174c.251.039.5.076.754.116.724.107,1.445.217,2.169.313.363.051.733.093,1.1.14.338.044.679.09,1.02.131.228.027.453.06.684.088a2.8,2.8,0,0,0,.375.032c.375.05.766.1,1.141.131.391.049.766.082,1.157.114.041.006.081.007.122.012.494.047.989.088,1.483.13.39.032.774.075,1.165.1.684.057,1.354.1,2.023.143.233.015.466.026.7.041.607.036,1.209.068,1.821.093l1.222.05c.057,0,.111,0,.168.006.43.015.858.034,1.289.046.4.015.8.029,1.216.029.945.016,1.89.032,2.835.032s1.906-.016,2.851-.032c.976-.015,1.939-.047,2.9-.088q3.241-.127,6.444-.395c.729-.061,1.444-.124,2.174-.2q.9-.073,1.808-.2c.616-.066,1.216-.131,1.83-.21,2.088-.262,4.159-.575,6.217-.925.86-.147,1.714-.3,2.577-.461.684-.131,1.368-.26,2.053-.407.115-.022.233-.051.348-.075.355-.073.709-.15,1.064-.226.116-.025.231-.047.347-.073.538-.1,1.059-.228,1.6-.342.7-.164,1.385-.327,2.086-.506.223-.05.448-.115.673-.171.279-.069.557-.141.838-.213.137-.036.275-.065.412-.1,1.45-.36,2.884-.766,4.318-1.19l.371-.114c.09-.026.177-.054.265-.081.5-.148.994-.3,1.5-.456s1.01-.31,1.515-.473c.668-.211,1.336-.44,2-.668.115-.033.228-.081.326-.114,1.532-.522,3.047-1.076,4.546-1.646,1.385-.521,2.753-1.075,4.106-1.645.067-.029.138-.057.211-.086l.272-.115c.872-.373,1.756-.746,2.628-1.135.31-.137.616-.291.926-.43.606-.275,1.206-.559,1.807-.841.419-.2.843-.381,1.26-.587.652-.309,1.287-.618,1.923-.945l.021-.011a.425.425,0,0,0,.053-.027c.694-.347,1.4-.708,2.092-1.069.538-.277,1.076-.57,1.613-.864.068-.036.134-.074.2-.111.244-.132.489-.268.732-.4.182-.1.368-.2.549-.3.895-.48,1.774-1,2.656-1.514q2.586-1.507,5.1-3.12c.032-.021.065-.037.1-.058a.292.292,0,0,1,.044-.033c.136-.089.272-.181.409-.269.626-.4,1.239-.795,1.86-1.214q.514-.316,1.027-.684c.864-.586,1.727-1.189,2.575-1.809.489-.342.978-.7,1.466-1.058.422-.305.844-.629,1.266-.945.207-.157.415-.309.622-.465.186-.141.37-.276.556-.415.147-.114.293-.228.44-.358.782-.57,1.548-1.189,2.3-1.809.619-.49,1.238-.994,1.841-1.5l.041-.034.155-.129c.065-.055.131-.105.2-.163.8-.668,1.581-1.335,2.363-2.02l.032-.032c.694-.616,1.393-1.25,2.082-1.886.443-.405.88-.818,1.318-1.228.582-.545,1.165-1.088,1.732-1.644s1.143-1.121,1.711-1.688c.46-.459.921-.92,1.374-1.387.6-.617,1.2-1.233,1.787-1.863a1.071,1.071,0,0,0,.2-.195c.56-.6,1.117-1.221,1.671-1.838q.5-.556,1-1.117c.032-.036.065-.071.1-.109q.831-.929,1.613-1.858l.016-.015c.408-.472.8-.945,1.19-1.418.287-.333.554-.664.826-1,.155-.189.314-.375.468-.564.067-.083.138-.164.2-.247.7-.864,1.4-1.76,2.07-2.656.489-.619.961-1.238,1.418-1.873.086-.109.163-.224.246-.335.125-.169.251-.336.375-.506.052-.075.111-.146.161-.219.261-.342.505-.7.766-1.059.326-.456.652-.912.961-1.368.668-.962,1.32-1.923,1.972-2.9a133.638,133.638,0,0,0,124.68-6.468c.342.587.684,1.173,1.043,1.743.228.391.472.782.717,1.173.115.2.228.375.342.554,0,.016,0,.016.016.016a137.629,137.629,0,0,0,10.2,14.289l1.613,1.956c.179.211.342.407.521.619.575.672,1.15,1.343,1.725,2l.13.146c.686.778,1.387,1.558,2.1,2.323.549.607,1.115,1.2,1.678,1.793l.411.43c.635.661,1.269,1.313,1.919,1.964.277.277.554.57.847.831.243.243.494.473.738.712.341.331.679.661,1.024.989.19.181.378.368.568.547a2.979,2.979,0,0,0,.228.229c1.043.978,2.118,1.94,3.193,2.9.033.032.066.049.1.081.977.864,1.955,1.694,2.949,2.525.391.326.782.652,1.173.962.03.024.062.047.093.072q2.644,2.155,5.39,4.184c.042.031.079.064.122.094.554.424,1.124.832,1.695,1.223.57.423,1.157.831,1.743,1.222.162.116.326.225.49.338.292.2.58.406.875.6l0,0c.75.505,1.483.994,2.248,1.482l.293.2c.688.453,1.39.89,2.092,1.327.153.1.308.189.463.283q1.159.712,2.317,1.4c.435.257.881.49,1.32.741q1.31.755,2.638,1.482c.444.244.877.5,1.321.742.9.472,1.809.961,2.721,1.418.831.423,1.646.831,2.477,1.222.733.359,1.467.7,2.2,1.043.228.109.464.208.7.313l.329.15c.323.143.639.291.963.433q1.125.489,2.249.977c.469.2.948.378,1.419.573q.831.34,1.663.67c.484.191.959.4,1.448.583.554.211,1.092.423,1.645.619.065.032.147.049.212.082.146.048.293.114.44.162.114.033.212.082.326.115.258.1.52.183.782.274l.145.052c.218.074.438.155.653.228.733.261,1.467.5,2.216.749.906.312,1.821.59,2.729.866.088.025.175.055.261.082.1.029.2.066.3.094.782.245,1.581.473,2.362.685a3.058,3.058,0,0,0,.359.114c1.955.538,3.926,1.059,5.914,1.516,1.027.244,2.037.473,3.063.684,1.206.261,2.412.505,3.633.717q1.833.342,3.667.636c1.222.2,2.46.375,3.7.538,1.222.162,2.477.309,3.715.439,1.255.131,2.493.245,3.747.342.75.065,1.5.114,2.249.163.117.006.238.009.355.016.392.025.787.062,1.176.082a1.392,1.392,0,0,1,.261.016c1.092.048,2.183.1,3.275.114.18.016.342.016.505.016,1.189.032,2.395.049,3.6.049,1.043,0,2.069-.016,3.1-.032a2.381,2.381,0,0,0,.342-.016c.293,0,.586,0,.864-.016a3.4,3.4,0,0,0,.407-.016c.88-.016,1.76-.064,2.639-.1.082,0,.163-.016.245-.016s.153-.011.23-.015l.031,0,.733-.048c.163-.018.342-.018.521-.033l.22-.016c.084-.006.17-.008.253-.017.554-.033,1.108-.065,1.661-.114.505-.033,1.027-.081,1.532-.13h.032l.1-.009a.6.6,0,0,0,.1-.007c.36-.032.724-.072,1.089-.105l1.274-.123c.246-.024.492-.057.738-.085l.4-.044c.065-.009.13-.018.2-.025.214-.025.427-.052.636-.074.277-.048.554-.065.831-.114.945-.1,1.874-.228,2.8-.374a3.357,3.357,0,0,0,.417-.069c.072-.009.147-.017.219-.028.912-.131,1.824-.277,2.72-.441l.067-.012c.042-.007.086-.013.129-.021.177-.029.357-.066.534-.1.484-.089.966-.175,1.454-.261.13-.033.277-.049.407-.082.277-.049.537-.1.8-.146,1.189-.245,2.362-.489,3.536-.75,1.662-.342,3.292-.749,4.921-1.173,1.222-.31,2.444-.652,3.65-1.01.831-.228,1.662-.473,2.477-.734.016,0,.032-.017.048-.017,1.027-.308,2.053-.634,3.063-.977,1.124-.375,2.248-.765,3.357-1.173.375-.114.734-.245,1.092-.391.114-.049.244-.081.358-.131.945-.358,1.874-.716,2.8-1.091q1.906-.733,3.764-1.565c1.238-.521,2.476-1.075,3.7-1.661.619-.277,1.222-.57,1.841-.864,1.092-.521,2.183-1.075,3.275-1.646.717-.342,1.417-.717,2.118-1.108,1.059-.554,2.1-1.141,3.145-1.744.407-.228.831-.472,1.239-.7.668-.391,1.336-.782,1.987-1.189,1.483-.88,2.916-1.792,4.351-2.737,1.01-.651,2.021-1.336,3.014-2.021l.016-.015c.457-.326.929-.652,1.385-.978.473-.326.929-.652,1.385-.995.016-.016.032-.016.048-.032.6-.44,1.206-.879,1.793-1.336.765-.57,1.531-1.141,2.281-1.743.75-.571,1.483-1.174,2.216-1.776.635-.505,1.255-1.026,1.857-1.548.277-.228.554-.456.831-.7.44-.375.863-.733,1.287-1.124.31-.261.636-.554.945-.831q.856-.758,1.711-1.564c1.352-1.238,2.672-2.509,3.975-3.8q2-2.029,3.959-4.106c.652-.7,1.288-1.4,1.923-2.118s1.254-1.434,1.873-2.151l39.073,12.269a133.107,133.107,0,0,0,42.624,6.958q2.75,0,5.473-.112a133.607,133.607,0,0,0,119.288-85.691v-.017c.212-.537.424-1.092.62-1.646q.367-.952.684-1.906c.245-.684.489-1.368.7-2.069.326-.978.651-1.955.945-2.949.016-.032.016-.065.032-.081.31-1.01.6-2,.88-3.014.2-.7.391-1.4.57-2.1.2-.7.375-1.4.537-2.119.065-.212.115-.424.163-.651.114-.521.244-1.027.358-1.548,0-.032.016-.049.016-.081.065-.245.115-.489.163-.717.212-.945.408-1.906.6-2.868.146-.716.277-1.434.407-2.151.016-.048.016-.114.032-.162.016-.13.049-.261.065-.391.016-.066.016-.131.032-.2.066-.44.147-.879.213-1.32.211-1.206.391-2.412.553-3.633.082-.57.163-1.157.228-1.728a.9.9,0,0,0,.017-.211c.114-.847.212-1.711.293-2.574q.171-1.613.293-3.227A84.31,84.31,0,0,0,1491.3,1184.8c.261.489.521.993.782,1.482.245.489.521.961.8,1.434a.059.059,0,0,0,.016.048c.325.6.668,1.189,1.026,1.776.587.994,1.189,1.972,1.825,2.933.147.228.294.473.456.7.163.245.326.489.489.717.228.358.472.7.717,1.043.9,1.287,1.841,2.558,2.819,3.8.293.375.586.734.9,1.109.8.977,1.613,1.923,2.444,2.851.375.44.782.88,1.189,1.3.456.489.913.978,1.369,1.45l1.124,1.125c.847.847,1.711,1.662,2.607,2.461.457.423.929.847,1.4,1.238.506.457,1.01.881,1.533,1.3.423.358.847.717,1.287,1.042.391.326.8.636,1.205.945,1.239.962,2.526,1.891,3.829,2.754.652.457,1.3.88,1.971,1.3.571.375,1.157.733,1.727,1.092.2.114.375.229.554.326.554.326,1.107.652,1.661.962a2.641,2.641,0,0,0,.359.195c.6.343,1.222.669,1.841.994,1.4.75,2.819,1.451,4.269,2.1l2.1.927c.032.017.081.033.113.05l2.053.83a2.03,2.03,0,0,0,.294.115c.7.261,1.385.521,2.086.766.749.277,1.515.538,2.28.782,1.494.5,3.024.931,4.566,1.331.075.019.15.035.225.055.736.189,1.471.387,2.216.554.782.179,1.58.358,2.379.505.652.129,1.3.26,1.955.374.7.131,1.4.245,2.118.343.1.016.212.031.309.049.126.018.253.029.378.047.161.02.324.047.486.067.407.065.815.114,1.222.163a.157.157,0,0,0,.082.015h.016c.082.017.163.017.244.034.1.016.2.016.294.032.587.065,1.189.13,1.792.179.473.048.929.081,1.4.114.343.033.7.045,1.056.066.137.009.274.024.41.032.213,0,.424.016.636.031.667.05,1.352.066,2.037.082.733.016,1.466.033,2.2.033,1.076,0,2.135-.017,3.194-.065,1.059-.033,2.118-.1,3.178-.18.326-.017.652-.066.978-.081.249-.023.5-.053.749-.075.38-.038.758-.066,1.141-.1a1.42,1.42,0,0,0,.261-.033c1.042-.114,2.069-.261,3.1-.407h.016l.049-.009c.062,0,.122-.013.2-.024.531-.08,1.052-.178,1.574-.271.9-.155,1.8-.326,2.693-.508.277-.059.556-.108.833-.166.18-.033.358-.082.538-.114.407-.1.814-.18,1.222-.294.066-.014.134-.033.2-.052.559-.135,1.118-.274,1.673-.421.022-.006.044-.01.066-.016.586-.147,1.156-.31,1.726-.472l.031-.01c.235-.067.467-.138.7-.209l.036-.009c.081-.017.163-.05.244-.065.619-.18,1.255-.376,1.874-.587a.123.123,0,0,1,.065-.016c.7-.244,1.418-.489,2.118-.733.137-.046.267-.1.4-.149.233-.084.463-.176.694-.262.494-.182.989-.361,1.483-.566l.161-.066c.261-.1.52-.21.779-.316.034-.014.067-.03.1-.042.538-.213,1.059-.441,1.581-.668l.047-.021c.693-.3,1.377-.616,2.058-.938.278-.127.553-.248.828-.378.6-.293,1.189-.586,1.792-.9a1.249,1.249,0,0,0,.212-.114c.019-.009.034-.019.054-.027a84.729,84.729,0,0,0,8.649-5.15c.259-.177.525-.348.78-.525.033-.025.07-.051.1-.075.557-.388,1.1-.787,1.652-1.187.17-.125.34-.242.51-.367.039-.028.078-.059.118-.088.119-.089.238-.181.357-.27.152-.114.3-.223.455-.342.032-.016.048-.049.082-.064.473-.359.945-.734,1.417-1.109.444,2.224.954,4.423,1.506,6.605.125.51.252,1.021.384,1.526.033.1.049.2.082.293.13.472.26.928.391,1.4.132.516.29,1.032.445,1.548q.154.532.315,1.062c.217.737.437,1.468.675,2.2.225.694.468,1.383.706,2.074.194.574.385,1.146.588,1.714.222.646.441,1.281.678,1.915.082.211.163.424.245.619.211.569.435,1.125.658,1.683s.438,1.1.662,1.648c.26.646.517,1.292.8,1.932.326.766.652,1.532.994,2.3.063.139.132.274.194.415.032.07.067.138.1.208.395.862.787,1.718,1.206,2.57.376.78.766,1.557,1.155,2.326.812,1.6,1.664,3.175,2.536,4.738.168.3.319.608.488.906q1.581,2.778,3.294,5.468c.985,1.57,2.017,3.124,3.084,4.664.57.815,1.158,1.63,1.744,2.444.461.645.948,1.286,1.435,1.921.241.321.484.638.73.956.475.625.949,1.246,1.452,1.864.586.749,1.206,1.5,1.824,2.248.049.065.1.115.147.179.6.717,1.222,1.434,1.842,2.152s1.238,1.391,1.866,2.079l.264.288c.621.682,1.244,1.365,1.9,2.032.673.706,1.347,1.394,2.035,2.084.036.036.072.07.106.106.679.689,1.37,1.352,2.063,2.013.715.683,1.432,1.367,2.164,2.034q2.219,2.033,4.526,3.964c.752.623,1.5,1.248,2.272,1.856s1.564,1.239,2.346,1.841c.815.636,1.645,1.238,2.476,1.858.75.553,1.515,1.091,2.281,1.63.046.032.094.064.14.1l.352.238c.642.452,1.289.9,1.952,1.329.7.472,1.4.929,2.119,1.385.151.1.311.191.465.289.326.206.657.408.984.611l.1.06c.636.408,1.288.8,1.94,1.19.651.407,1.319.782,1.988,1.173.177.1.36.2.539.3.156.09.315.174.473.262.358.2.714.4,1.073.6.571.326,1.14.637,1.727.929.13.065.245.146.375.2.391.228.8.44,1.205.636.1.058.216.1.32.16.156.079.306.17.463.247l.294.147c.452.229.918.445,1.378.668q3.481,1.7,7.07,3.2c.166.069.33.145.5.21.031.01.062.023.092.036.6.247,1.2.491,1.8.729.028.012.059.023.082.034.493.194.994.381,1.495.57.447.171.889.348,1.337.514l.02.008q1.637.611,3.323,1.173c.029.007.062.018.1.03q4.295,1.447,8.721,2.6c.769.2,1.534.411,2.311.6.245.066.506.114.766.18.7.163,1.4.326,2.118.472.038.01.077.016.114.025q.856.188,1.714.365c.054.012.106.025.16.035l.156.027q2.139.434,4.3.794c.626.105,1.249.219,1.878.318l.435.062c.12.018.242.033.364.05.233.034.463.069.7.1.685.1,1.385.2,2.086.278l.13.016a134.794,134.794,0,0,0,16.7,1.043c1.124,0,2.265-.017,3.389-.049.129,0,.256-.01.385-.011.388-.011.776-.022,1.164-.038.179-.006.357-.008.538-.016s.358-.017.537-.017c.179-.016.375-.016.554-.033l1.01-.048c.114,0,.212-.016.326-.016.284-.024.562-.037.844-.054h0c.316-.02.637-.042.947-.061a.559.559,0,0,1,.163-.016.561.561,0,0,0,.162-.016c.326-.017.668-.049.994-.082.454-.033.909-.077,1.366-.119.789-.073,1.572-.16,2.355-.245.867-.094,1.737-.179,2.6-.288.88-.115,1.76-.244,2.64-.375l1.222-.195h.015l.638-.1c.189-.031.38-.054.569-.091.147-.016.277-.048.424-.065.081-.016.18-.033.261-.049h.032c.668-.123,1.338-.253,2.006-.383.56-.108,1.117-.221,1.676-.336.344-.07.688-.137,1.026-.21.7-.147,1.385-.293,2.069-.44.962-.228,1.923-.456,2.868-.7.172-.042.345-.093.517-.138.579-.148,1.154-.3,1.731-.458.292-.082.592-.152.88-.235.667-.182,1.346-.378,2.014-.575.058-.018.12-.034.179-.052.53-.16,1.058-.322,1.587-.481.581-.182,1.171-.376,1.756-.568.331-.11.661-.216.99-.326.23-.074.461-.145.691-.231.268-.09.527-.2.8-.288q1.682-.584,3.344-1.213c.222-.084.447-.156.669-.242.49-.184.971-.38,1.456-.576q.46-.183.919-.37c.49-.2.98-.4,1.47-.6.424-.178.852-.37,1.28-.556.318-.137.635-.273.952-.412.158-.071.316-.135.473-.206.815-.358,1.63-.734,2.428-1.125l.015-.006c.39-.184.779-.372,1.167-.559l.009,0c.407-.179.8-.375,1.188-.586.2-.1.4-.2.6-.3.516-.261,1.036-.515,1.548-.781s1.035-.535,1.535-.808c.268-.142.531-.3.8-.442q.931-.506,1.85-1.027c.067-.038.138-.073.2-.112.261-.146.538-.293.8-.457h.017c.146-.081.309-.179.456-.276.388-.21.744-.437,1.117-.649.182-.107.357-.218.538-.326l.593-.361c.016-.017.032-.017.049-.032.049-.033.114-.065.163-.1.6-.358,1.19-.716,1.776-1.091a.249.249,0,0,1,.069-.054q.42-.266.839-.538c.083-.052.166-.106.249-.158.619-.391,1.239-.8,1.841-1.223.212-.13.424-.277.619-.407l.181-.125c.082-.055.165-.112.248-.169.064-.042.13-.089.191-.13.429-.292.841-.6,1.262-.9q2.024-1.429,3.992-2.926c.349-.265.7-.52,1.051-.79.131-.1.255-.208.384-.309q4.019-3.148,7.78-6.6c.384-.351.777-.691,1.156-1.045q1.319-1.233,2.6-2.51.328-.323.65-.647c.856-.857,1.711-1.724,2.537-2.594.929-.994,1.857-2,2.77-3.015q2.737-3.056,5.245-6.273c.424-.547.839-1.108,1.261-1.659,2.057-2.7,4.025-5.472,5.876-8.329,1.19-1.793,2.3-3.617,3.373-5.475.537-.929,1.075-1.858,1.58-2.8.521-.945,1.043-1.89,1.532-2.851.489-.946.978-1.907,1.45-2.885.343-.684.684-1.385,1.01-2.085.229-.505.473-1.01.7-1.515.114-.277.244-.554.358-.831.326-.685.619-1.385.912-2.086,0-.015.016-.032.016-.048.359-.832.7-1.679,1.044-2.526l1.075-2.787a.12.12,0,0,0,.017-.065c.309-.8.586-1.6.863-2.4.062-.172.117-.347.179-.521.036-.1.072-.208.108-.314.094-.275.194-.551.284-.826s.179-.521.26-.783c0-.016.016-.048.016-.065.081-.245.163-.488.245-.733.033-.114.065-.228.115-.359.032-.13.081-.261.114-.375.294-.9.57-1.792.831-2.7.017-.056.026-.107.039-.158.057-.192.1-.388.156-.58.263-.89.51-1.778.75-2.683.277-1.059.538-2.117.8-3.192l0-.01c.521-2.147.975-4.3,1.366-6.476v-.017q.245-1.247.44-2.493c.111-.7.22-1.38.321-2.065.035-.24.075-.481.109-.721.111-.748.207-1.483.3-2.216q.121-.978.245-1.955c.009-.168.032-.347.052-.523.007-.061.012-.12.018-.18,0-.039.006-.074.011-.113.115-1.01.212-2.036.293-3.062.031-.387.051-.778.08-1.164.033-.438.061-.876.089-1.315.023-.37.056-.735.074-1.106.066-1.108.115-2.233.148-3.356a70.616,70.616,0,0,0,18.021,2.346,69.748,69.748,0,0,0,36.97-10.558,70.06,70.06,0,0,0,62.422,38.257c.7,0,1.385-.016,2.07-.033.472-.015.961-.032,1.433-.065l.107-.006c.326-.017.65-.035.974-.057.211-.012.421-.017.629-.034.521-.033,1.026-.083,1.548-.131l.929-.1.165-.021c.287-.031.57-.073.857-.108.34-.031.692-.073,1.031-.132.277-.033.57-.081.847-.114.425-.067.841-.138,1.261-.213,1.408-.242,2.8-.519,4.181-.846q1.2-.269,2.346-.587l.2-.049c.38-.1.748-.214,1.12-.326.125-.038.25-.074.378-.109.058-.021.121-.035.181-.054.521-.147,1.042-.31,1.547-.49.408-.129.8-.261,1.19-.391.191-.07.375-.137.564-.2l.283-.1c.151-.056.307-.11.456-.167.5-.179.994-.375,1.482-.57.44-.164.864-.343,1.288-.521.059-.026.118-.054.178-.08.157-.065.311-.139.465-.206.549-.236,1.1-.468,1.637-.725s1.075-.5,1.6-.765c.733-.359,1.451-.734,2.167-1.125.675-.354,1.349-.736,2.011-1.119.068-.041.137-.081.205-.12.608-.358,1.215-.717,1.808-1.092a2.769,2.769,0,0,0,.358-.228c.585-.37,1.183-.756,1.756-1.155.067-.047.135-.094.2-.139.6-.4,1.185-.817,1.755-1.232.049-.032.082-.065.13-.1.44-.326.864-.635,1.287-.977a3.519,3.519,0,0,0,.293-.228l.059-.046c.188-.146.374-.292.559-.44.1-.078.2-.153.295-.232.391-.309.782-.635,1.173-.961.505-.407.994-.848,1.483-1.271.109-.1.213-.2.321-.3.162-.145.317-.295.477-.442.178-.166.36-.327.538-.5.472-.424.912-.863,1.368-1.3.359-.342.718-.7,1.059-1.06.044-.045.087-.094.131-.14.079-.081.151-.163.228-.243.341-.355.685-.711,1.011-1.084.456-.488.913-.994,1.336-1.5.212-.245.424-.473.635-.733l.039-.046c.026-.031.054-.062.08-.095.091-.1.181-.2.272-.316l.228-.278c.391-.488.782-.961,1.156-1.466.294-.375.587-.75.848-1.124.078-.106.151-.209.23-.312.127-.172.254-.343.38-.516.067-.092.138-.185.205-.28.032-.033.049-.081.081-.114.049-.082.114-.147.163-.228.065-.1.147-.2.212-.31.244-.342.473-.684.717-1.043.407-.6.8-1.206,1.189-1.825a70.186,70.186,0,0,0,53.378,2.917c.2.88.391,1.776.6,2.64a3.913,3.913,0,0,0,.115.473c.212.88.44,1.743.684,2.607V1196c.244.832.472,1.646.734,2.477q.489,1.565,1.025,3.128c.31.863.619,1.694.945,2.542l.1.244.049.147c.287.719.577,1.421.875,2.125.069.168.14.335.21.5.309.735.63,1.459.968,2.181.1.228.212.472.309.7.343.717.685,1.434,1.043,2.134a.266.266,0,0,0,.049.1c.315.628.645,1.237.973,1.852.756,1.423,1.542,2.83,2.37,4.206.036.061.072.119.111.184.424.717.864,1.417,1.3,2.1l.087.132c.276.427.563.844.844,1.266.3.447.59.9.893,1.34l.09.119c.066.1.132.2.2.292.008.008.012.021.02.029.152.224.32.437.478.657.546.763,1.1,1.519,1.666,2.262.042.054.076.111.12.161.419.559.858,1.1,1.3,1.65.342.427.691.847,1.042,1.267.018.022.033.045.053.066l.04.045q1.036,1.241,2.112,2.441l.049.056c.489.553.977,1.091,1.483,1.629.472.5.961.993,1.45,1.483.44.456.879.9,1.336,1.335.068.069.141.132.211.2.154.15.313.3.469.448l.021.02.7.652c.456.424.929.864,1.4,1.287.189.169.382.336.573.5.232.2.461.405.694.606l.167.147,1.466,1.222c.17.14.347.27.518.409.655.528,1.313,1.05,1.983,1.561.166.129.33.265.5.392.506.392,1.027.765,1.548,1.14.07.052.147.1.217.154q.449.322.9.64c.15.1.289.209.443.315.7.483,1.427.953,2.151,1.425.442.287.883.572,1.331.852.6.368,1.195.738,1.8,1.1a1.393,1.393,0,0,0,.2.131,1.679,1.679,0,0,1,.228.13c.193.113.389.218.583.328.419.241.84.474,1.262.709.091.049.179.105.272.154.13.081.277.163.424.245.537.292,1.075.57,1.613.847.134.068.262.13.392.2.366.188.732.374,1.1.556.029.012.057.031.085.044a.421.421,0,0,0,.114.065c.115.066.229.115.358.179.805.391,1.628.76,2.449,1.128.259.117.514.242.776.358,1.216.533,2.444,1.046,3.684,1.528l.439.161.048.02c.233.085.463.172.7.258.489.179.961.359,1.45.522.6.227,1.221.44,1.842.635.075.025.156.046.232.07.385.126.78.23,1.165.35.744.23,1.484.471,2.236.671.218.062.435.119.652.181.268.073.535.15.806.221.083.023.168.049.253.071.651.163,1.319.326,1.971.49.495.117.99.221,1.484.33.285.062.569.129.854.188l.155.035c.538.114,1.076.228,1.613.326.407.081.815.146,1.222.213.323.056.646.107.97.161.213.035.426.073.642.108a.328.328,0,0,1,.051.008c.8.114,1.58.244,2.378.342.651.081,1.318.16,1.983.231l.131.016c.089.009.176.022.265.03.7.065,1.4.131,2.086.179q1.074.1,2.15.148h.049c.231.013.465.019.7.029.647.034,1.3.073,1.942.084.815.016,1.629.033,2.444.033a90.816,90.816,0,0,0,44.808-11.765c.212.619.424,1.222.652,1.841s.456,1.223.684,1.825c.775,2.073,1.61,4.1,2.5,6.107.1.24.2.483.307.722a.08.08,0,0,1,.012.031q.659,1.491,1.368,2.982c.49,1.042.995,2.085,1.516,3.112.032.048.048.114.081.162.521,1.027,1.059,2.037,1.6,3.047.509.929,1.019,1.839,1.539,2.742.123.218.248.433.373.65.855,1.49,1.739,2.966,2.683,4.412.093.155.2.307.293.46.271.428.539.861.818,1.285l.03.048q.512.807,1.074,1.612.441.709.978,1.417c.356.531.729,1.062,1.123,1.6.277.386.551.774.832,1.158.028.04.052.075.082.115.261.359.521.733.8,1.092a.3.3,0,0,1,.065.081c.081.1.146.212.228.31.309.408.6.8.913,1.206.372.475.767.938,1.144,1.412q.723.912,1.461,1.807c.335.408.653.828.995,1.229s.7.814,1.044,1.222c.488.557.971,1.11,1.466,1.656.215.243.434.48.65.721.493.547.988,1.092,1.5,1.631.277.326.587.635.88.945.685.717,1.385,1.433,2.086,2.134q1.124,1.149,2.3,2.249c.685.651,1.385,1.3,2.086,1.955.084.077.169.15.254.227l0,0c.547.492,1.085.985,1.649,1.465.619.554,1.254,1.107,1.89,1.629a.168.168,0,0,0,.081.065c.2.175.406.336.605.506.329.276.654.553.982.825.077.058.146.124.222.184l.016.017c.831.684,1.662,1.336,2.51,1.987.513.416,1.04.813,1.566,1.206.13.1.256.205.387.3.022.016.043.037.067.055.831.62,1.662,1.222,2.51,1.825.746.528,1.477,1.039,2.22,1.538.21.143.418.291.631.433.07.048.137.1.212.147s.147.1.212.146c1.107.75,2.253,1.452,3.394,2.16.621.387,1.235.785,1.863,1.164q1.143.7,2.3,1.37c.916.521,1.817,1.026,2.733,1.531.061.032.119.065.178.1.9.487,1.813.96,2.727,1.45a.064.064,0,0,0,.05.016q2.882,1.493,5.832,2.82c.969.428,1.937.856,2.907,1.27l.168.072c.914.393,1.827.773,2.759,1.133.178.066.342.131.488.2.8.3,1.607.61,2.41.9l.739.268c.889.324,1.78.648,2.667.945,2.069.717,4.171,1.369,6.289,1.955.991.289,1.982.549,2.974.808l.37.1c.924.243,1.861.462,2.783.693l.439.1c.929.212,1.857.407,2.786.6l.128.026.35.072.239.048c.814.163,1.63.327,2.444.473l.815.146c.882.15,1.776.3,2.659.434.188.029.375.055.563.084.784.122,1.562.228,2.35.33.571.081,1.141.162,1.711.212a.836.836,0,0,0,.2.033c.1.016.179.016.277.032s.179.016.277.032c.082.017.179.017.261.033.13.017.276.032.407.049a2.879,2.879,0,0,0,.375.033c.114.011.231.025.348.036l.324.034c.091.01.183.018.272.028.571.049,1.157.1,1.728.147a1.533,1.533,0,0,0,.276.033c.539.05,1.06.1,1.6.114a4.2,4.2,0,0,0,.472.033c.049,0,.1.016.147.016.488.048.993.065,1.5.1h.152c.238.014.475.032.713.043.032,0,.063.007.1.007.815.048,1.646.081,2.477.1.244.017.489.017.733.017,1.124.033,2.232.049,3.357.049,1.173,0,2.33-.016,3.487-.049.285,0,.564-.017.841-.038.59-.018,1.179-.035,1.768-.064.657-.021,1.318-.054,1.97-.094.586-.033,1.157-.065,1.744-.114.065,0,.147-.016.212-.016.112-.007.215-.022.327-.028.368-.03.736-.064,1.1-.095.03-.005.057-.005.086-.009l.538-.049c.912-.065,1.809-.163,2.721-.26.065,0,.129-.017.2-.017.13-.016.244-.033.374-.049.106-.011.211-.026.319-.039.26-.031.52-.065.78-.1l.221-.028c.489-.049.978-.114,1.467-.179.146-.017.309-.049.456-.065.635-.082,1.255-.18,1.873-.277.18-.028.361-.06.54-.089.145-.022.292-.047.437-.07.309-.05.621-.1.93-.151.635-.1,1.254-.212,1.874-.326.668-.125,1.337-.25,2.006-.389l.22-.044q1.207-.235,2.417-.512c.733-.163,1.467-.326,2.2-.5l.09-.023c.284-.068.563-.142.845-.212l.042-.01c.049-.016.1-.016.147-.033,1.418-.342,2.818-.717,4.22-1.108.815-.244,1.646-.473,2.46-.733.651-.2,1.3-.391,1.955-.6.163-.049.326-.1.505-.163,1.026-.342,2.052-.684,3.079-1.043.064-.015.129-.048.2-.064.723-.263,1.447-.535,2.17-.81.476-.179.948-.361,1.422-.544.756-.286,1.512-.573,2.257-.878.966-.4,1.933-.808,2.884-1.22l.157-.069c.741-.331,1.48-.661,2.205-.991.522-.229,1.027-.473,1.532-.718.5-.23.993-.477,1.487-.727.394-.192.786-.389,1.177-.587q1.1-.552,2.191-1.115l.2-.1q1.109-.6,2.2-1.206c.309-.171.617-.346.927-.518,1.466-.827,2.919-1.678,4.353-2.568q.647-.4,1.291-.8c.689-.426,1.375-.859,2.043-1.308.8-.521,1.6-1.059,2.394-1.6.056-.038.11-.078.166-.118.109-.075.214-.153.323-.227.846-.589,1.694-1.175,2.527-1.789.762-.561,1.526-1.138,2.29-1.712l.195-.15c.8-.614,1.618-1.242,2.4-1.886.831-.651,1.646-1.32,2.461-2v-.016c.668-.554,1.32-1.124,1.972-1.694q.726-.635,1.438-1.282.5-.445.99-.9c.553-.5,1.107-1.006,1.662-1.534.41-.386.808-.777,1.206-1.17q.417-.406.828-.811c.483-.473.966-.941,1.437-1.424.491-.5.968-1.009,1.448-1.516.18-.192.364-.381.544-.573l.03-.03c.341-.374.7-.749,1.042-1.123.359-.375.7-.766,1.043-1.158.159-.174.308-.357.464-.532q.683-.767,1.353-1.547c.073-.084.148-.164.22-.251.57-.652,1.125-1.3,1.662-1.971.135-.161.256-.322.386-.481q.477-.584.942-1.171c.024-.031.05-.061.072-.091.089-.111.172-.227.26-.337q3.116-3.948,5.938-8.126c.3-.445.6-.89.889-1.33s.568-.876.848-1.315q.506-.788,1-1.585c.315-.506.633-1.013.936-1.515.34-.571.675-1.144,1.01-1.717q.32-.55.636-1.1c.152-.268.308-.536.456-.813.391-.685.765-1.369,1.14-2.069.09-.163.17-.327.258-.489.218-.413.436-.823.651-1.237.021-.044.048-.088.069-.132.276-.537.553-1.075.831-1.629.246-.478.476-.96.7-1.438.222-.457.447-.91.662-1.368.267-.536.521-1.074.758-1.626.293-.652.6-1.321.88-1.988.039-.087.072-.174.108-.26q.235-.539.461-1.084c.084-.2.179-.408.261-.612.423-1.01.831-2.02,1.239-3.047.078-.2.15-.406.228-.609l.026-.072c.172-.458.348-.916.511-1.372.179-.488.359-.994.538-1.482.2-.58.4-1.152.595-1.729.472-1.395.912-2.805,1.341-4.221.64-2.11,1.245-4.234,1.779-6.385,2.265.18,4.546.294,6.86.294a83.908,83.908,0,0,0,44.514-12.709q.694,1.358,1.436,2.687c.028.048.052.1.079.148.36.635.7,1.255,1.076,1.857l.023.038c.17.285.344.567.516.85l.014.025q.392.636.783,1.27c.108.171.219.343.329.514l.04.062.413.646c.016.017.032.017.032.033.146.229.31.474.473.7.07.1.142.2.212.308q.349.516.706,1.026c.042.059.083.123.125.182.122.175.25.34.372.511q.834,1.161,1.706,2.293c.074.095.142.2.218.292.016.032.05.065.066.1a3.355,3.355,0,0,1,.212.277,1.688,1.688,0,0,0,.146.179c.081.095.152.186.228.282s.173.21.26.317.2.246.3.363c.081.114.179.212.26.326.227.28.465.554.7.83.42.5.85.987,1.281,1.477.243.273.481.55.725.822.031.035.062.065.094.1q2.14,2.351,4.458,4.535l.026.026c.057.054.118.1.172.161.582.545,1.168,1.086,1.765,1.615h0l.015.014q.964.855,1.954,1.682a.384.384,0,0,0,.052.047c1.222,1.025,2.484,2,3.767,2.946a84.071,84.071,0,0,0,21.828,11.645l.018.008c.017,0,.033.016.049.016l.043.014a83.65,83.65,0,0,0,11.931,3.264c.064.016.128.031.2.045.037.01.077.011.118.018.283.055.566.113.849.163.08.016.159.032.238.047s.147.017.212.033h.031q2.173.381,4.386.648c.212.027.42.059.635.086.019,0,.044,0,.065,0,1.773.2,3.565.336,5.369.424.068,0,.135.008.2.011l.04,0c.189.009.375.022.563.029h.035c.184.007.369.007.554.013.422.019.84.037,1.268.037.374.016.733.016,1.107.016.017.261.017.538.017.8,0,.994-.017,1.972-.033,2.95v.032l.049.013q.144,12.687,1.492,25.063.894,8.251,2.3,16.342.7,4.046,1.531,8.045,1.655,8,3.8,15.811t4.758,15.416a255.828,255.828,0,0,0,19.681,43.534q5.912,10.385,12.744,20.15a258.5,258.5,0,0,0,19.719,24.8q2.65,2.942,5.386,5.8a257.685,257.685,0,0,0,84.964,58.891q3.224,1.376,6.494,2.668a257.528,257.528,0,0,0,277.091-57.99,257.518,257.518,0,0,0,59.18-92.727c3.682.716,7.413,1.287,11.21,1.678a133.506,133.506,0,0,0,14.29.765,133.114,133.114,0,0,0,99.457-44.4,133.46,133.46,0,0,0,26.249-43.895c2.623.179,5.247.309,7.9.309a113.054,113.054,0,0,0,12.041-.635h.017a112.387,112.387,0,0,0,84.728-54.633,91.3,91.3,0,0,1,21.671,15.381c.537-1.222,1.092-2.444,1.694-3.633a84.584,84.584,0,0,0,62.372,1.76,133.6,133.6,0,0,0,241.864,26.982c1.646-2.754,3.194-5.589,4.644-8.473a85.329,85.329,0,0,0,14.517,1.271,82.485,82.485,0,0,0,8.57-.44,83.927,83.927,0,0,0,40.311-15.185,133.628,133.628,0,0,0,38.613,66.589q3.663,3.436,7.565,6.6h.016a133.636,133.636,0,0,0,112.312,26.527h.033c1.281-.279,2.549-.589,3.817-.9a132.225,132.225,0,0,0,32.421-12.766,134.2,134.2,0,0,0,53.557-54.812,132.045,132.045,0,0,0,12.5-34.9c1.628.554,3.275,1.075,4.954,1.531a84.329,84.329,0,0,0,99.44-46.4,70.067,70.067,0,0,0,50.511-8.832,217.313,217.313,0,0,0-20.156,91.718q0,9.777.848,19.341a218.13,218.13,0,0,0,217.489,199c1.091,0,2.167,0,3.259-.016a218.282,218.282,0,0,0,47.4-5.9,214.978,214.978,0,0,0,48.735-17.988,218.5,218.5,0,0,0,62.73-48.2v123.963a91.555,91.555,0,0,1-25.255,3.536" transform="translate(428.948 -340.396)" fill="#4d0877"/>
    <path id="Path_1319" data-name="Path 1319" d="M4921.771,2397.064a222.146,222.146,0,0,1-49.708,17.989,226.891,226.891,0,0,1-48.346,5.9c-1.114.017-2.211.017-3.324.017a226.094,226.094,0,0,1-84.375-16.212,223.938,223.938,0,0,1-72.41-47.073,218.22,218.22,0,0,1-50.473-75.033,213.343,213.343,0,0,1-14.575-60.678c-.565-6.371-.865-12.823-.865-19.34a213.745,213.745,0,0,1,20.559-91.718,72.009,72.009,0,0,1-37.177,10.249,72.855,72.855,0,0,1-14.343-1.418,86.137,86.137,0,0,1-78.36,49.5,87.5,87.5,0,0,1-23.067-3.1c-1.712-.456-3.39-.977-5.051-1.531a130.4,130.4,0,0,1-12.748,34.9,136.166,136.166,0,0,1-87.7,67.578c-1.3.314-2.6.626-3.909.9h-.018a138.945,138.945,0,0,1-29.083,3.063,137.207,137.207,0,0,1-85.473-29.59q-4-3.152-7.73-6.6a134.377,134.377,0,0,1-21.171-24.828,131.669,131.669,0,0,1-18.215-41.761,87.4,87.4,0,0,1-49.857,15.626,88.653,88.653,0,0,1-14.808-1.271c-1.479,2.884-3.058,5.719-4.737,8.473a136.718,136.718,0,0,1-117.1,65.289,138.779,138.779,0,0,1-31.891-3.683,136.554,136.554,0,0,1-47.864-21.606,134.008,134.008,0,0,1-49.841-66.983,87.064,87.064,0,0,1-86.138-15.707c-.416.733-.847,1.466-1.313,2.2a93.408,93.408,0,0,0-9.8-4.222,93.408,93.408,0,0,1,9.8,4.222,114.817,114.817,0,0,1-86.42,54.633h-.016a117.459,117.459,0,0,1-12.281.635c-2.709,0-5.385-.13-8.061-.309a132.974,132.974,0,0,1-26.773,43.9,136.947,136.947,0,0,1-72.343,41.354,140,140,0,0,1-43.676,2.281c-3.872-.391-7.678-.962-11.434-1.678a259.213,259.213,0,0,1-83.861,113.273,267.419,267.419,0,0,1-259.125,37.443q-3.333-1.289-6.623-2.667a263,263,0,0,1-86.661-58.891q-2.792-2.859-5.494-5.8a259.257,259.257,0,0,1-20.113-24.8q-6.96-9.756-13-20.15a253.33,253.33,0,0,1-20.075-43.534q-2.665-7.6-4.853-15.416t-3.876-15.811q-.845-4-1.562-8.044-1.433-8.087-2.348-16.342-1.366-12.367-1.521-25.064l0-.03c-.017-.977-.017-1.971-.017-2.964v-.8h-.017c-.382,0-.748,0-1.13-.017-.436,0-.863-.017-1.293-.035-.145-.007-.289,0-.435-.013h-.165c-.2,0-.38-.016-.575-.031l-.041,0-.208-.011c-.778-.032-1.557-.075-2.335-.135-1-.081-1.994-.164-2.975-.278a1.531,1.531,0,0,1-.166-.011c-.02,0-.046,0-.066,0-.216-.027-.43-.059-.646-.087-.729-.088-1.46-.176-2.179-.288-.016.016-.033.016-.066,0-.747-.114-1.5-.228-2.227-.358h-.033c-.067-.016-.133-.016-.217-.032s-.161-.031-.242-.047c-.258-.049-.519-.1-.771-.148a.7.7,0,0,1-.095-.015c-.042-.006-.083-.009-.121-.018-.07-.015-.135-.029-.2-.046s-.152-.033-.232-.052c-.731-.147-1.479-.294-2.21-.456a3.073,3.073,0,0,1-.366-.081q-1.047-.22-2.094-.49-1.072-.269-2.144-.586c-.382-.1-.765-.212-1.147-.326-.665-.18-1.346-.392-2.011-.619-.349-.1-.681-.212-1.013-.326-.317-.094-.635-.217-.954-.328l-.043-.015c-.017,0-.033-.016-.05-.016l-.019-.008a.509.509,0,0,1-.065-.024c-.615-.212-1.23-.44-1.827-.668a3.681,3.681,0,0,1-.383-.146c-.532-.179-1.047-.391-1.579-.6-.9-.358-1.8-.732-2.692-1.14q-1.322-.587-2.643-1.222t-2.592-1.32c-.864-.44-1.712-.912-2.543-1.385-.847-.488-1.679-.977-2.493-1.482s-1.628-1.026-2.443-1.564c-.8-.521-1.6-1.076-2.376-1.63-.211-.148-.417-.307-.628-.459-1.308-.941-2.6-1.921-3.842-2.946a.452.452,0,0,1-.053-.046c-.031-.027-.065-.053-.1-.084-.643-.516-1.27-1.051-1.9-1.6l-.015-.013h0c-.605-.519-1.207-1.068-1.8-1.617-.056-.053-.118-.105-.176-.159l-.027-.025c-.424-.4-.846-.8-1.27-1.213-.382-.358-.765-.732-1.147-1.107-.716-.717-1.429-1.467-2.131-2.215-.031-.034-.065-.065-.1-.1-.248-.272-.49-.55-.739-.823-.314-.349-.633-.694-.94-1.051-.123-.138-.243-.283-.365-.425-.241-.275-.483-.549-.715-.829-.083-.114-.183-.211-.265-.326-.1-.117-.2-.243-.3-.364-.086-.106-.176-.209-.264-.316s-.149-.186-.232-.281a1.78,1.78,0,0,1-.149-.179,3.17,3.17,0,0,0-.216-.278c-.017-.033-.05-.064-.067-.1-.076-.1-.146-.2-.223-.292-.447-.56-.881-1.127-1.306-1.712-.15-.19-.29-.388-.432-.579-.126-.171-.258-.336-.382-.513-.043-.058-.084-.122-.128-.181-.244-.335-.482-.681-.719-1.027-.072-.1-.145-.2-.216-.307-.166-.229-.332-.473-.482-.7,0-.016-.017-.016-.034-.033l-.422-.646-.04-.062c-.112-.171-.225-.342-.336-.513l-.8-1.271-.016-.024c-.171-.289-.355-.564-.527-.851l-.023-.038c-.382-.6-.731-1.221-1.1-1.857-.028-.048-.053-.1-.08-.148q-.755-1.323-1.466-2.687a86.843,86.843,0,0,1-45.4,12.709c-2.36,0-4.687-.115-7-.294-.545,2.151-1.162,4.274-1.815,6.384-.4,1.294-.8,2.589-1.243,3.865-.04.121-.085.238-.125.357-.2.577-.4,1.148-.606,1.729-.183.489-.366.994-.549,1.483-.166.458-.346.914-.522,1.372l-.026.071c-.08.2-.153.406-.233.61-.415,1.027-.831,2.037-1.263,3.047-.083.2-.179.407-.266.613-.153.361-.306.723-.47,1.083-.038.087-.071.173-.112.259-.283.668-.6,1.337-.9,1.989-.241.552-.5,1.089-.773,1.626l-.025.052c-.166.343-.332.7-.515,1.043-.041.091-.091.18-.135.271-.228.479-.46.96-.713,1.439-.282.555-.565,1.092-.848,1.629-.021.044-.048.088-.07.132-.213.412-.437.825-.665,1.237-.09.163-.171.326-.263.489-.382.7-.765,1.385-1.163,2.07-.151.276-.309.544-.465.813-.1.173-.195.351-.3.523-.113.195-.234.388-.349.581-.341.574-.683,1.145-1.031,1.718-.306.5-.633,1.008-.954,1.515-.15.232-.295.469-.442.7-.188.3-.389.59-.582.885-.286.438-.565.877-.864,1.315s-.6.885-.907,1.329c-.191.281-.379.561-.572.837q-2.62,3.735-5.486,7.289c-.09.111-.175.226-.264.337-.023.031-.05.06-.075.091-.312.394-.634.783-.96,1.172-.134.159-.256.319-.394.481-.548.667-1.113,1.319-1.7,1.97-.073.087-.15.167-.224.253-.452.524-.913,1.037-1.378,1.545-.161.176-.312.357-.475.532-.349.391-.7.782-1.063,1.156-.349.375-.715.75-1.064,1.125l-.028.03c-.185.193-.373.381-.557.571-.488.509-.976,1.016-1.476,1.518-.48.482-.972.953-1.464,1.424-.14.131-.274.269-.414.4s-.289.272-.432.41c-.406.393-.811.784-1.23,1.171-.565.529-1.13,1.034-1.7,1.536-.166.147-.333.307-.5.452s-.34.3-.51.444q-.728.645-1.468,1.282c-.664.571-1.329,1.141-2.011,1.695v.016c-.831.684-1.662,1.353-2.51,2.005-.8.643-1.634,1.271-2.451,1.885l-.091.07c-.037.025-.072.052-.108.08-.778.575-1.558,1.152-2.335,1.712-.849.615-1.714,1.2-2.578,1.79-.109.075-.218.153-.328.228-.057.039-.112.08-.168.117-.814.538-1.629,1.076-2.443,1.6-.681.45-1.381.882-2.084,1.308-.137.084-.269.172-.409.256a2.641,2.641,0,0,1-.4.244c-.168.1-.341.2-.509.3-1.462.89-2.945,1.741-4.44,2.568-.175.095-.346.2-.519.29-.141.079-.286.152-.427.229q-1.117.611-2.248,1.206l-.2.1q-1.112.564-2.235,1.114c-.226.112-.446.227-.673.336-.176.088-.351.167-.525.251-.507.249-1.012.5-1.519.726s-1.031.489-1.562.717c-.739.331-1.494.661-2.249.993l-.078.033-.081.035c-.972.411-1.956.825-2.943,1.22-.76.3-1.531.592-2.3.878-.258.1-.513.2-.773.295-.226.088-.452.165-.678.25q-1.107.413-2.214.81c-.066.015-.133.048-.2.064-1.047.358-2.094.7-3.141,1.043-.184.066-.349.114-.516.163-.665.212-1.33.407-1.994.6-.831.261-1.678.49-2.51.734-1.429.391-2.858.765-4.3,1.107-.051.016-.1.016-.15.033l-.043.01-.863.212-.092.023c-.748.18-1.5.342-2.244.505q-1.234.278-2.466.511l-.126.027-.1.018c-.681.14-1.365.266-2.046.389-.632.114-1.263.228-1.911.326-.316.055-.633.1-.949.151l-.445.07c-.183.03-.367.061-.55.088-.632.1-1.263.2-1.911.277-.15.016-.316.049-.465.065-.5.066-1,.13-1.5.18l-.226.027-.8.1c-.11.013-.217.028-.324.039l-.382.049c-.066,0-.133.017-.2.017-.93.1-1.844.195-2.775.26l-.549.049c-.028,0-.058,0-.088.009-.374.044-.746.07-1.124.094-.114.006-.219.021-.334.027-.067,0-.149.017-.216.017-.6.049-1.18.082-1.778.114-.664.04-1.339.073-2.008.094-.135,0-.269.016-.4.02-.366.016-.748.033-1.13.033-.088.008-.183.006-.272.012-.283.019-.567.037-.858.037-1.18.033-2.36.049-3.556.049-1.147,0-2.277-.017-3.424-.049-.249,0-.5,0-.748-.016-.848-.016-1.7-.049-2.526-.1-.033,0-.065-.005-.1-.005-.15,0-.3-.014-.45-.028a.855.855,0,0,1-.2-.016h-.233c-.516-.033-1.03-.05-1.529-.1-.049,0-.1-.017-.149-.017a4.522,4.522,0,0,1-.482-.033c-.548-.017-1.08-.066-1.628-.114a1.64,1.64,0,0,1-.283-.033l-1.762-.147-.277-.028-.331-.034-.356-.036a3.142,3.142,0,0,1-.382-.032l-.415-.049c-.083-.016-.183-.016-.266-.033-.1-.017-.183-.017-.283-.032s-.182-.018-.282-.033a.863.863,0,0,1-.2-.033c-.582-.048-1.164-.13-1.745-.212-.8-.1-1.6-.207-2.4-.329-.11-.018-.218-.028-.328-.045-.081-.011-.164-.026-.245-.039-.9-.137-1.814-.284-2.713-.434-.282-.049-.548-.1-.831-.146-.831-.147-1.662-.311-2.493-.473l-.245-.049c-.118-.024-.238-.046-.357-.072-.043-.007-.085-.017-.13-.025-.947-.2-1.895-.391-2.842-.6l-.449-.1c-.94-.23-1.9-.45-2.838-.69-.056-.016-.113-.029-.17-.043s-.138-.037-.208-.055c-1.01-.258-2.021-.518-3.033-.808-2.161-.587-4.3-1.238-6.415-1.955-.906-.3-1.813-.621-2.721-.945-.14-.051-.279-.1-.42-.146-.112-.039-.223-.084-.334-.122-.82-.294-1.639-.6-2.458-.9q-.224-.1-.5-.2c-.949-.362-1.88-.741-2.812-1.134l-.1-.039c-.024-.011-.051-.023-.076-.033-.989-.414-1.976-.843-2.965-1.271-2.011-.88-3.989-1.825-5.949-2.82a.066.066,0,0,1-.05-.015c-.932-.489-1.865-.963-2.782-1.45l-.093-.049-.088-.049c-.934-.5-1.853-1.01-2.787-1.531q-1.181-.67-2.35-1.368c-.157-.094-.319-.181-.475-.277-.484-.285-.946-.6-1.424-.888-1.164-.708-2.332-1.408-3.462-2.159-.066-.05-.149-.1-.216-.147s-.143-.1-.216-.147c-.177-.115-.354-.231-.532-.358-.036-.024-.073-.051-.111-.075-.757-.5-1.5-1.01-2.265-1.539-.864-.6-1.711-1.206-2.559-1.824-.025-.018-.046-.039-.068-.055a.818.818,0,0,1-.115-.092c-.1-.069-.186-.144-.281-.212-.536-.393-1.074-.79-1.6-1.206-.864-.652-1.712-1.3-2.559-1.988l-.016-.016c-.077-.061-.148-.125-.225-.184-.342-.269-.671-.548-1-.824-.2-.171-.417-.332-.617-.507a.164.164,0,0,1-.083-.064c-.648-.522-1.3-1.076-1.928-1.63-.575-.479-1.124-.973-1.682-1.466l0,0c-.086-.076-.173-.149-.259-.226-.714-.652-1.429-1.3-2.127-1.956q-1.2-1.1-2.343-2.249c-.715-.7-1.43-1.417-2.128-2.134-.3-.309-.615-.62-.9-.945-.523-.539-1.029-1.084-1.531-1.632-.118-.132-.246-.257-.364-.389-.1-.109-.2-.222-.3-.332-.5-.545-1-1.1-1.5-1.655-.349-.408-.714-.814-1.063-1.222s-.673-.821-1.015-1.228q-.753-.9-1.491-1.806c-.384-.475-.786-.938-1.167-1.415-.316-.407-.615-.8-.931-1.205-.083-.1-.15-.212-.233-.31a.279.279,0,0,0-.067-.081c-.282-.358-.548-.733-.814-1.092-.03-.039-.054-.076-.083-.114-.25-.336-.491-.673-.731-.995-.042-.055-.076-.109-.118-.164-.4-.531-.782-1.064-1.146-1.594q-.547-.71-1-1.418-.572-.806-1.1-1.614l-.03-.047c-.3-.42-.565-.854-.834-1.285-.1-.154-.2-.3-.3-.459-.963-1.446-1.865-2.924-2.737-4.413-.062-.1-.126-.207-.188-.313s-.128-.226-.193-.337c-.53-.9-1.05-1.813-1.569-2.742-.549-1.01-1.1-2.02-1.628-3.047-.034-.048-.051-.114-.084-.163-.532-1.026-1.047-2.069-1.546-3.113q-.723-1.49-1.4-2.981a.112.112,0,0,0-.01-.031l-.007-.019c-.108-.232-.2-.47-.309-.7-.908-2.006-1.76-4.034-2.55-6.106-.232-.6-.464-1.206-.7-1.826s-.449-1.221-.665-1.841a94.069,94.069,0,0,1-45.7,11.764c-.831,0-1.662-.016-2.493-.032-.659-.012-1.321-.05-1.981-.083-.237-.011-.474-.017-.711-.029l-.05,0q-1.1-.048-2.194-.147c-.7-.049-1.412-.114-2.127-.179-.091-.008-.179-.021-.271-.031l-.134-.015c-.678-.072-1.358-.15-2.022-.231-.814-.1-1.612-.228-2.427-.342-.017,0-.033-.007-.052-.008-.218-.032-.437-.071-.655-.107-.331-.054-.659-.1-.989-.162-.415-.065-.831-.13-1.246-.212-.549-.1-1.1-.211-1.646-.326l-.158-.034-.869-.189c-.506-.109-1.011-.214-1.516-.331-.665-.162-1.346-.326-2.011-.489-.087-.021-.173-.048-.257-.07-.274-.072-.549-.147-.822-.222-.222-.061-.444-.117-.666-.18-.767-.2-1.521-.441-2.28-.672-.4-.121-.8-.224-1.188-.35-.078-.024-.16-.045-.238-.07-.631-.2-1.263-.407-1.878-.635-.5-.164-.981-.343-1.479-.522-.245-.086-.479-.172-.717-.26l-.05-.019-.447-.162c-1.265-.482-2.518-1-3.757-1.528-.266-.116-.525-.241-.792-.359-.838-.367-1.675-.736-2.5-1.127-.133-.065-.249-.115-.366-.179a.42.42,0,0,1-.116-.065c-.03-.013-.058-.031-.088-.043-.381-.174-.75-.366-1.124-.556-.133-.068-.264-.13-.4-.2-.549-.276-1.1-.554-1.646-.847-.15-.082-.3-.163-.432-.244-.093-.049-.185-.1-.278-.153-.434-.228-.861-.469-1.288-.71-.2-.11-.4-.215-.6-.327a1.756,1.756,0,0,0-.233-.13,1.306,1.306,0,0,1-.2-.13c-.615-.357-1.225-.727-1.833-1.095-.2-.121-.4-.236-.593-.355-.258-.165-.509-.332-.765-.5-.737-.473-1.479-.943-2.193-1.427-.155-.105-.3-.21-.452-.314-.312-.212-.621-.425-.922-.641-.072-.05-.15-.1-.221-.152-.532-.375-1.064-.75-1.579-1.141-.171-.127-.336-.264-.507-.393q-1.022-.765-2.023-1.561c-.173-.139-.355-.267-.528-.408l-1.5-1.223c-.055-.049-.113-.1-.17-.146q-.351-.3-.708-.606c-.2-.166-.392-.333-.585-.5-.481-.424-.963-.864-1.429-1.288l-.714-.652-.022-.019c-.166-.143-.323-.3-.479-.448-.07-.069-.145-.133-.215-.2-.465-.441-.914-.88-1.363-1.337-.5-.489-1-.978-1.479-1.484-.515-.537-1.014-1.074-1.513-1.629l-.05-.055q-1.1-1.2-2.154-2.44l-.04-.047c-.02-.02-.037-.043-.055-.064-.295-.323-.577-.658-.843-.994-.075-.09-.144-.183-.219-.274-.452-.543-.9-1.089-1.326-1.648-.045-.051-.08-.108-.123-.162-.166-.2-.331-.414-.475-.621-.416-.534-.819-1.089-1.223-1.641-.161-.22-.331-.433-.489-.656-.008-.009-.012-.021-.02-.029a1,1,0,0,1-.146-.216l-.058-.077-.092-.118c-.309-.438-.606-.893-.911-1.339-.251-.37-.51-.731-.751-1.1l-.109-.16-.09-.133c-.448-.684-.9-1.385-1.329-2.1l-.113-.182c-.039-.062-.076-.126-.119-.193a.43.43,0,0,1-.1-.163c-.565-.927-1.113-1.873-1.645-2.818-.189-.339-.367-.691-.553-1.033-.334-.615-.671-1.225-.992-1.851a.284.284,0,0,1-.05-.1c-.365-.7-.714-1.417-1.063-2.134-.1-.228-.216-.473-.316-.7-.344-.722-.671-1.445-.987-2.179-.018-.046-.04-.088-.06-.134s-.033-.049-.033-.082c-.041-.094-.079-.192-.12-.286-.306-.7-.6-1.406-.894-2.125l-.05-.147-.1-.244c-.332-.848-.648-1.679-.964-2.542q-.548-1.564-1.047-3.128c-.266-.831-.5-1.645-.748-2.477v-.016c-.249-.865-.482-1.727-.7-2.607a4.078,4.078,0,0,1-.116-.473c-.216-.864-.415-1.76-.615-2.64a72.914,72.914,0,0,1-54.444-2.917c-.4.619-.8,1.223-1.213,1.826-.25.358-.482.7-.731,1.042-.066.115-.15.212-.216.31-.05.082-.117.147-.166.228-.033.033-.05.082-.083.114-.067.094-.141.188-.209.281-.128.17-.256.344-.387.516-.08.1-.155.2-.234.312-.266.374-.565.749-.865,1.124-.382.505-.781.978-1.179,1.466-.083.1-.15.179-.233.277-.092.113-.184.214-.276.317-.028.031-.057.065-.084.095l-.039.045c-.216.261-.432.489-.648.733-.432.505-.9,1.01-1.363,1.5-.331.374-.683.729-1.03,1.083-.079.08-.155.165-.233.243-.045.046-.088.094-.133.14-.349.359-.715.717-1.081,1.059-.465.44-.914.88-1.4,1.3-.181.171-.367.332-.548.5-.161.148-.322.3-.487.443-.11.1-.216.2-.327.3-.5.424-1,.863-1.512,1.27-.4.327-.8.652-1.2.962-.1.078-.2.153-.3.23-.187.149-.375.3-.57.441l-.06.045a3.476,3.476,0,0,1-.3.229c-.433.342-.865.652-1.313.978-.05.032-.083.065-.133.1-.58.416-1.18.829-1.79,1.231-.035.024-.068.049-.1.072s-.07.044-.1.067c-.585.4-1.193.786-1.792,1.154a2.65,2.65,0,0,1-.366.229c-.6.375-1.225.734-1.845,1.092l-.083.05c-.042.024-.084.045-.126.069-.675.384-1.361.766-2.051,1.12-.731.39-1.463.766-2.21,1.124-.532.26-1.08.522-1.628.766s-1.11.488-1.669.725c-.159.066-.315.14-.475.2-.062.026-.121.054-.183.08-.432.179-.864.358-1.313.522-.5.195-1,.39-1.512.57-.151.057-.311.11-.465.166l-.289.1c-.193.067-.381.134-.575.2-.4.13-.8.261-1.213.391-.515.179-1.047.342-1.579.489-.062.019-.123.034-.185.053-.128.039-.258.072-.385.109-.377.112-.754.229-1.142.326l-.2.05q-1.172.318-2.393.586c-1.313.31-2.643.57-3.972.8-.1.018-.194.032-.291.05-.43.074-.854.145-1.288.21-.282.033-.582.083-.864.115-.346.059-.7.1-1.052.134-.037,0-.075.01-.111.013-.258.041-.514.066-.763.094l-.168.021-.947.1c-.532.049-1.047.1-1.579.13-.213.018-.427.023-.642.036-.33.021-.661.045-.993.055l-.11.007c-.482.032-.98.049-1.462.065-.7.016-1.4.032-2.111.032a71.626,71.626,0,0,1-63.668-38.257,72.2,72.2,0,0,1-37.709,10.558,73.354,73.354,0,0,1-18.381-2.347c-.033,1.125-.083,2.249-.15,3.357-.02.371-.053.737-.076,1.106-.029.44-.06.878-.091,1.316-.03.386-.048.776-.082,1.163-.083,1.026-.183,2.052-.3,3.063-.005.037-.007.073-.012.112-.006.061-.011.119-.018.179-.02.176-.043.355-.053.523q-.125.978-.249,1.956c-.1.732-.2,1.467-.309,2.215l-.007.05c-.016.114-.033.211-.05.325s-.036.234-.054.348c-.1.684-.213,1.366-.327,2.065q-.2,1.246-.449,2.492v.016c-.4,2.18-.862,4.329-1.394,6.477l0,.009h0c-.266,1.076-.531,2.133-.814,3.192-.244.9-.5,1.794-.763,2.685-.042.136-.076.274-.118.412a1.144,1.144,0,0,1-.043.167c-.013.051-.023.1-.04.158-.266.913-.548,1.809-.847,2.705-.033.114-.083.244-.116.374-.05.131-.083.245-.116.359l-.249.733c0,.017-.017.05-.017.065-.083.26-.166.522-.266.783s-.193.55-.289.825l-.11.315c-.062.174-.12.348-.183.522-.282.8-.565,1.6-.881,2.395a.125.125,0,0,1-.016.066l-1.1,2.786c-.349.847-.7,1.694-1.064,2.526,0,.017-.017.032-.017.048-.3.7-.6,1.4-.931,2.086-.116.277-.249.553-.365.831-.233.505-.482,1.01-.714,1.515-.333.7-.682,1.4-1.031,2.085-.482.978-.98,1.94-1.479,2.884-.5.961-1.03,1.906-1.562,2.851-.515.945-1.064,1.874-1.612,2.8-1.1,1.857-2.227,3.682-3.441,5.475-.764,1.14-1.528,2.281-2.326,3.406s-1.6,2.232-2.427,3.323c-.407.544-.826,1.068-1.24,1.6-.43.553-.854,1.111-1.286,1.658q-2.567,3.227-5.351,6.274c-.93,1.01-1.878,2.02-2.825,3.014-.843.87-1.715,1.737-2.587,2.594-.108.107-.213.216-.321.322s-.229.215-.342.325q-1.307,1.273-2.649,2.51c-.387.354-.788.694-1.178,1.045-.635.566-1.265,1.138-1.913,1.693-1.047.913-2.094,1.792-3.174,2.656-.934.773-1.888,1.515-2.849,2.248-.131.1-.259.209-.392.31-.357.27-.717.524-1.072.79-.735.552-1.467,1.11-2.219,1.637-.017.017-.033.032-.05.032-.592.427-1.2.838-1.8,1.254-.432.3-.853.605-1.29.9l-.195.13-.252.169-.185.124c-.2.13-.415.277-.631.408-.615.423-1.247.831-1.878,1.221l-.254.158c-.281.177-.562.35-.843.527l-.013.011a.27.27,0,0,0-.07.053c-.6.375-1.2.734-1.812,1.092-.05.033-.116.065-.166.1-.017.017-.033.017-.05.033l-.6.362-.542.323-.007,0c-.379.212-.743.439-1.14.649-.15.1-.316.2-.465.277h-.017c-.266.163-.548.31-.814.457-.068.039-.138.073-.208.112-.625.357-1.256.693-1.888,1.027-.271.144-.539.3-.812.441-.511.275-1.037.549-1.564.808l-.015.006c-.514.268-1.04.522-1.565.774-.2.1-.406.206-.612.3-.4.212-.8.408-1.214.587l-.008,0c-.392.191-.783.367-1.19.559l-.015.007c-.814.391-1.646.766-2.476,1.125-.159.071-.321.135-.48.2-.324.141-.648.276-.972.413-.437.186-.873.378-1.306.556-.5.2-1,.405-1.5.6-.148.059-.3.125-.446.18-.165.065-.327.125-.492.191-.5.2-.986.391-1.486.575-.226.086-.456.158-.681.243-1.134.422-2.27.823-3.41,1.213-.271.092-.538.2-.811.288-.234.085-.47.157-.7.232-.131.041-.261.086-.392.127-.2.067-.41.13-.618.2-.6.192-1.2.388-1.792.569l-1.619.48-.026.008-.156.044c-.681.2-1.375.4-2.054.575-.294.083-.6.155-.9.235-.588.156-1.175.311-1.765.459-.176.044-.352.094-.528.137-.964.245-1.945.472-2.925.7-.7.146-1.4.293-2.111.44-.346.073-.7.139-1.048.21s-.711.149-1.063.213c-.216.044-.43.081-.647.123q-1.022.2-2.045.383h-.033c-.083.016-.183.033-.266.05-.15.015-.283.048-.432.064-.193.038-.387.061-.58.091-.218.034-.434.077-.651.1l-.015,0-1.246.2c-.9.13-1.795.26-2.692.375-.881.108-1.767.194-2.653.288-.566.059-1.13.134-1.7.185-.234.021-.467.039-.7.06-.466.043-.929.087-1.393.119-.333.032-.681.064-1.014.081a.576.576,0,0,1-.166.016.575.575,0,0,0-.166.016c-.316.018-.643.041-.966.06h0c-.288.018-.572.031-.861.054-.116,0-.216.015-.333.015-.332.018-.681.033-1.03.05-.183.016-.382.016-.566.033-.183,0-.365.016-.548.016s-.365.009-.548.015c-.4.015-.791.029-1.187.038l-.392.011c-1.147.033-2.31.049-3.457.049q-1.545,0-3.091-.049c-.2,0-.416-.017-.615-.017h-.432c-1.363-.033-2.726-.1-4.072-.179-1.147-.065-2.293-.147-3.424-.244-.116-.017-.233-.017-.349-.033q-.523-.025-1.047-.1a2.033,2.033,0,0,1-.316-.033c-.748-.048-1.5-.13-2.243-.228a.8.8,0,0,1-.2-.017c-.42-.043-.838-.091-1.246-.146-.043-.006-.09-.009-.133-.016-.715-.081-1.429-.179-2.127-.277-.241-.031-.475-.065-.713-.1l-.372-.05-.444-.063c-.641-.1-1.276-.213-1.916-.319-.5-.083-1.009-.158-1.507-.25q-1.2-.2-2.343-.44a3.833,3.833,0,0,1-.416-.082c-.043-.006-.083-.014-.123-.021l-.16-.027c-.055-.009-.108-.023-.161-.034-.588-.112-1.175-.228-1.75-.365-.038-.01-.078-.015-.116-.025-.731-.147-1.446-.309-2.16-.473-.266-.065-.532-.114-.782-.179-.792-.19-1.574-.4-2.356-.6-.365-.1-.736-.182-1.1-.28-.233-.065-.482-.13-.715-.195q-1.122-.294-2.244-.636c-.1-.033-.183-.049-.283-.081-.581-.163-1.164-.326-1.728-.522a.93.93,0,0,1-.2-.065c-.848-.245-1.679-.505-2.51-.782-.036-.008-.078-.023-.118-.036l-.1-.03q-1.72-.562-3.391-1.173l-.018-.008a.466.466,0,0,1-.064-.025c-.437-.158-.868-.324-1.3-.489-.509-.189-1.022-.377-1.524-.57-.023-.011-.053-.022-.083-.034l-.033-.015q-.8-.293-1.6-.635c-.067-.024-.135-.051-.2-.079-.032-.011-.063-.026-.095-.035-.167-.066-.337-.143-.507-.21-.628-.254-1.256-.514-1.886-.784q-1.794-.757-3.54-1.564c-.6-.274-1.191-.564-1.785-.847-.467-.224-.944-.438-1.406-.669l-.3-.146c-.149-.081-.282-.146-.432-.228l-.04-.02c-.106-.056-.222-.1-.326-.16-.415-.2-.831-.407-1.23-.635-.133-.049-.249-.131-.382-.2-.6-.293-1.179-.6-1.761-.928-.367-.193-.73-.4-1.1-.6q-.242-.128-.482-.26c-.182-.1-.369-.2-.55-.3-.681-.391-1.363-.766-2.028-1.173-.665-.391-1.33-.782-1.978-1.19l-.1-.06c-.337-.2-.67-.4-1-.612-.158-.1-.319-.187-.475-.289-.731-.457-1.446-.912-2.161-1.385-.676-.43-1.334-.877-1.991-1.328-.118-.08-.241-.157-.359-.238-.047-.033-.1-.064-.143-.1-.781-.538-1.563-1.075-2.327-1.629-.848-.619-1.7-1.223-2.526-1.858-.8-.6-1.612-1.221-2.393-1.841s-1.548-1.233-2.317-1.856l-.043-.035c-1.562-1.271-3.091-2.574-4.57-3.927l0,0c-.746-.666-1.476-1.351-2.207-2.033-.706-.662-1.411-1.325-2.1-2.014l-.075-.072-.033-.034c-.7-.689-1.391-1.379-2.077-2.085-.665-.665-1.3-1.348-1.933-2.031l-.144-.152-.125-.136c-.64-.688-1.28-1.375-1.9-2.079s-1.263-1.434-1.878-2.151c-.05-.065-.1-.114-.15-.18-.632-.749-1.263-1.5-1.861-2.248-.512-.618-1-1.239-1.481-1.865-.131-.167-.268-.331-.4-.5-.118-.15-.229-.306-.347-.458-.5-.634-.994-1.276-1.464-1.92-.6-.816-1.2-1.629-1.778-2.445-1.089-1.539-2.142-3.094-3.146-4.663-.068-.107-.143-.214-.211-.322q-1.635-2.539-3.149-5.145c-.173-.3-.327-.607-.5-.906-.834-1.468-1.657-2.939-2.435-4.443-.05-.1-.1-.2-.151-.3-.4-.769-.794-1.547-1.178-2.327-.427-.852-.828-1.707-1.229-2.567-.034-.072-.068-.14-.1-.21-.065-.14-.135-.275-.2-.415-.349-.766-.681-1.531-1.014-2.3-.286-.641-.547-1.288-.813-1.933-.12-.291-.248-.577-.367-.87-.109-.257-.2-.52-.309-.778-.228-.559-.455-1.114-.672-1.683-.083-.2-.166-.407-.249-.62-.241-.632-.465-1.27-.691-1.913-.023-.069-.05-.135-.073-.2-.033-.1-.067-.18-.1-.278-.148-.408-.282-.823-.427-1.233-.243-.692-.49-1.379-.72-2.074-.243-.729-.467-1.46-.688-2.2-.051-.172-.109-.338-.16-.509s-.1-.368-.161-.552c-.158-.517-.319-1.033-.454-1.55-.133-.472-.266-.928-.4-1.4-.033-.1-.05-.2-.083-.293-.135-.505-.264-1.016-.392-1.525-.045-.183-.1-.36-.14-.544q-.773-3.007-1.4-6.062c-.482.375-.964.75-1.446,1.108-.033.017-.05.049-.083.066-.155.118-.309.229-.464.341-.121.09-.243.183-.364.27-.04.03-.08.061-.12.088-.173.127-.347.243-.52.367-.459.33-.916.661-1.375.97-.111.084-.21.149-.309.217-.035.025-.073.051-.107.075-.261.177-.53.348-.8.524-.394.262-.784.526-1.182.779q-.947.61-1.894,1.173c-.383.244-.781.472-1.18.7-1.147.668-2.31,1.32-3.49,1.939-.2.1-.382.2-.565.293-.164.089-.332.177-.51.266l-.055.028a1.422,1.422,0,0,1-.216.114c-.615.309-1.213.6-1.828.9-.281.128-.562.251-.844.378-.432.2-.866.4-1.3.584-.266.122-.534.233-.8.354l-.048.02c-.531.229-1.063.457-1.612.668-.036.011-.07.029-.1.043-.058.024-.115.051-.178.071-.21.076-.411.163-.617.245l-.164.065c-.5.205-1.009.385-1.512.567-.178.063-.354.135-.532.2-.06.02-.118.042-.176.063-.133.051-.266.1-.406.148-.714.246-1.446.489-2.161.733a.122.122,0,0,0-.066.017c-.632.212-1.28.407-1.911.587-.083.016-.166.049-.249.065l-.035.01c-.243.074-.472.135-.715.209l-.031.009c-.582.164-1.163.326-1.762.473-.022.006-.045.009-.067.016-.479.138-.969.25-1.462.358-.081.018-.163.042-.245.062s-.136.038-.2.053c-.415.114-.831.2-1.247.293-.183.033-.366.082-.548.114-.283.058-.565.108-.849.167-.58.118-1.162.24-1.743.339-.332.064-.67.111-1,.17-.534.093-1.064.19-1.606.27a1.975,1.975,0,0,1-.2.025c-.021,0-.045.008-.067.008-1.047.147-2.094.294-3.157.408a1.508,1.508,0,0,1-.266.032c-.391.039-.776.067-1.164.1-.585.055-1.172.118-1.761.156-1.081.082-2.161.146-3.241.179-1.08.049-2.161.066-3.258.066-.748,0-1.5-.017-2.244-.033-.7-.016-1.4-.033-2.077-.081-.364-.017-.711-.044-1.067-.066s-.726-.032-1.077-.065c-.482-.033-.947-.064-1.429-.114-.615-.049-1.229-.114-1.828-.179-.1-.016-.2-.016-.3-.033-.083-.015-.166-.015-.249-.032h-.017a.159.159,0,0,1-.083-.016c-.416-.05-.831-.1-1.247-.164-.165-.02-.329-.045-.493-.066-.234-.03-.469-.057-.7-.1-.731-.1-1.446-.211-2.16-.342-.665-.114-1.33-.244-1.994-.375-.814-.146-1.629-.326-2.426-.5-.76-.168-1.507-.364-2.261-.554-.076-.018-.152-.036-.227-.056-1.574-.4-3.133-.827-4.659-1.328-.781-.245-1.562-.505-2.327-.782-.714-.245-1.413-.505-2.127-.766a2.406,2.406,0,0,1-.3-.114l-2.094-.831c-.033-.017-.083-.033-.116-.049l-2.144-.929c-1.479-.651-2.925-1.352-4.354-2.1-.632-.326-1.263-.652-1.878-.995a2.653,2.653,0,0,1-.366-.2c-.565-.309-1.13-.635-1.7-.961-.183-.1-.366-.212-.565-.326-.582-.358-1.18-.717-1.761-1.092-.682-.424-1.346-.848-2.011-1.3-1.33-.864-2.643-1.793-3.906-2.753-.415-.31-.831-.62-1.23-.945-.448-.327-.881-.684-1.313-1.043-.532-.424-1.047-.847-1.562-1.3-.482-.391-.964-.815-1.429-1.239-.914-.8-1.795-1.612-2.659-2.461l-1.146-1.124c-.466-.473-.931-.962-1.4-1.45-.416-.423-.831-.863-1.213-1.3-.848-.928-1.679-1.873-2.493-2.851-.316-.375-.615-.733-.914-1.108-1-1.239-1.961-2.509-2.875-3.8-.249-.342-.5-.683-.731-1.043-.166-.228-.332-.472-.5-.718-.166-.228-.315-.472-.465-.7-.648-.962-1.263-1.94-1.862-2.933-.365-.587-.714-1.173-1.047-1.776a.06.06,0,0,1-.017-.049c-.282-.473-.565-.946-.814-1.435-.266-.489-.532-.993-.8-1.483a86.85,86.85,0,0,1-45.4,12.71,88.154,88.154,0,0,1-13.379-1.027q-.124,1.613-.3,3.226c-.083.864-.183,1.727-.3,2.574a.9.9,0,0,1-.017.212c-.066.57-.15,1.157-.233,1.728-.166,1.222-.349,2.427-.565,3.633-.067.44-.15.88-.216,1.32-.017.065-.017.13-.033.194-.017.132-.05.261-.067.393-.016.048-.016.114-.033.162-.133.717-.266,1.435-.416,2.151-.2.961-.4,1.922-.615,2.867-.05.228-.1.473-.167.717,0,.032-.017.049-.017.081-.116.521-.249,1.026-.365,1.548-.05.229-.1.441-.166.652-.166.717-.348,1.418-.548,2.119-.183.7-.382,1.4-.582,2.1-.282,1.01-.581,2-.9,3.014-.017.016-.017.049-.033.081-.3.995-.631,1.972-.964,2.95-.216.7-.465,1.385-.715,2.07q-.324.951-.7,1.905c-.2.555-.416,1.109-.631,1.646-18.963,48.569-66.008,83.507-121.671,85.707q-2.777.109-5.582.112a138.222,138.222,0,0,1-43.476-6.958l-39.853-12.269c-.631.717-1.263,1.434-1.911,2.15s-1.3,1.417-1.961,2.119q-1.995,2.078-4.039,4.106c-1.33,1.287-2.676,2.557-4.055,3.8q-.872.806-1.745,1.564c-.316.277-.648.57-.964.831-.432.391-.864.75-1.313,1.124-.282.244-.565.472-.847.7-.615.521-1.246,1.043-1.895,1.547-.748.6-1.5,1.206-2.26,1.777-.764.6-1.546,1.174-2.327,1.744-.6.455-1.214.9-1.828,1.336-.016.015-.033.015-.05.032-.465.342-.931.668-1.413.994-.465.326-.947.651-1.413.978l-.016.016c-1.014.684-2.044,1.368-3.075,2.02-1.463.945-2.925,1.857-4.437,2.737-.665.408-1.346.8-2.027,1.189-.416.229-.848.472-1.263.7-1.064.6-2.127,1.189-3.207,1.744-.714.391-1.429.766-2.161,1.107-1.114.571-2.227,1.124-3.341,1.646-.631.294-1.246.587-1.878.864-1.246.587-2.51,1.14-3.773,1.661q-1.895.833-3.839,1.565c-.947.375-1.895.733-2.859,1.092-.116.049-.249.082-.366.13-.365.146-.731.277-1.113.391-1.13.407-2.277.8-3.424,1.173-1.03.342-2.078.668-3.124.977-.017,0-.033.017-.05.017-.831.26-1.678.505-2.526.733-1.23.359-2.476.7-3.723,1.011-1.662.424-3.324.831-5.019,1.173-1.147.261-2.293.488-3.457.717a8.97,8.97,0,0,1-.964.179c-.632.127-1.265.235-1.9.343-.183.031-.364.069-.547.1-.043.009-.088.014-.131.022-.954.169-1.908.327-2.877.451-.061.015-.128.018-.189.031a3.753,3.753,0,0,1-.426.067c-.947.146-1.895.277-2.858.375-.5.072-1,.128-1.5.187l-.2.024-.411.044-.952.1c-.364.041-.731.072-1.1.106s-.743.074-1.11.107a.717.717,0,0,1-.1.006c-.043,0-.083.01-.131.01-.515.05-1.047.1-1.562.131-.565.049-1.13.082-1.7.114-.085.009-.171.01-.258.017-.253.02-.509.037-.756.049s-.52.037-.779.05c-.078,0-.158.012-.234.015s-.166.016-.249.016c-.9.033-1.8.082-2.693.1a3.582,3.582,0,0,1-.416.016c-.282.017-.582.017-.88.017a2.7,2.7,0,0,1-.349.015c-1.047.018-2.094.033-3.157.033-1.23,0-2.46-.015-3.673-.048-.166,0-.332,0-.515-.017-1.114-.016-2.227-.064-3.341-.114a1.471,1.471,0,0,0-.266-.016c-.4-.019-.8-.057-1.2-.081-.888-.053-1.775-.1-2.657-.18-1.28-.1-2.543-.211-3.822-.342-1.263-.129-2.543-.277-3.789-.439-1.263-.163-2.526-.342-3.772-.538s-2.493-.407-3.739-.636c-1.247-.211-2.476-.456-3.706-.717-1.047-.212-2.077-.44-3.124-.684-2.028-.457-4.039-.978-6.033-1.516a3.082,3.082,0,0,1-.366-.113c-.8-.213-1.612-.44-2.41-.685-.1-.028-.2-.065-.307-.094-.088-.026-.176-.057-.264-.083-.927-.275-1.861-.554-2.785-.865-.765-.244-1.512-.489-2.26-.749-.22-.073-.442-.153-.667-.228l-.148-.053c-.268-.089-.535-.177-.8-.273-.117-.032-.216-.081-.333-.114-.15-.049-.3-.114-.449-.163-.067-.033-.15-.049-.216-.082-.565-.2-1.114-.408-1.678-.619-.5-.187-.983-.391-1.476-.583q-.85-.33-1.7-.669c-.479-.193-.969-.374-1.448-.573l-2.294-.978c-.329-.142-.653-.29-.982-.434-.111-.05-.224-.1-.335-.149-.236-.1-.477-.2-.71-.313-.748-.342-1.5-.684-2.244-1.043-.847-.391-1.678-.8-2.526-1.222-.931-.457-1.861-.946-2.775-1.418-.454-.241-.9-.5-1.348-.741q-1.351-.729-2.691-1.483c-.447-.252-.9-.484-1.346-.742q-1.181-.694-2.363-1.4c-.126-.075-.253-.148-.379-.225l-.093-.059c-.716-.437-1.433-.873-2.134-1.325l-.3-.2c-.781-.489-1.529-.977-2.293-1.482l0,0c-.3-.2-.595-.4-.892-.6-.166-.112-.334-.22-.5-.337-.6-.391-1.2-.8-1.778-1.221-.582-.391-1.163-.8-1.728-1.223l-.123-.094q-2.8-2.024-5.5-4.184l-.095-.072c-.4-.309-.8-.635-1.2-.961-1.014-.831-2.011-1.662-3.008-2.525-.033-.033-.067-.05-.1-.081-1.1-.962-2.194-1.923-3.257-2.9a3.247,3.247,0,0,1-.233-.229c-.194-.179-.386-.367-.58-.548q-.523-.489-1.044-.989c-.249-.24-.505-.469-.753-.712-.3-.261-.582-.553-.864-.831-.661-.65-1.31-1.3-1.958-1.964-.066-.068-.135-.135-.2-.2s-.143-.153-.216-.227c-.575-.594-1.15-1.186-1.712-1.794-.731-.764-1.444-1.542-2.146-2.322-.032-.036-.066-.07-.1-.106l-.035-.04c-.586-.655-1.173-1.326-1.76-2-.183-.211-.349-.407-.532-.619l-1.645-1.956a137.857,137.857,0,0,1-10.4-14.29c-.016,0-.016,0-.016-.015-.116-.181-.233-.359-.349-.554-.249-.391-.5-.782-.731-1.174-.365-.57-.715-1.156-1.064-1.743a138.706,138.706,0,0,1-127.17,6.469c-.665.977-1.329,1.938-2.011,2.9-.316.456-.648.912-.98,1.368-.266.358-.515.717-.781,1.059-.052.073-.111.143-.165.218-.121.172-.251.34-.382.507-.085.11-.161.226-.251.334-.465.635-.947,1.254-1.446,1.874-.681.9-1.4,1.792-2.111,2.656-.068.083-.14.164-.208.248-.156.188-.321.377-.479.564-.278.331-.548.664-.843,1-.4.473-.8.945-1.213,1.417l-.017.017q-.8.929-1.645,1.858l-.1.11c-.183.206-.366.413-.548.607-.155.169-.316.339-.472.508-.565.617-1.132,1.238-1.705,1.838a1.129,1.129,0,0,1-.2.2c-.6.629-1.212,1.244-1.822,1.862-.181.182-.357.367-.538.548a.613.613,0,0,1-.149.147c-.236.234-.479.46-.715.693-.578.565-1.155,1.133-1.745,1.687s-1.174,1.1-1.767,1.644c-.277.254-.545.519-.826.767-.17.156-.346.3-.519.461-.7.635-1.416,1.27-2.124,1.886l-.033.032c-.8.684-1.6,1.352-2.41,2.021-.067.057-.133.107-.2.162s-.106.09-.16.129l-.042.034c-.615.5-1.246,1.01-1.878,1.5-.765.619-1.546,1.238-2.343,1.809-.15.13-.3.245-.449.359-.188.14-.377.273-.567.415-.211.156-.424.309-.635.465-.43.316-.861.642-1.291.944-.5.358-1,.717-1.5,1.059-.864.619-1.745,1.222-2.626,1.809-.349.245-.7.472-1.047.684-.633.419-1.26.818-1.9,1.214-.133.083-.261.171-.4.252l-.022.017a.379.379,0,0,0-.045.033c-.032.021-.065.039-.1.059-1.547.988-3.126,1.933-4.705,2.842-.164.1-.334.184-.5.279-.9.519-1.8,1.033-2.709,1.513-.184.1-.374.2-.558.3-.248.136-.5.272-.748.4-.07.036-.136.075-.206.111-.548.293-1.1.586-1.645.864-.7.361-1.426.721-2.132,1.069l-.056.028-.022.011c-.648.326-1.3.636-1.961.945-.424.206-.858.386-1.285.587-.613.285-1.227.568-1.843.84-.316.139-.628.3-.944.43-.887.39-1.792.763-2.681,1.135l-.128.055-.15.06c-.075.029-.148.057-.216.086-1.38.57-2.776,1.124-4.188,1.646-1.529.57-3.074,1.125-4.636,1.645-.1.033-.216.082-.333.114-.681.229-1.363.457-2.044.669-.515.163-1.03.326-1.546.472s-1.019.308-1.527.458l-.271.081-.379.114c-1.463.423-2.925.831-4.4,1.189-.14.039-.281.069-.421.1-.284.074-.568.145-.854.213-.229.055-.459.12-.686.171-.715.179-1.413.342-2.127.5-.549.113-1.08.245-1.629.342-.118.026-.236.049-.354.074-.361.08-.723.155-1.085.228-.118.023-.238.05-.356.073-.7.146-1.4.277-2.094.407-.881.158-1.75.314-2.629.461-.116.019-.229.041-.346.061-1.977.325-3.972.619-5.983.863l-.012,0c-.627.079-1.238.145-1.866.21q-.922.121-1.845.2c-.744.079-1.474.141-2.217.2l-.11.01c-2.028.163-4.072.293-6.116.375-.115,0-.233,0-.347.009-.982.041-1.963.073-2.96.087-.964.018-1.944.033-2.908.033s-1.928-.015-2.892-.033c-.422,0-.831-.014-1.238-.029l-.125,0c-.392,0-.788-.026-1.192-.042l-.171-.007-1.246-.048c-.623-.026-1.238-.057-1.858-.093-.14-.008-.277-.011-.419-.021-.1-.008-.2-.015-.3-.02-.683-.044-1.366-.086-2.064-.143-.4-.027-.791-.07-1.188-.1-.505-.043-1.012-.08-1.512-.131-.04,0-.083-.005-.125-.011-.4-.033-.781-.065-1.18-.114-.382-.033-.781-.081-1.163-.129a3.208,3.208,0,0,1-.382-.033c-.236-.029-.464-.06-.7-.089-.349-.04-.694-.086-1.04-.13-.372-.048-.75-.09-1.12-.141-.736-.1-1.474-.206-2.21-.312l-.432-.062c-.066-.016-.133-.016-.2-.033-.045-.007-.093-.015-.139-.021-.372-.059-.753-.115-1.123-.175-.416-.064-.848-.13-1.263-.212h-.033c-.033,0-.05-.016-.083-.016l-.949-.175c-.394-.071-.791-.145-1.178-.217-.091-.015-.18-.034-.271-.052-.623-.113-1.247-.226-1.856-.355-.236-.049-.472-.1-.71-.153q-1.012-.212-2.026-.434c-.351-.078-.7-.15-1.053-.227-.166-.033-.333-.082-.5-.115-.321-.078-.642-.159-.964-.236-.409-.1-.819-.192-1.23-.3-1.064-.261-2.127-.538-3.175-.831-.581-.146-1.163-.31-1.728-.489-1.035-.283-2.052-.585-3.06-.9-.093-.027-.188-.052-.281-.082-1.064-.341-2.144-.684-3.207-1.042-.14-.045-.281-.1-.42-.148-.218-.074-.436-.15-.652-.227l-.274-.1c-.71-.237-1.408-.5-2.107-.758-.4-.146-.8-.283-1.2-.431-1.363-.505-2.692-1.026-4.022-1.581-1.346-.537-2.659-1.108-3.972-1.695-.469-.207-.929-.43-1.394-.642-2.144-.974-4.261-1.99-6.35-3.073a143.02,143.02,0,0,1-12.71-7.385q-2.047-1.334-4.042-2.734l-2.144-1.515c-.266-.18-.515-.375-.781-.571-1.147-.847-2.277-1.711-3.391-2.574-.7-.537-1.379-1.092-2.044-1.629s-1.329-1.076-1.978-1.629c-.033,0-.05-.033-.083-.066-1.313-1.107-2.626-2.248-3.905-3.405-.631-.57-1.28-1.157-1.911-1.744l-.033-.032c-.631-.587-1.247-1.189-1.861-1.792-.632-.6-1.246-1.207-1.861-1.825s-1.213-1.239-1.812-1.858l-.016-.016c-.6-.636-1.2-1.255-1.778-1.89-.548-.587-1.08-1.174-1.612-1.76-.05-.048-.1-.114-.149-.162-.765-.864-1.546-1.744-2.294-2.639-.6-.7-1.18-1.4-1.762-2.119-.332-.391-.665-.8-.981-1.206-.864-1.075-1.712-2.166-2.526-3.259q-1.122-1.466-2.194-2.981c-.5-.7-1.014-1.417-1.5-2.134-1.03-1.466-2.011-2.966-2.942-4.465-.449-.684-.9-1.385-1.313-2.1-.781-1.271-1.546-2.558-2.277-3.863-.133-.211-.249-.423-.366-.635-.4-.7-.781-1.4-1.163-2.1-.166-.326-.349-.651-.515-.994-.681-1.271-1.346-2.558-1.978-3.861-.283-.587-.565-1.157-.831-1.743-.482-.994-.947-2-1.4-3.014q-1.072-2.4-2.044-4.84a115.719,115.719,0,0,1-61.607,17.63c-.864,0-1.728-.016-2.593-.032-.565,0-1.147-.032-1.712-.049-.515-.016-1.03-.033-1.529-.065a.823.823,0,0,1-.2-.016q-.9-.024-1.795-.1c-.914-.065-1.811-.13-2.709-.212s-1.795-.179-2.676-.277c-.432-.049-.864-.1-1.28-.147-.349-.048-.682-.081-1.014-.13q-2.418-.319-4.786-.733.349,6.549.349,13.165a239.176,239.176,0,0,1-11.4,73q-3.385,10.544-7.708,20.659-2.156,5.052-4.537,9.988a243.32,243.32,0,0,1-47.169,66.319q-3.854,3.851-7.876,7.534-8.044,7.363-16.74,14.018-4.343,3.322-8.84,6.459a248.674,248.674,0,0,1-64.145,32.113q-5.33,1.765-10.766,3.295-8.152,2.295-16.528,4.048t-16.945,2.943q-5.714.791-11.509,1.328-11.587,1.068-23.468,1.076A249.068,249.068,0,0,1,440.774,2375,239.034,239.034,0,0,1,381.41,2217.3a241.566,241.566,0,0,1,1.745-28.97,144.873,144.873,0,0,1-199.33,16.261c-22.187,51.5-74.188,87.66-134.8,87.66A148.631,148.631,0,0,1,0,2283.986V1269H4985.754v777.211h-2.027c.681.424,1.363.864,2.027,1.321v301.336a222.422,222.422,0,0,1-63.984,48.2M866.989,2202.077l0,.01c.773.2,1.546.4,2.325.577,1.08.277,2.177.521,3.29.749,1.014.212,2.044.425,3.075.6.216.032.415.082.631.114Z" transform="translate(63 -1251)" fill="#401460"/>
  </g>
</svg>
