<svg xmlns="http://www.w3.org/2000/svg" xmlns:xlink="http://www.w3.org/1999/xlink" width="717.03" height="708.111" viewBox="0 0 717.03 708.111">
  <defs>
    <linearGradient id="linear-gradient" x1="0.5" x2="0.5" y2="1" gradientUnits="objectBoundingBox">
      <stop offset="0" stop-color="#ffd03f"/>
      <stop offset="0.2" stop-color="#fcc939"/>
      <stop offset="0.46" stop-color="#f5b82a"/>
      <stop offset="0.77" stop-color="#ea9c12"/>
      <stop offset="0.9" stop-color="#e58e06"/>
      <stop offset="1" stop-color="#df8800"/>
    </linearGradient>
  </defs>
  <g id="Group_5861" data-name="Group 5861" transform="translate(-512 -4812.5)">
    <path id="Path_31668" data-name="Path 31668" d="M675.369,4893.675v209.84" fill="none" stroke="#1e1e1e" stroke-width="2"/>
    <g id="Group_5833" data-name="Group 5833" transform="translate(75.989 0)">
      <g id="Group_5811" data-name="Group 5811" transform="translate(474.369 5042.564)">
        <g id="Group_5806" data-name="Group 5806" transform="translate(-38.358 22.622)">
          <g id="Group_5807" data-name="Group 5807" transform="translate(0 0)">
            <path id="Path_31566" data-name="Path 31566" d="M167.161,196.313c-6.058,3.969-11.578,8.435-18.1,11.709a97.5,97.5,0,0,1-20.64,7.457A103.453,103.453,0,0,1,83.835,216.7c-13.556-2.709-26.572-8.541-36.817-17.936C37.537,190.073,30.781,179,25.461,167.39c-2.775-6.058-5.106-12.308-7.3-18.594-1.084-3.1-2.13-6.21-3.18-9.319s-1.646-6.179-4.3-8.279c-1.318-1.046-3.561-.869-4.007,1.058-.733,3.153.257,5.471,1.26,8.455.968,2.87,1.93,5.746,2.916,8.611,2.072,6.011,4.279,11.971,6.774,17.822,5.315,12.46,12.276,24.327,22.006,33.873,22.066,21.658,54.886,26.2,84.258,20.461a106.333,106.333,0,0,0,24.75-8.027c7.326-3.432,15.564-7.928,20.627-14.413,1.106-1.419-.3-3.909-2.1-2.727" transform="translate(9.758 198.473)" fill="#401460"/>
            <path id="Path_31567" data-name="Path 31567" d="M24.657,159.4c-23.2-7.9-34.468-30.615-13.871-35.9s22.454,22.838,13.871,35.9" transform="translate(0 186.754)" fill="#401460"/>
            <path id="Path_31568" data-name="Path 31568" d="M110.381,326.273c-68.981-12.936-73.961-72.923-73.961-84a99.465,99.465,0,0,1,113.8-98.384A128.718,128.718,0,0,1,384.673,186.13,80.527,80.527,0,0,1,494.259,261.2c0,18.221-10.045,50.733-34.647,65.07Z" transform="translate(55.364 128.152)" fill="#fff" stroke="#401460" stroke-width="2"/>
            <path id="Path_31569" data-name="Path 31569" d="M78.334,141.245a25.319,25.319,0,0,1,45.365.232" transform="translate(119.079 193.499)" fill="none" stroke="#3e1013" stroke-linecap="round" stroke-linejoin="round" stroke-width="2.137"/>
            <path id="Path_31570" data-name="Path 31570" d="M112.3,141.245a25.319,25.319,0,0,1,45.365.232" transform="translate(170.715 193.499)" fill="none" stroke="#3e1013" stroke-linecap="round" stroke-linejoin="round" stroke-width="2.137"/>
            <path id="Path_31571" data-name="Path 31571" d="M203.149,143.3c-16.7,4.647-37.1,7.107-56.776,7.379-19.685-.272-40.078-2.732-56.779-7.379-7.379-2.046-16.92,1.678-11.184,14.239,14.418,31.567,48.4,34.964,67.963,34.964s53.543-3.4,67.958-34.964c5.741-12.56-3.8-16.285-11.182-14.239" transform="translate(116.526 217.039)" fill="#070707"/>
            <path id="Path_31576" data-name="Path 31576" d="M87.606,168.453c14.456,7.187,30.728,8.354,42.119,8.354,11.227,0,27.2-1.134,41.5-8.054-22.293-20.506-62.454-21.116-83.618-.3" transform="translate(133.174 232.739)" fill="url(#linear-gradient)"/>
            <path id="Path_31577" data-name="Path 31577" d="M158.139,199.04c4.461,5.716,11.459,9.791,17.825,13.044a102.811,102.811,0,0,0,21.278,7.981,116.838,116.838,0,0,0,46.547,2.376,80.489,80.489,0,0,0,40.1-17.87c10.328-8.79,18.024-20.325,23.717-32.548,3.082-6.613,5.7-13.435,8.117-20.317,1.132-3.223,2.22-6.462,3.309-9.7,1.127-3.347,2.52-6.2,1.7-9.75-.446-1.928-2.689-2.1-4.01-1.058-2.346,1.86-2.926,4.236-3.858,6.991-.97,2.858-1.93,5.718-2.913,8.573-1.908,5.532-3.891,11.048-6.164,16.444-4.9,11.63-11.164,23.014-19.947,32.177-20.212,21.089-51.633,26.61-79.473,21.27a101.141,101.141,0,0,1-23.624-7.47c-7.472-3.478-13.672-8.395-20.5-12.87-1.789-1.172-3.221,1.3-2.1,2.727" transform="translate(239.794 198.473)" fill="#401460"/>
            <path id="Path_31578" data-name="Path 31578" d="M235.933,123.507c20.6,5.282,9.327,28-13.871,35.9-8.584-13.057-6.726-41.179,13.871-35.9" transform="translate(330.234 186.754)" fill="#401460"/>
            <path id="Path_31579" data-name="Path 31579" d="M370.706,101.3C321.573-22.028,67.9,54.179,140.093,178.507c4.839,7.865,11.5,16.086,19.554,21.819-2.283,17.482-4.246,35.468-3.513,52.376,8.024-25.068,44.118-39.1,44.118-39.1,22.059,1,44.118,6.013,67.182,6.013C331.6,220.621,398.78,171.489,370.706,101.3" transform="translate(193.478 58.704)" fill="#401460"/>
            <path id="Path_31604" data-name="Path 31604" d="M26.252,62.682c49.13-123.326,302.8-47.124,230.613,77.2-4.841,7.865-11.507,16.091-19.554,21.819,2.283,17.482,4.246,35.468,3.511,52.376-8.022-25.063-44.118-39.1-44.118-39.1-22.056,1-44.118,6.013-67.177,6.013C65.357,182-1.823,132.868,26.252,62.682" transform="translate(29.93 -0.001)" fill="url(#linear-gradient)"/>
          </g>
        </g>
        <path id="Path_31605" data-name="Path 31605" d="M99.983,92.286C70.655,82.17,44.871,67.145,25.077,36.279c7.412,5.278,11.22,7.989,15.285,10.885C26.574,2.348,25.451,1.021.562,0c-5.9,33.65,35.207,80.137,99.422,92.286" transform="matrix(0.391, -0.921, 0.921, 0.391, 554.656, 125.035)" fill="#4d0877"/>
      </g>
      <g id="Group_5848" data-name="Group 5848" transform="translate(3 -4.5)">
        <text id="مرحبا_بك" data-name="مرحبا بك" transform="translate(676.388 5180.49)" fill="#401460" font-size="34" font-family="NotoKufiArabic-Medium, Noto Kufi Arabic" font-weight="500"><tspan x="-128" y="0">مرحبا بك</tspan></text>
        <text id="_" data-name="!" transform="translate(541.388 5184.49)" fill="#401460" font-size="34" font-family="SegoeUI-Bold, Segoe UI" font-weight="700"><tspan x="-11" y="0">!</tspan></text>
      </g>
      <path id="Path_31669" data-name="Path 31669" d="M675.369,4893.675v354.99" transform="translate(209.369 -81.175)" fill="none" stroke="#1e1e1e" stroke-width="2"/>
      <text id="تواصل_معنا" data-name="تواصل معنا" transform="translate(956.738 5271.087)" fill="#fff" font-size="30" font-family="NotoKufiArabic-Medium, Noto Kufi Arabic" font-weight="500"><tspan x="-151" y="0">تواصل معنا</tspan></text>
    </g>
  </g>
</svg>
