<svg xmlns="http://www.w3.org/2000/svg" xmlns:xlink="http://www.w3.org/1999/xlink" width="21.455" height="28.322" viewBox="0 0 21.455 28.322">
  <defs>
    <linearGradient id="linear-gradient" x1="0.071" y1="0.918" x2="1" gradientUnits="objectBoundingBox">
      <stop offset="0" stop-color="#ffd03f"/>
      <stop offset="0.2" stop-color="#fcc939"/>
      <stop offset="0.46" stop-color="#f5b82a"/>
      <stop offset="0.77" stop-color="#ea9c12"/>
      <stop offset="0.9" stop-color="#e58e06"/>
      <stop offset="1" stop-color="#df8800"/>
    </linearGradient>
  </defs>
  <g id="honesty" transform="translate(-9.997 -3)">
    <path id="Union_6" data-name="Union 6" d="M9.085,28.322v-3.28h8.2v3.28ZM0,23.494a2.924,2.924,0,0,1,2.925-3.017H7.954a2.735,2.735,0,0,1,.824,1.951v1.95H8.289a.488.488,0,0,0-.487.489v1.462H3.019A3.024,3.024,0,0,1,0,23.494Zm3.413.884h3.9V23.4h-3.9Zm-.975-1.95H7.315v-.975H2.44Zm16.577,3.9V24.867a.488.488,0,0,0-.487-.489h-.488v-.487H20.1v-.975H18.053a7.515,7.515,0,0,1,.528-2.438h2.736a12.374,12.374,0,0,0,0,5.851ZM9.753,24.378v-1.95a3.708,3.708,0,0,0-1.268-2.794l-6.38-5.582.093-.139a1.69,1.69,0,0,1,2.484-.362L6.8,15.326A1.2,1.2,0,0,0,8.778,14.4V3.9a.975.975,0,1,1,1.95,0v6.826H11.7v-7.8a.975.975,0,0,1,1.951,0v7.8h.974V3.9a.975.975,0,1,1,1.951,0v6.826h.975V6.339a.975.975,0,1,1,1.95,0v8.427a7.518,7.518,0,0,1-1.144,3.992,8.5,8.5,0,0,0-1.294,4.509v1.113ZM0,2.925A2.928,2.928,0,0,1,2.926,0H21.455V19.5h-2.4c.044-.077.084-.153.133-.229a8.489,8.489,0,0,0,1.293-4.509V6.339A1.95,1.95,0,0,0,17.554,4.65V3.9a1.95,1.95,0,0,0-3.036-1.62,1.95,1.95,0,0,0-3.681,0A1.95,1.95,0,0,0,7.8,3.9V14.4a.237.237,0,0,1-.375.176L5.305,12.805a2.661,2.661,0,0,0-3.917.568l-.331.5a.486.486,0,0,0,.086.636l5.71,5H2.926a3.876,3.876,0,0,0-2.8,1.185c-.044.046-.084.095-.125.143Z" transform="translate(9.997 3)" fill="url(#linear-gradient)"/>
  </g>
</svg>
