<svg xmlns="http://www.w3.org/2000/svg" xmlns:xlink="http://www.w3.org/1999/xlink" width="49.898" height="49.898" viewBox="0 0 49.898 49.898">
  <defs>
    <linearGradient id="linear-gradient" x1="0.015" y1="0.829" x2="0.761" y2="0.228" gradientUnits="objectBoundingBox">
      <stop offset="0" stop-color="#ffd03f"/>
      <stop offset="0.2" stop-color="#fcc939"/>
      <stop offset="0.46" stop-color="#f5b82a"/>
      <stop offset="0.77" stop-color="#ea9c12"/>
      <stop offset="0.9" stop-color="#e58e06"/>
      <stop offset="1" stop-color="#df8800"/>
    </linearGradient>
  </defs>
  <g id="house" transform="translate(0 0)">
    <path id="Union_2" data-name="Union 2" d="M24.845,37.372A12.527,12.527,0,1,1,37.372,49.9,12.541,12.541,0,0,1,24.845,37.372Zm8.478,4.012a1.462,1.462,0,0,0,.43,2.022,7.221,7.221,0,0,0,2.157.89v.122a1.462,1.462,0,1,0,2.923,0v-.2a4.287,4.287,0,0,0,2.819-4.023c0-1.324-.661-3.128-3.808-4.2-.683-.233-1.829-.729-1.829-1.435A1.359,1.359,0,0,1,37.372,33.2a1.345,1.345,0,0,1,.958.4A1.462,1.462,0,1,0,40.4,31.527a4.259,4.259,0,0,0-1.564-1v-.2a1.462,1.462,0,0,0-2.923,0v.2a4.287,4.287,0,0,0-2.819,4.023c0,1.324.66,3.128,3.808,4.2.683.233,1.828.729,1.828,1.435a1.358,1.358,0,0,1-1.356,1.357,4.285,4.285,0,0,1-2.027-.594,1.461,1.461,0,0,0-2.022.43Zm-17.872.627V24.845h6.471V42.03Zm-14-.04A1.462,1.462,0,0,1,0,40.509V18.686a1.464,1.464,0,0,1,.428-1.034L17.652.428a1.462,1.462,0,0,1,2.068,0L36.943,17.652a1.462,1.462,0,0,1,.428,1.034v3.236a15.44,15.44,0,0,0-12.527,6.417V23.384a1.462,1.462,0,0,0-1.462-1.462H13.988a1.462,1.462,0,0,0-1.462,1.462V42Z" transform="translate(0 0)" fill="url(#linear-gradient)"/>
  </g>
</svg>
