<svg xmlns="http://www.w3.org/2000/svg" xmlns:xlink="http://www.w3.org/1999/xlink" width="107.326" height="127.143" viewBox="0 0 107.326 127.143">
  <defs>
    <linearGradient id="linear-gradient" y1="0.5" x2="1" y2="0.5" gradientUnits="objectBoundingBox">
      <stop offset="0" stop-color="#ffd03f"/>
      <stop offset="0.2" stop-color="#fcc939"/>
      <stop offset="0.46" stop-color="#f5b82a"/>
      <stop offset="0.77" stop-color="#ea9c12"/>
      <stop offset="0.9" stop-color="#e58e06"/>
      <stop offset="1" stop-color="#df8800"/>
    </linearGradient>
    <linearGradient id="linear-gradient-2" x1="0" y1="0.5" x2="1" y2="0.5" xlink:href="#linear-gradient"/>
    <linearGradient id="linear-gradient-3" x1="0.001" y1="0.5" x2="1.001" y2="0.5" xlink:href="#linear-gradient"/>
    <linearGradient id="linear-gradient-4" x1="0" y1="0.5" x2="1" y2="0.5" xlink:href="#linear-gradient"/>
    <linearGradient id="linear-gradient-5" x1="0" y1="0.5" x2="0.999" y2="0.5" xlink:href="#linear-gradient"/>
    <linearGradient id="linear-gradient-7" x1="0.001" y1="0.5" x2="1" y2="0.5" xlink:href="#linear-gradient"/>
    <linearGradient id="linear-gradient-8" x1="0" y1="0.5" x2="1" y2="0.5" xlink:href="#linear-gradient"/>
    <linearGradient id="linear-gradient-9" x1="0" y1="0.5" x2="1" y2="0.5" xlink:href="#linear-gradient"/>
    <linearGradient id="linear-gradient-10" x1="0" y1="0.5" x2="1" y2="0.5" xlink:href="#linear-gradient"/>
    <linearGradient id="linear-gradient-11" x1="0" y1="0.5" x2="1" y2="0.5" xlink:href="#linear-gradient"/>
    <linearGradient id="linear-gradient-13" x1="0" y1="0.5" x2="1" y2="0.5" xlink:href="#linear-gradient"/>
    <linearGradient id="linear-gradient-14" x1="0" y1="0.5" x2="1" y2="0.5" xlink:href="#linear-gradient"/>
    <linearGradient id="linear-gradient-15" x1="0" y1="0.501" x2="1" y2="0.501" xlink:href="#linear-gradient"/>
    <linearGradient id="linear-gradient-16" x1="-10.172" y1="0.498" x2="45.699" y2="0.498" xlink:href="#linear-gradient"/>
    <linearGradient id="linear-gradient-17" x1="-8.509" y1="0.498" x2="47.362" y2="0.498" xlink:href="#linear-gradient"/>
    <linearGradient id="linear-gradient-18" x1="-14.584" y1="0.5" x2="41.125" y2="0.5" xlink:href="#linear-gradient"/>
    <linearGradient id="linear-gradient-19" x1="-12.921" y1="0.5" x2="42.788" y2="0.5" xlink:href="#linear-gradient"/>
    <linearGradient id="linear-gradient-20" x1="-0.606" y1="0.5" x2="4.224" y2="0.5" xlink:href="#linear-gradient"/>
    <linearGradient id="linear-gradient-21" x1="-1.831" y1="0.499" x2="3.4" y2="0.499" xlink:href="#linear-gradient"/>
    <linearGradient id="linear-gradient-22" x1="-24.151" y1="0.5" x2="19.391" y2="0.5" xlink:href="#linear-gradient"/>
    <linearGradient id="linear-gradient-23" x1="-5.019" y1="0.5" x2="3.062" y2="0.5" xlink:href="#linear-gradient"/>
    <linearGradient id="linear-gradient-24" x1="-2.197" y1="0.499" x2="0.689" y2="0.499" xlink:href="#linear-gradient"/>
    <linearGradient id="linear-gradient-25" x1="-73.011" y1="0.5" x2="-17.312" y2="0.5" xlink:href="#linear-gradient"/>
    <linearGradient id="linear-gradient-26" x1="-71.366" y1="0.5" x2="-15.656" y2="0.5" xlink:href="#linear-gradient"/>
    <linearGradient id="linear-gradient-27" x1="-76.509" y1="0.502" x2="-20.638" y2="0.502" xlink:href="#linear-gradient"/>
    <linearGradient id="linear-gradient-28" x1="-4.309" y1="0.499" x2="-0.557" y2="0.499" xlink:href="#linear-gradient"/>
  </defs>
  <g id="Layer_1" data-name="Layer 1" transform="translate(0.001)">
    <g id="Group_1" data-name="Group 1" transform="translate(11.393 91.218)">
      <path id="Path_1" data-name="Path 1" d="M46.416,234.043a15.782,15.782,0,0,1-8.507,2.241A11.244,11.244,0,0,1,26.49,224.865a10.79,10.79,0,0,1,2.912-7.7,10.317,10.317,0,0,1,7.57-3.092c3.9,0,6.537,1.209,7.746,2.641a4.45,4.45,0,0,1,.761,2.193c.09.985.09,2.013.09,2.731h-1.7c-.671-3.716-2.6-5.329-5.957-5.329a5.211,5.211,0,0,0-4.791,2.507,11.028,11.028,0,0,0-1.48,6.047c0,3.63.671,5.909,1.879,7.346a5.136,5.136,0,0,0,4.387,1.927,9.722,9.722,0,0,0,3.626-.581V228.4a3.487,3.487,0,0,1,1.256-2.864l-.043.047c.942-.852,2.688-1.389,5.6-1.342v1.7c-1.3-.267-1.927.581-1.927,2.374v5.733Z" transform="translate(-26.49 -213.218)" fill="url(#linear-gradient)"/>
      <path id="Path_2" data-name="Path 2" d="M105.406,235.038V244.4h-3.269l-.942-1.209a3.527,3.527,0,0,1-1.879,1.209h.043a4.739,4.739,0,0,1-1.88.314c-3.54,0-5.6-1.97-5.6-5.238a4.006,4.006,0,0,1,1.836-3.716c1.3-.852,3.492-1.3,6.808-1.3h.043c-.09-3.045-.985-3.987-2.464-3.987a2.382,2.382,0,0,0-1.613.447,3.484,3.484,0,0,0-1.075,2.284H92.951c0-1.075-.133-2.641.895-3.806.8-.895,2.821-1.166,4.882-1.166,4.163,0,6.671,2.374,6.671,6.808Zm-4.839,1.7h-.043c-2.641,0-3.626.895-3.626,2.731,0,2.1.628,2.821,1.523,2.821a2.035,2.035,0,0,0,1.613-.8c.181-.224.357-.538.538-.8v-3.94Z" transform="translate(-63.756 -221.288)" fill="url(#linear-gradient-2)"/>
      <path id="Path_3" data-name="Path 3" d="M141.4,223.737c0-1.793-.224-2.6-1.7-2.6h-.761V219.3h4.12a3.064,3.064,0,0,1,2.55,1.032v.043a5.933,5.933,0,0,1,.628,3.359v11.509H141.4V223.737Zm2.06-6.718a2.691,2.691,0,0,1-2.731-2.778,2.057,2.057,0,0,1,2.1-2.15,2.664,2.664,0,0,1,2.731,2.778A2.142,2.142,0,0,1,143.465,217.019Z" transform="translate(-90.576 -212.09)" fill="url(#linear-gradient-3)"/>
      <path id="Path_4" data-name="Path 4" d="M195.852,234.277v10.167H190.97v-10.21c0-2.688-.895-3.583-1.97-3.583a3.076,3.076,0,0,0-2.1.761,11.94,11.94,0,0,1,.357,1.389v.043c.043.4.043.895.043,1.432v10.167h-4.838v-10.21c0-2.688-.895-3.583-2.017-3.583a2.676,2.676,0,0,0-1.836.895v.133a3.926,3.926,0,0,1,.181,1.342V244.44H173.9V232.931a5.25,5.25,0,0,0-.314-2.06c-.181-.357-.538-.538-1.342-.538h-.718V228.5h3.449a3.349,3.349,0,0,1,2.731,1.032,6.177,6.177,0,0,1,3.806-1.3,6.912,6.912,0,0,1,3.045.718,8.808,8.808,0,0,1,1.166.8,6.14,6.14,0,0,1,4.344-1.523c3.54,0,5.776,1.879,5.776,6.047Z" transform="translate(-109.15 -221.288)" fill="url(#linear-gradient-4)"/>
    </g>
    <path id="Path_5" data-name="Path 5" d="M174.5,174.942l-3.251,4.3a1.147,1.147,0,0,1-1.609.224l-4.3-3.251a1.146,1.146,0,0,1-.224-1.609l1.3-1.716,2.224-2.95.417-.551.426.323,2.383,1.8,2.413,1.824a1.147,1.147,0,0,1,.224,1.609Z" transform="translate(-93.972 -96.537)" fill="url(#linear-gradient-5)"/>
    <path id="Path_6" data-name="Path 6" d="M174.992,196.982l-3.251,4.3a1.146,1.146,0,0,1-1.609.224l-4.3-3.251a1.147,1.147,0,0,1-.224-1.609l1.3-1.716,2.224-2.95.417-.551.426.323,2.383,1.8,2.413,1.824a1.146,1.146,0,0,1,.224,1.609Z" transform="translate(-94.251 -109.098)" fill="url(#linear-gradient-5)"/>
    <path id="Path_7" data-name="Path 7" d="M180.162,6.34l-3.888,3.737a1.153,1.153,0,0,1-1.626-.03l-3.733-3.884a1.153,1.153,0,0,1,.03-1.626L172.5,3.045,175.16.482l.5-.482.37.383,2.069,2.15,2.095,2.181A1.153,1.153,0,0,1,180.162,6.34Z" transform="translate(-97.224)" fill="url(#linear-gradient-7)"/>
    <path id="Path_8" data-name="Path 8" d="M68.775,98.7c-1.346-6.206-3.694-12.86-1.54-18.855A52.1,52.1,0,0,0,82.4,91.826l.8-.452c-.955-1.991-1.514-4.352-2.95-5.9-2.636-2.843-5.854-5.135-8.705-7.789a58.727,58.727,0,0,1-6.722-6.967c-1.088-1.424-1.295-3.522-1.583-5.458a18.1,18.1,0,0,0,7.484,9.673c-5.441-5.122-7.539-11.217-5.849-18.554.757,6.215,5.2,9.539,9.737,12.808,1.436,1.037,2.869,2.082,4.223,3.217,4.937,4.142,7.277,9.372,6.253,15.84-.718,4.55-1.617,9.075-2.576,14.382-4.417-2.7-8.1-4.942-11.9-7.26-.8,4.391-1.643,9.04-2.581,14.189-6.778-4.094-13.827-6.95-13.939-16.58-.757,1.135-1.191,1.746-1.583,2.378a36.735,36.735,0,0,1-16.567,14.907,24.086,24.086,0,0,1-29.68-8.589C-3.927,86.63-1.441,66.794,11.943,56.348c13.449-10.494,32.386-6.4,39.379,8.516,5.208,11.1-.258,24.244-11.329,27.216a6.344,6.344,0,0,1-2,.168c9.535-4.172,14.116-11.161,12.516-21.621C49.318,62.808,42.66,55.178,35.3,53.311c1.23.907,2.2,1.617,3.165,2.331-7.178-2.168-14.03-1.879-20.6,1.8C6.3,63.909-2.237,82.432,11.534,96.182c8.49,8.477,22.481,8.864,32.73.817,5.161-4.051,9.767-9.221,12.292-15.591-.047,3.866-.559,8.21,2.456,11,2.692,2.5,5.806,4.537,8.731,6.783.344-.163.692-.327,1.037-.495Z" transform="translate(0 -28.779)" fill="url(#linear-gradient-8)"/>
    <path id="Path_9" data-name="Path 9" d="M125.906,70.7c.895-5.428.727-10.718-2.417-16.408.2,1.6.3,2.426.409,3.3-5.828-5.931-5.94-6.219-4-10.189C125.644,49.328,129.428,59.663,125.906,70.7Z" transform="translate(-67.69 -27.019)" fill="url(#linear-gradient-9)"/>
    <path id="Path_10" data-name="Path 10" d="M40.318,143.2c-5.2-1.793-9.772-4.46-13.281-9.931,1.316.938,1.991,1.415,2.71,1.931-2.447-7.948-2.645-8.18-7.058-8.365-1.045,5.965,6.245,14.21,17.629,16.365Z" transform="translate(-12.874 -72.288)" fill="url(#linear-gradient-10)"/>
    <path id="Path_11" data-name="Path 11" d="M125.23,113.54c.172-.52,6.95-12.507,7.643-15.81,0,0,6.43,10.769,11.638,14.765l-3.475,14.073s-7.514-8.425-8.034-19.543l-5.514,11.9-2.258-5.385Z" transform="translate(-71.37 -55.697)" fill="url(#linear-gradient-11)"/>
    <path id="Path_12" data-name="Path 12" d="M200.429,8.648c-2.985,4.705-5.583,9.634-8.976,13.935-4.03,5.105-8.985,9.38-15.543,11.075-2.026.525-4.52.391-4.976-2.146-.43-2.391,1.892-2.8,3.742-3.561,3.505-1.441,7.488-2.589,10.124-5.079,5.552-5.238,5.492-6.851,1.32-14.451a19.156,19.156,0,0,1-15.1,10.868c-2.963.447-4.254,2.989-3.527,5.669a93.191,93.191,0,0,0,4.955,14.378c1.626,3.544,4.3,4.18,8.034,2.821,2.034-.74,3.935-1.845,5.892-2.787.181.206.357.413.538.619-2.6,2.611-4.95,5.548-7.849,7.772-.529.4-1.067.774-1.609,1.123a15.38,15.38,0,0,1,5.26,7.389A31.733,31.733,0,0,0,192.4,43.545c3.505-7.866,6.1-16.133,9.483-24.059,1.845-4.327.052-7.587-1.462-10.838Z" transform="translate(-95.346 -4.799)" fill="url(#linear-gradient-11)"/>
    <path id="Path_13" data-name="Path 13" d="M81.962,85.666a3.848,3.848,0,0,1-1.97,1.376,4.053,4.053,0,0,1-3.32-.4,4.106,4.106,0,0,1-6.512.671,3.666,3.666,0,0,0-.052-.963A3.779,3.779,0,0,0,66.4,83.189h-.052c-.043-.034-.086-.069-.12-.095A8.766,8.766,0,0,0,63.9,81.8a6.28,6.28,0,0,0-.628-1.127,5.384,5.384,0,0,0,.963-.688,3.77,3.77,0,0,1,3.372-.662,5.1,5.1,0,0,1,9.7.129c2.142-.525,3.793.009,4.817,1.54a4.022,4.022,0,0,1-.163,4.671Z" transform="translate(-36.059 -43.238)" fill="url(#linear-gradient-13)"/>
    <path id="Path_14" data-name="Path 14" d="M42.878,93.325a1.805,1.805,0,0,1-.619.146.668.668,0,0,1-.138-.017,1.641,1.641,0,0,0-.275-.026,1.429,1.429,0,0,0-1.015.516,3.4,3.4,0,0,1-2.409,1.006,4.7,4.7,0,0,1-1.591-.31,4.48,4.48,0,0,1-7.819.009c-.292.1-.585.232-.895.31a4.142,4.142,0,0,1-1.006.129,3.877,3.877,0,0,1-2.434-.886,1.162,1.162,0,0,0-.671-.258h-.06a2.138,2.138,0,0,1-.327.017,2.687,2.687,0,0,1-.258-5.368c.095-.009.189-.026.284-.034.335-1.806,1.058-2.7,2.168-2.7a4.123,4.123,0,0,1,2.039.714,5.765,5.765,0,0,1,3.621-2.925,5.665,5.665,0,0,1,5.815,1.815,5.36,5.36,0,0,1,.938,1.591c.163.413.4.508.791.645a7.024,7.024,0,0,1,1.961,1.075,1.578,1.578,0,0,0,1.041.456h.189a2.057,2.057,0,0,1,2.013,1.746.238.238,0,0,1,.009.077A2.1,2.1,0,0,1,42.878,93.325Z" transform="translate(-11.86 -47.559)" fill="url(#linear-gradient-14)"/>
    <path id="Path_15" data-name="Path 15" d="M59.245,117.442a3.5,3.5,0,0,1-4.172-.413.657.657,0,0,0-.469-.06,2.527,2.527,0,1,1-.009-4.92.69.69,0,0,0,.512-.09,3.453,3.453,0,0,1,3.368-.714,1.524,1.524,0,0,0,.228.021,4.423,4.423,0,0,1,2.15-2.576,4.267,4.267,0,0,1,5.871,1.991c.189.413.374.482.809.43a3.251,3.251,0,0,1,2.968,1.2.684.684,0,0,0,.692.292,1.846,1.846,0,0,1,1.9.92,1.873,1.873,0,0,1-.013,2.116,2,2,0,0,1-1.97.925.829.829,0,0,0-.576.138,3.442,3.442,0,0,1-4.912.4c-.039-.03-.086-.056-.168-.112a3.488,3.488,0,0,1-2.972,2.129,3.442,3.442,0,0,1-3.239-1.677Z" transform="translate(-29.354 -61.664)" fill="url(#linear-gradient-15)"/>
    <g id="Group_2" data-name="Group 2" transform="translate(12.352 117.255)">
      <rect id="Rectangle_1" data-name="Rectangle 1" width="1.2" height="0.985" rx="0.492" transform="translate(3.793)" fill="url(#linear-gradient-16)"/>
      <rect id="Rectangle_2" data-name="Rectangle 2" width="1.2" height="0.985" rx="0.492" transform="translate(1.798)" fill="url(#linear-gradient-17)"/>
      <path id="Path_16" data-name="Path 16" d="M50.465,292.4h.211a.5.5,0,0,0,.495-.495h0a.5.5,0,0,0-.495-.495h-.211a.5.5,0,0,0-.495.49h0a.492.492,0,0,0,.495.495Z" transform="translate(-40.831 -283.333)" fill="url(#linear-gradient-18)"/>
      <path id="Path_17" data-name="Path 17" d="M45.815,292.4h.211a.5.5,0,0,0,.495-.495h0a.5.5,0,0,0-.495-.495h-.211a.5.5,0,0,0-.495.49h0a.492.492,0,0,0,.495.495Z" transform="translate(-38.181 -283.333)" fill="url(#linear-gradient-19)"/>
      <path id="Path_18" data-name="Path 18" d="M41.085,278.837a.838.838,0,0,1-.8.821,2.7,2.7,0,0,1-.4.009H38.565c.159-.09.241-.327.245-.705v-2.378H37.193v2.353c-.047.533-.361.779-.933.735h-.877v.009h-.31c-.5-.03-.783-.348-.843-.963a3.823,3.823,0,0,1,.009-.692l-.013-2.925H32.066a4.227,4.227,0,0,0-1.716.28,4.184,4.184,0,0,0-.856.589,2.658,2.658,0,0,0-.774,1.884,2.611,2.611,0,0,0,.258,1.17,1.712,1.712,0,0,0,.86.869,3.208,3.208,0,0,0,1.325.258,2.1,2.1,0,0,0,1.037-.194c.12-.06.314-.176.576-.34a2.169,2.169,0,0,0,.8.929,2.575,2.575,0,0,0,1.411.361h5.737a2.643,2.643,0,0,0,.877-.138A1.451,1.451,0,0,0,42.6,279.4V274.14H41.1v4.7Zm-8.585-.31a1.193,1.193,0,0,1-.877.576.92.92,0,0,1-.667-.194,1.5,1.5,0,0,1-.495-.555,1.622,1.622,0,0,1-.151-.718,1.975,1.975,0,0,1,.185-.856,1.4,1.4,0,0,1,1.084-.731,5.631,5.631,0,0,1,1.114-.043q.013,1.523.013,1.69a1.569,1.569,0,0,1-.206.834Z" transform="translate(-28.72 -273.491)" fill="url(#linear-gradient-20)"/>
      <path id="Path_19" data-name="Path 19" d="M75.031,278.78a.838.838,0,0,1-.8.821,2.68,2.68,0,0,1-.4.009h-.6v.009h-.512a2.417,2.417,0,0,0-.512-1.5,2.613,2.613,0,0,0-1.892-.834h-.073a2.192,2.192,0,0,0-2.292,1.518,2.529,2.529,0,0,0-.142.813h-.753v-.009h-.912a.93.93,0,0,1-.933-1.084V274.04H63.72v5.049a2.31,2.31,0,0,0,.206.877,1.516,1.516,0,0,0,1.488.886h2.761a.155.155,0,0,1,.151.056,2.1,2.1,0,0,0,1.789.813,2.813,2.813,0,0,0,2.077-.813.289.289,0,0,1,.206-.056h2.267a2.646,2.646,0,0,0,.877-.138,1.451,1.451,0,0,0,.993-1.372v-5.256h-1.5v4.7ZM71.04,280.3a.907.907,0,0,1-.387.318,1.192,1.192,0,0,1-.383.052.977.977,0,0,1-.993-.619,1.578,1.578,0,0,1-.12-.6,1.345,1.345,0,0,1,.151-.632.989.989,0,0,1,.34-.383,1.023,1.023,0,0,1,.538-.2.781.781,0,0,1,.138-.013c.447,0,.761.288.95.865a1.5,1.5,0,0,1,.056.4,1.246,1.246,0,0,1-.288.813Z" transform="translate(-48.667 -273.434)" fill="url(#linear-gradient-21)"/>
      <path id="Path_20" data-name="Path 20" d="M95.62,280.864l1.54-.017V274.06l-1.527.009Z" transform="translate(-66.847 -273.445)" fill="url(#linear-gradient-22)"/>
      <path id="Path_21" data-name="Path 21" d="M112.892,278.476a6.47,6.47,0,0,1-.3,2.288,2.505,2.505,0,0,1-.748.877,2.836,2.836,0,0,1-1.647.512,2.755,2.755,0,0,1-2.525-1.574,4.893,4.893,0,0,1-.318-1.884v-.533H105.98v1.166a4.7,4.7,0,0,0,1.028,2.86,4.2,4.2,0,0,0,3.092,1.368,4.007,4.007,0,0,0,3.428-1.613,3.757,3.757,0,0,0,.748-2.09v-5.4h-1.389v4.026Z" transform="translate(-72.751 -273.667)" fill="url(#linear-gradient-23)"/>
      <path id="Path_22" data-name="Path 22" d="M149.54,278.837a.838.838,0,0,1-.8.821,2.7,2.7,0,0,1-.4.009h-.077v-.013h-1.325a1.652,1.652,0,0,0,.021-.258V274.14h-1.5v4.7a.838.838,0,0,1-.8.821h-.013l-.959.009a3.539,3.539,0,0,0-3.565-3.411q-.181,0-.361.013a3.008,3.008,0,0,0-1.677.748,5.123,5.123,0,0,0-.516.555l1.028.869a1.9,1.9,0,0,1,1.583-.865,2.151,2.151,0,0,1,1.359.538,1.727,1.727,0,0,1,.49.705,2.522,2.522,0,0,1,.163.843H137.5v-.013h-1.325a1.648,1.648,0,0,0,.022-.258V274.14h-1.5v4.7a.841.841,0,0,1-.8.821,2.69,2.69,0,0,1-.31.009h-.869l.009-.727c0-.043.009-.086.009-.129a2.417,2.417,0,0,0-.512-1.5,2.613,2.613,0,0,0-1.892-.834h-.073a2.4,2.4,0,0,0-1.854.74,2.251,2.251,0,0,0-.439.778,2.529,2.529,0,0,0-.142.813,2.187,2.187,0,0,0,.473,1.329,2.3,2.3,0,0,0,1.841.77,3.1,3.1,0,0,0,1.157-.206,1.162,1.162,0,0,1-.249.555,1.3,1.3,0,0,1-.972.409,1.371,1.371,0,0,1-.181-.013l-.013.951h.237a2.908,2.908,0,0,0,1.862-.533,2.228,2.228,0,0,0,.688-1.166h1.63c.133,0,.262,0,.383-.013h2.31v.013h8.06c.133,0,.262,0,.383-.013h2.3v.013h1.445a2.645,2.645,0,0,0,.877-.138,1.451,1.451,0,0,0,.994-1.372v-5.256h-1.5v4.7Zm-18.477.662a.933.933,0,0,1-.387.318,1.192,1.192,0,0,1-.383.052.977.977,0,0,1-.994-.619,1.578,1.578,0,0,1-.12-.6,1.358,1.358,0,0,1,.151-.632.99.99,0,0,1,.34-.383,1.024,1.024,0,0,1,.538-.2.787.787,0,0,1,.138-.013.965.965,0,0,1,.95.865,1.5,1.5,0,0,1,.056.4,1.246,1.246,0,0,1-.288.813Z" transform="translate(-85.198 -273.491)" fill="url(#linear-gradient-24)"/>
      <path id="Path_23" data-name="Path 23" d="M214,292.4h.211a.5.5,0,0,0,.495-.495h0a.5.5,0,0,0-.495-.495H214a.5.5,0,0,0-.495.49h0a.492.492,0,0,0,.495.495Z" transform="translate(-134.034 -283.333)" fill="url(#linear-gradient-25)"/>
      <path id="Path_24" data-name="Path 24" d="M209.355,292.4h.211a.5.5,0,0,0,.495-.495h0a.5.5,0,0,0-.495-.495h-.211a.5.5,0,0,0-.495.49h0a.492.492,0,0,0,.495.495Z" transform="translate(-131.384 -283.333)" fill="url(#linear-gradient-26)"/>
      <rect id="Rectangle_3" data-name="Rectangle 3" width="1.2" height="0.985" rx="0.492" transform="translate(83.394 0.753)" fill="url(#linear-gradient-27)"/>
      <path id="Path_25" data-name="Path 25" d="M202.508,281.719a1.25,1.25,0,0,1,.34-1.092,1.157,1.157,0,0,1,.783-.34,1.222,1.222,0,0,1,.641.12,1.99,1.99,0,0,1,.74.735l1.015-.589a2.183,2.183,0,0,0-.645-.847,1.688,1.688,0,0,0-.645-.426,2.97,2.97,0,0,0-.873-.155,2.69,2.69,0,0,0-1.583.353,2.148,2.148,0,0,0-.92,1.316,2.754,2.754,0,0,0-.043.972,1.856,1.856,0,0,0,.237.735l-1.049.009h-.735c.159-.09.241-.327.245-.705v-2.378H198.4v2.353c-.047.533-.361.778-.933.735h-.877v.009h-.374a2.417,2.417,0,0,0-.512-1.5,2.613,2.613,0,0,0-1.892-.834h-.073a2.4,2.4,0,0,0-1.854.74,1.9,1.9,0,0,0-.151.2h-2.047a1.982,1.982,0,0,0-.761.185,1.342,1.342,0,0,0-.761,1.316v2.813h1.415v-2.5c.017-.4.258-.6.71-.581H191.3c0,.052-.009.1-.009.159a2.06,2.06,0,0,0,.4,1.209,2.363,2.363,0,0,0,1.914.89,2.813,2.813,0,0,0,2.077-.813.29.29,0,0,1,.206-.056H206v-1.239h-3.058a1.312,1.312,0,0,1-.447-.783Zm-7.965,1.48a.933.933,0,0,1-.387.318,1.193,1.193,0,0,1-.383.052.977.977,0,0,1-.993-.619,1.578,1.578,0,0,1-.12-.6,1.345,1.345,0,0,1,.151-.632.989.989,0,0,1,.34-.383,1.023,1.023,0,0,1,.538-.2.784.784,0,0,1,.138-.013c.447,0,.761.288.95.864a1.5,1.5,0,0,1,.056.4,1.246,1.246,0,0,1-.288.813Z" transform="translate(-119.587 -276.33)" fill="url(#linear-gradient-28)"/>
    </g>
  </g>
</svg>
