<svg xmlns="http://www.w3.org/2000/svg" width="134.434" height="51.404" viewBox="0 0 134.434 51.404">
  <g id="Logo-Black-Copress__2_" data-name="Logo-Black-Copress_(2)" transform="translate(0.002)">
    <path id="Path_1525" data-name="Path 1525" d="M111.668,28.963a7.241,7.241,0,0,1-5.135,1.766,10.577,10.577,0,0,1-1.209-.044v5.989H102V19.314q2.381-.114,4.856-.114a7.58,7.58,0,0,1,4.888,1.393,4.837,4.837,0,0,1,1.7,3.957A5.837,5.837,0,0,1,111.668,28.963ZM106.6,22h-1.266v5.825a6.567,6.567,0,0,0,1.418.139q3.216,0,3.216-3.064-.013-2.931-3.349-2.931Zm23.128,7.933q0,7.028-7.2,7.034-6.718,0-6.718-6.331V19.314h3.343V30.47a4.128,4.128,0,0,0,.728,2.684A3.517,3.517,0,0,0,122.76,34.2a3.638,3.638,0,0,0,2.786-.905,4.616,4.616,0,0,0,.867-3.128V19.314h3.318Zm3.6,6.743V19.314h3.337V36.674Zm20.849-6.743q0,7.028-7.2,7.034-6.724,0-6.718-6.331V19.314H143.6V30.47a4.166,4.166,0,0,0,.728,2.684,3.526,3.526,0,0,0,2.881,1.045,3.686,3.686,0,0,0,2.786-.905,4.616,4.616,0,0,0,.867-3.128V19.314h3.318Zm13.467,6.743-3.736-6.382-3.729,6.382h-3.957l5.527-8.864-5.185-8.478h3.881l3.514,6.015,3.508-6.015h3.8l-5.109,8.452,5.7,8.908ZM107.7,50.2h-.918l-1.038-3.666a9.513,9.513,0,0,1-.2-.937h0a8.72,8.72,0,0,1-.2.937L104.33,50.2h-.886L102,44.76h.791l.924,3.552a9.823,9.823,0,0,1,.215,1.051h0a7.929,7.929,0,0,1,.215-1.013l1.019-3.59h.842l1.057,3.615a9.626,9.626,0,0,1,.222.969h0l.184-.886.95-3.7h.728Z" transform="translate(-37.421 -7.044)" fill="#fff"/>
    <path id="Path_1526" data-name="Path 1526" d="M116.689,62.623h-2.628c0,.975.4,1.469,1.266,1.469a2.856,2.856,0,0,0,1.146-.234l.1.57a3.628,3.628,0,0,1-1.387.253c-1.266,0-1.9-.69-1.9-2.058a2.292,2.292,0,0,1,.475-1.5,1.652,1.652,0,0,1,1.336-.633,1.513,1.513,0,0,1,1.209.487,1.709,1.709,0,0,1,.374,1.165A2.063,2.063,0,0,1,116.689,62.623Zm-.722-.519a1.064,1.064,0,0,0-.228-.76.836.836,0,0,0-.671-.272c-.564,0-.893.342-.988,1.032Zm4.692,1.982a1.969,1.969,0,0,1-1.532.633,5.438,5.438,0,0,1-1.38-.158V58.742h.728v1.944a3.483,3.483,0,0,1-.07.747h0a1.444,1.444,0,0,1,2.419-.412,2.241,2.241,0,0,1,.386,1.406A2.317,2.317,0,0,1,120.658,64.085Zm-1.083-2.944a.95.95,0,0,0-.829.513,1.951,1.951,0,0,0-.272,1.032v1.33a2.272,2.272,0,0,0,.715.1q1.266,0,1.266-1.614C120.462,61.6,120.165,61.141,119.576,61.141Zm2.7,4.793h-.69l2.824-7.414h.722Zm6.882-1.3-.456-1.266h-2.3l-.45,1.266h-.76l1.982-5.445h.836L130,64.63Zm-1.374-3.906-.234-.741-.222.728-.741,2.058h1.944Z" transform="translate(-41.562 -21.469)" fill="#fff"/>
    <path id="Path_1527" data-name="Path 1527" d="M143.415,65.263a1.982,1.982,0,0,1-1.52.582,4.168,4.168,0,0,1-.677-.051v2h-.728V61.787h.7a3.909,3.909,0,0,1-.063.81h0a1.336,1.336,0,0,1,1.349-.9,1.266,1.266,0,0,1,1.083.488,2.2,2.2,0,0,1,.386,1.406A2.355,2.355,0,0,1,143.415,65.263Zm-1.1-2.957a.937.937,0,0,0-.823.513,1.976,1.976,0,0,0-.279,1.038v1.323a2.272,2.272,0,0,0,.715.1q1.266,0,1.266-1.615C143.206,62.762,142.909,62.306,142.32,62.306Z" transform="translate(-51.542 -22.634)" fill="#fff"/>
    <path id="Path_1528" data-name="Path 1528" d="M143.415,65.263a1.982,1.982,0,0,1-1.52.582,4.168,4.168,0,0,1-.677-.051v2h-.728V61.787h.7a3.909,3.909,0,0,1-.063.81h0a1.336,1.336,0,0,1,1.349-.9,1.266,1.266,0,0,1,1.083.488,2.2,2.2,0,0,1,.386,1.406A2.355,2.355,0,0,1,143.415,65.263Zm-1.1-2.957a.937.937,0,0,0-.823.513,1.976,1.976,0,0,0-.279,1.038v1.323a2.272,2.272,0,0,0,.715.1q1.266,0,1.266-1.615C143.206,62.762,142.909,62.306,142.32,62.306Z" transform="translate(-47.091 -22.634)" fill="#fff"/>
    <path id="Path_1529" data-name="Path 1529" d="M99.787,42.869a1.9,1.9,0,0,1-1.266.367,3.248,3.248,0,0,1-.893-.108l.063-.633a2.362,2.362,0,0,0,.893.165,1.1,1.1,0,0,0,.633-.165.513.513,0,0,0,.241-.45.494.494,0,0,0-.291-.456,6.676,6.676,0,0,0-.633-.234,1.621,1.621,0,0,1-.633-.323.931.931,0,0,1-.291-.741,1.045,1.045,0,0,1,.4-.855,1.842,1.842,0,0,1,1.2-.348,3.736,3.736,0,0,1,.772.082l-.057.6a2.811,2.811,0,0,0-.785-.12c-.525,0-.785.19-.785.57a.519.519,0,0,0,.3.462,5.2,5.2,0,0,0,.633.234c.633.209.937.557.937,1.051a1.108,1.108,0,0,1-.437.905Zm5.559-.1a2.222,2.222,0,0,1-1.469.469,4.432,4.432,0,0,1-1.2-.152l.095-.715a2.956,2.956,0,0,0,1.146.222,1.406,1.406,0,0,0,.823-.215.81.81,0,0,0,.355-.715.766.766,0,0,0-.386-.633,6.5,6.5,0,0,0-.848-.386,2.894,2.894,0,0,1-.842-.481,1.266,1.266,0,0,1-.386-.95,1.374,1.374,0,0,1,.494-1.108,2.1,2.1,0,0,1,1.406-.437,4.248,4.248,0,0,1,.988.108l-.089.633a3.242,3.242,0,0,0-.937-.146c-.728,0-1.1.285-1.1.848a.747.747,0,0,0,.386.633,7.818,7.818,0,0,0,.861.393,2.976,2.976,0,0,1,.861.488,1.266,1.266,0,0,1,.386.943,1.5,1.5,0,0,1-.551,1.2Zm4.565-.152a1.817,1.817,0,0,1-1.425.633q-1.792,0-1.8-2.045a2.172,2.172,0,0,1,.525-1.5,1.823,1.823,0,0,1,1.431-.633,1.766,1.766,0,0,1,1.266.462,2.121,2.121,0,0,1,.513,1.551A2.229,2.229,0,0,1,109.911,42.616Zm-1.336-2.931a1.019,1.019,0,0,0-.785.342,1.583,1.583,0,0,0-.355,1.1q0,1.5,1.14,1.5a.956.956,0,0,0,.779-.361,1.69,1.69,0,0,0,.336-1.133C109.69,40.166,109.322,39.685,108.575,39.685Zm2.855,3.476V37.273h.728v5.888Zm4.584,0a4.276,4.276,0,0,1,.07-.842h0a1.418,1.418,0,0,1-1.412.918c-.8,0-1.2-.431-1.2-1.266V39.153h.715v2.583c0,.633.228.905.684.905a.981.981,0,0,0,.823-.45,1.861,1.861,0,0,0,.317-1.121v-1.9h.728V43.18Zm4.052-.019a3.622,3.622,0,0,1-.81.082,1.064,1.064,0,0,1-.842-.272,1.45,1.45,0,0,1-.228-.931v-2.3h-.829v-.563h.829v-1.3l.722-.2v1.507h1.127v.563h-1.127v2.07a1.3,1.3,0,0,0,.12.633.513.513,0,0,0,.456.177,1.811,1.811,0,0,0,.507-.07Zm1.671-4.926a.507.507,0,0,1-.684,0,.443.443,0,0,1-.146-.329.462.462,0,0,1,.146-.342.488.488,0,0,1,.684,0,.462.462,0,0,1,.146.342.45.45,0,0,1-.146.329Zm-.7,4.945V39.153h.722v4.008Zm4.957-.544a1.8,1.8,0,0,1-1.418.633q-1.8,0-1.8-2.045a2.2,2.2,0,0,1,.526-1.5,1.836,1.836,0,0,1,1.431-.633,1.766,1.766,0,0,1,1.266.462,2.121,2.121,0,0,1,.513,1.551,2.229,2.229,0,0,1-.513,1.532Zm-1.336-2.931a1.026,1.026,0,0,0-.785.342,1.583,1.583,0,0,0-.355,1.1q0,1.5,1.14,1.5a.975.975,0,0,0,.785-.361,1.728,1.728,0,0,0,.336-1.133q-.006-1.444-1.127-1.444Zm5.356,3.476V40.584q0-.912-.684-.912a.975.975,0,0,0-.817.45,1.9,1.9,0,0,0-.323,1.121v1.9h-.728V39.153h.7A4.345,4.345,0,0,1,128.1,40h0a1.412,1.412,0,0,1,1.412-.918c.8,0,1.209.431,1.209,1.266v2.8Zm3.938-.291a1.944,1.944,0,0,1-1.266.367,3.279,3.279,0,0,1-.893-.108l.07-.633a2.3,2.3,0,0,0,.886.165,1.133,1.133,0,0,0,.633-.165.525.525,0,0,0,.241-.45.507.507,0,0,0-.291-.456c-.076-.038-.285-.114-.633-.234a1.608,1.608,0,0,1-.633-.323.95.95,0,0,1-.291-.741,1.045,1.045,0,0,1,.4-.855,1.855,1.855,0,0,1,1.2-.348,3.691,3.691,0,0,1,.772.082l-.057.6a2.779,2.779,0,0,0-.785-.12c-.519,0-.785.19-.785.57a.519.519,0,0,0,.3.462,6.018,6.018,0,0,0,.633.234c.633.209.937.557.937,1.051a1.108,1.108,0,0,1-.437.905ZM15.739,0V48.979A26.921,26.921,0,0,1,15.739,0Zm15.7,26.484a22.21,22.21,0,0,1-4.679-.456V6.8l4.267-.082q11.017,0,11.023,9.655Q42.052,26.484,31.441,26.484Z" transform="translate(0)" fill="#fff"/>
    <path id="Path_1530" data-name="Path 1530" d="M69.324,35.4a26.915,26.915,0,0,1-26.9,26.915H42.27V46.362q1.861.165,3.976.165,10.763,0,16.949-5.844A18.43,18.43,0,0,0,68.748,29.73,27.11,27.11,0,0,1,69.324,35.4Z" transform="translate(-15.508 -10.907)" fill="#fff"/>
  </g>
</svg>
