<svg xmlns="http://www.w3.org/2000/svg" xmlns:xlink="http://www.w3.org/1999/xlink" width="49.859" height="44.021" viewBox="0 0 49.859 44.021">
  <defs>
    <linearGradient id="linear-gradient" x1="0.195" y1="1" x2="0.864" y2="0.067" gradientUnits="objectBoundingBox">
      <stop offset="0" stop-color="#ffd03f"/>
      <stop offset="0.2" stop-color="#fcc939"/>
      <stop offset="0.46" stop-color="#f5b82a"/>
      <stop offset="0.77" stop-color="#ea9c12"/>
      <stop offset="0.9" stop-color="#e58e06"/>
      <stop offset="1" stop-color="#df8800"/>
    </linearGradient>
  </defs>
  <g id="marketing" transform="translate(-3.992 -7.275)">
    <path id="Union_1" data-name="Union 1" d="M11.143,42.285,9.763,28.678A22.457,22.457,0,0,1,15,29.979c.979.4,3.085,1.24,4.052,1.63l-1.461,9.884a2.973,2.973,0,0,1-2.92,2.529H13.051A1.916,1.916,0,0,1,11.143,42.285Zm26.152-5.254L15.836,28.393A24.471,24.471,0,0,1,15,11.44c.232-.757.507-1.505.819-2.254C16.9,8.93,39.05-.633,39.664.033c5.717,0,10.2,8.236,10.2,18.753-.092,9.989-4,18.695-10.1,18.694A7.32,7.32,0,0,1,37.295,37.031ZM31.24,18.786c-.07,5.683,2.094,16.483,8.424,16.972,4.559,0,8.414-7.774,8.414-16.972S44.223,1.814,39.663,1.814C33.277,2.4,31.2,13.033,31.24,18.786ZM6.148,26.194a7.538,7.538,0,0,1,0-14.817l7.462-1.389a26.106,26.106,0,0,0-.6,15.68c.169.642.365,1.283.587,1.915Zm26.874-7.409a29.652,29.652,0,0,1,.578-5.912l5.076,1.1c-2.337,2.152-2.35,6.725-.454,9.154a3.825,3.825,0,0,0,.775.7l-5.334,1.158A28.879,28.879,0,0,1,33.021,18.785Zm7.809-4.167c3.266,0,3.273,8.306,0,8.308C37.546,22.719,37.477,14.89,40.831,14.618Z" transform="translate(3.992 7.275)" fill="url(#linear-gradient)"/>
  </g>
</svg>
