<svg xmlns="http://www.w3.org/2000/svg" width="72.238" height="55" viewBox="0 0 72.238 55">
  <path id="Path_31440" data-name="Path 31440" d="M88.816,123.718a4.474,4.474,0,0,1-1.909.6,1.587,1.587,0,0,1-.424-.07,3.863,3.863,0,0,0-.848-.105c-1.246,0-2.147.842-3.128,2.1-2.227,2.806-4.718,4.1-7.422,4.1a11.443,11.443,0,0,1-4.9-1.263c-2.836,6.209-7.422,9.365-12.061,9.365S49,135.4,46.085,129.12a26.054,26.054,0,0,1-2.757,1.263,9.847,9.847,0,0,1-3.1.526c-2.7,0-5.2-1.228-7.5-3.613a3.137,3.137,0,0,0-2.068-1.052h-.186a5,5,0,0,1-1.007.07c-4.453,0-8.085-3.858-8.589-9.506-.583-6.454,2.7-11.681,7.793-12.382.292-.035.583-.105.875-.14,1.034-7.366,3.26-11.014,6.68-11.014,1.776,0,3.87.982,6.282,2.911C45,90.22,48.63,86.081,53.666,84.257a13.283,13.283,0,0,1,4.586-.807c5.169,0,10.073,3.017,13.333,8.208a24.2,24.2,0,0,1,2.889,6.489,3.6,3.6,0,0,0,2.439,2.631,20.824,20.824,0,0,1,6.044,4.385c1.06,1.087,1.856,1.859,3.207,1.859h.583c3.128,0,5.673,3.052,6.2,7.12a1.272,1.272,0,0,1,.027.316C93.428,118.421,91.679,122.35,88.816,123.718Z" transform="translate(-20.81 -83.45)" fill="#fdf7ed"/>
</svg>
