<svg xmlns="http://www.w3.org/2000/svg" xmlns:xlink="http://www.w3.org/1999/xlink" width="314.933" height="156.992" viewBox="0 0 314.933 156.992">
  <defs>
    <linearGradient id="linear-gradient" y1="0.501" x2="1" y2="0.501" gradientUnits="objectBoundingBox">
      <stop offset="0" stop-color="#ffd03f"/>
      <stop offset="0.2" stop-color="#fcc939"/>
      <stop offset="0.46" stop-color="#f5b82a"/>
      <stop offset="0.77" stop-color="#ea9c12"/>
      <stop offset="0.9" stop-color="#e58e06"/>
      <stop offset="1" stop-color="#df8800"/>
    </linearGradient>
  </defs>
  <path id="Path_15" data-name="Path 15" d="M162.752,241.065c-21.824,11-41.608,9.521-59.969-5.935-1.484-1.236-4.575-1.236-6.739-.865-15.951,2.844-30.232-2.782-38.64-15.456a36.7,36.7,0,0,1,.309-40.371c8.037-12.056,22.689-17.62,38.207-14.9,2.349.433,5.688.124,7.357-1.3,14.405-11.932,30.417-15.58,48.408-10.263a21.883,21.883,0,0,0,3.277.309c5.75-16.2,15.518-29.057,30.912-37.033,31.345-16.26,69.738-3.462,84.39,28.624,2.72,5.935,5.379,6.924,11.623,6.182,17.063-1.978,31.468,4.142,42.659,17.187,2.844,3.339,5.255,4.76,9.954,4.2,11.685-1.422,21.082,3.153,27.326,13.23s6.121,20.526-.185,30.417c-6.492,10.263-16.322,14.1-28.315,13.292-2.72-.185-6.553.247-8.284,1.978-21.02,21.577-46.492,23.8-70.6,5.688-.556-.433-1.236-.8-2.411-1.607-8.964,17.558-22.318,29.243-42.72,30.6-20.093,1.36-35.178-7.419-46.554-24.111Z" transform="translate(-51.506 -108.199)" fill="url(#linear-gradient)"/>
</svg>
