<svg xmlns="http://www.w3.org/2000/svg" width="1625.515" height="603.537" viewBox="0 0 1625.515 603.537">
  <path id="Path_1318" data-name="Path 1318" d="M3246.182,1182.438c-98.14,0-148.148,77.594-148.148,173.856a171.15,171.15,0,0,0,3.575,34.919,145.468,145.468,0,0,0-82.76,48.862,139.986,139.986,0,0,0-33.149,90.511c0,1.223.062,2.4.1,3.607a.076.076,0,0,1-.062.02,145.228,145.228,0,0,0-48.978,21.035c-23.386-47.78-73.161-80.755-130.8-80.755-72.629,0-132.8,52.388-143.36,120.742a115.9,115.9,0,0,0-32.291-4.548c-63.174,0-114.378,50.225-114.378,112.189,0,1.783.041,3.546.122,5.31a116.386,116.386,0,0,0-104.614,17.99c-10.723-51.046-56.8-89.411-112.008-89.411a115.345,115.345,0,0,0-55.514,14.1c-12.438-66.151-71.568-116.276-142.6-116.276-61.355,0-113.825,37.384-134.985,90.212a116.1,116.1,0,0,0-42.708-8.074c-50.755,0-93.769,32.415-108.72,77.29a116.183,116.183,0,0,0-136.211,1.743c1.246-7.473-58.024,25.683-58.024,17.87,0-20.424,15.213-35.6,32.473,8.595v.021c.266.66.531,1.342.777,2.024q.459,1.17.857,2.344c.307.84.613,1.682.879,2.544.408,1.2.817,2.4,1.185,3.626.021.04.021.08.041.1.389,1.242.756,2.465,1.1,3.706.245.862.49,1.723.714,2.584.246.862.47,1.724.674,2.6.082.261.143.521.2.8.142.641.306,1.262.449,1.9,0,.04.021.06.021.1.082.3.143.6.2.882.266,1.162.511,2.344.756,3.527.184.881.347,1.763.511,2.645.021.059.021.14.04.2.021.16.061.322.082.48.02.081.02.162.04.241.082.541.184,1.081.266,1.622.265,1.482.49,2.966.694,4.467.1.7.2,1.422.286,2.124a1.093,1.093,0,0,1,.021.26c.143,1.042.266,2.1.367,3.166q.215,1.983.368,3.967a108.245,108.245,0,0,1,16.442-1.262,106.714,106.714,0,0,1,55.8,15.625c.327-.6.654-1.221.98-1.822.307-.6.654-1.182,1-1.763a.071.071,0,0,1,.021-.06c.408-.741.837-1.463,1.286-2.184.735-1.222,1.491-2.424,2.287-3.606.184-.28.368-.581.572-.861.2-.3.409-.6.613-.881.285-.441.592-.861.9-1.282,1.124-1.583,2.309-3.146,3.534-4.667.367-.461.734-.9,1.123-1.363,1-1.2,2.022-2.364,3.064-3.505.47-.541.98-1.083,1.491-1.6.572-.6,1.144-1.2,1.716-1.782l1.409-1.383c1.063-1.042,2.144-2.043,3.268-3.025.572-.521,1.164-1.042,1.756-1.522.634-.561,1.266-1.083,1.921-1.6.53-.44,1.062-.881,1.613-1.282.49-.4,1-.781,1.511-1.161,1.552-1.183,3.167-2.324,4.8-3.386.817-.562,1.634-1.082,2.471-1.6.716-.461,1.45-.9,2.165-1.342.246-.14.47-.281.7-.4.695-.4,1.388-.8,2.083-1.182a3.305,3.305,0,0,1,.45-.24c.756-.421,1.531-.823,2.307-1.222,1.757-.922,3.534-1.784,5.352-2.586l2.635-1.141c.04-.02.1-.04.142-.061l2.573-1.021a2.616,2.616,0,0,1,.368-.141c.879-.32,1.737-.641,2.615-.942.939-.34,1.9-.661,2.859-.961,1.873-.617,3.791-1.144,5.723-1.635.094-.023.188-.043.283-.068.923-.233,1.844-.475,2.778-.682.979-.22,1.98-.44,2.981-.621.817-.159,1.634-.32,2.451-.46.878-.161,1.756-.3,2.655-.422.122-.019.265-.039.387-.06.158-.021.316-.036.474-.058.2-.025.407-.059.609-.082.51-.08,1.021-.14,1.531-.2a.2.2,0,0,1,.1-.019h.021c.1-.021.2-.021.306-.041.123-.02.246-.02.368-.04.735-.08,1.49-.161,2.246-.22.593-.059,1.165-.1,1.757-.141.431-.041.883-.056,1.324-.081.172-.012.343-.03.514-.04.266,0,.532-.02.8-.039.837-.061,1.695-.081,2.554-.1.918-.02,1.838-.041,2.756-.041,1.349,0,2.676.021,4,.08,1.328.04,2.655.121,3.983.221.408.021.817.081,1.226.1.313.028.624.065.939.092.476.047.95.081,1.43.129a1.827,1.827,0,0,1,.327.04c1.306.14,2.594.32,3.88.5h.021l.061.01c.078.006.153.016.245.03.666.1,1.318.219,1.973.333,1.132.19,2.257.4,3.376.624.347.073.7.132,1.044.2.225.04.449.1.674.141.511.12,1.021.221,1.531.361.083.017.168.04.251.064.7.167,1.4.336,2.1.517.027.007.055.011.083.019.734.181,1.449.381,2.164.581l.039.012c.294.083.585.17.877.257l.045.011c.1.021.2.061.306.08.776.221,1.573.462,2.349.722a.156.156,0,0,0,.082.02c.878.3,1.777.6,2.655.9.171.057.335.121.5.183.292.1.58.216.87.323.619.224,1.24.445,1.859.7l.2.082c.327.128.652.258.977.389.043.017.083.037.129.051.674.261,1.328.541,1.982.822l.059.026c.869.373,1.726.758,2.58,1.153.347.156.693.306,1.037.465.757.36,1.491.72,2.247,1.1a1.568,1.568,0,0,1,.266.14c.024.011.043.023.067.033a106.718,106.718,0,0,1,10.842,6.332c.325.217.658.428.978.646.041.031.088.062.128.092.7.477,1.385.968,2.071,1.46.213.153.426.3.639.451.049.035.1.073.147.109.149.109.3.222.448.332.19.14.379.275.57.421.04.02.061.061.1.08.592.441,1.185.9,1.776,1.363.556-2.734,1.2-5.437,1.887-8.122.157-.627.316-1.255.482-1.876.041-.12.062-.24.1-.36.164-.581.327-1.142.49-1.723.165-.635.363-1.27.558-1.9q.193-.654.395-1.306c.271-.906.547-1.8.845-2.7.281-.854.586-1.7.884-2.55.243-.705.484-1.409.738-2.107.278-.795.553-1.575.85-2.355.1-.26.2-.521.307-.761.265-.7.544-1.383.825-2.069s.549-1.353.83-2.026c.326-.794.648-1.589,1-2.376.408-.941.817-1.883,1.246-2.825.079-.171.165-.338.243-.51.041-.086.083-.17.125-.256.494-1.06.986-2.112,1.511-3.16.471-.959.959-1.915,1.448-2.86,1.017-1.967,2.085-3.9,3.179-5.826.21-.369.4-.748.612-1.114,1.322-2.277,2.7-4.516,4.13-6.722,1.234-1.931,2.529-3.841,3.866-5.734.715-1,1.451-2,2.186-3,.578-.793,1.189-1.581,1.8-2.363.3-.394.607-.785.916-1.176.6-.769,1.19-1.533,1.819-2.292.735-.921,1.512-1.843,2.287-2.764.062-.08.123-.141.184-.22.756-.881,1.532-1.763,2.309-2.645.766-.865,1.552-1.71,2.339-2.556l.331-.354c.778-.839,1.559-1.678,2.376-2.5.844-.868,1.689-1.714,2.551-2.562.045-.044.09-.085.133-.131.851-.847,1.717-1.662,2.586-2.476.9-.839,1.8-1.681,2.712-2.5q2.782-2.5,5.674-4.874c.943-.766,1.885-1.534,2.848-2.281s1.96-1.523,2.941-2.264c1.021-.781,2.063-1.522,3.1-2.284.94-.68,1.9-1.342,2.859-2,.057-.04.119-.078.176-.118l.441-.292c.8-.556,1.616-1.1,2.447-1.634.879-.58,1.756-1.142,2.656-1.7.189-.125.389-.235.583-.355.408-.254.823-.5,1.233-.752l.123-.073c.8-.5,1.615-.982,2.431-1.463.817-.5,1.654-.961,2.492-1.442.222-.125.45-.245.676-.366.2-.111.394-.214.592-.323.449-.246.9-.5,1.346-.733.715-.4,1.43-.783,2.165-1.142.163-.08.307-.179.47-.24.49-.281,1-.541,1.511-.781.127-.072.27-.128.4-.2.2-.1.384-.209.58-.3l.368-.181c.567-.282,1.151-.547,1.728-.821q4.363-2.086,8.862-3.929c.208-.085.414-.178.623-.258.039-.013.078-.028.116-.044.75-.3,1.5-.6,2.252-.9.035-.014.074-.028.1-.042.618-.239,1.246-.469,1.874-.7.559-.21,1.114-.428,1.676-.631l.025-.01q2.052-.751,4.166-1.442c.037-.008.078-.022.12-.036q5.383-1.779,10.932-3.193c.963-.251,1.923-.505,2.9-.737.307-.081.634-.14.96-.221.879-.2,1.757-.4,2.656-.58.047-.013.1-.02.143-.031q1.073-.232,2.149-.448c.067-.015.133-.031.2-.043l.2-.034q2.68-.533,5.395-.977c.784-.129,1.566-.27,2.355-.392l.545-.076c.15-.022.3-.041.457-.062.292-.042.581-.084.876-.122.859-.121,1.737-.241,2.615-.341.053-.007.111-.012.164-.02a172.262,172.262,0,0,1,20.936-1.282c1.409,0,2.838.021,4.248.06.162,0,.321.012.482.014.486.014.972.028,1.458.046.225.008.447.01.674.02s.449.02.674.02c.225.02.47.02.695.041.428.019.858.04,1.266.059.143,0,.267.019.409.019.356.029.705.045,1.058.066h0c.4.024.8.052,1.187.075a.717.717,0,0,0,.2.02.712.712,0,0,1,.2.02c.408.021.837.061,1.246.1.569.041,1.14.094,1.712.146.988.09,1.971.2,2.953.3,1.087.116,2.177.22,3.26.355,1.1.141,2.206.3,3.309.461l1.532.239h.019l.8.127c.236.039.476.067.712.113.184.02.348.06.531.08.1.02.225.04.327.061h.041q1.255.227,2.514.47c.7.132,1.4.271,2.1.413.431.086.862.168,1.287.259.878.18,1.736.36,2.594.541,1.206.281,2.411.561,3.6.862.216.052.433.114.648.17.727.183,1.447.373,2.17.563.366.1.742.187,1.1.289.835.224,1.687.465,2.525.707.073.022.151.042.225.064.664.2,1.325.4,1.989.591.729.224,1.469.463,2.2.7.415.135.829.265,1.242.4.288.09.578.178.866.283.335.111.661.24,1,.354q2.109.717,4.191,1.49c.279.1.56.192.838.3.614.227,1.217.467,1.825.708q.576.224,1.152.455c.615.243,1.228.494,1.843.741.531.218,1.068.455,1.6.683.4.168.8.335,1.192.507.2.087.4.165.593.253,1.021.441,2.043.9,3.043,1.383l.018.007q.733.34,1.463.688l.011.006c.51.22,1,.461,1.49.721.254.118.5.25.751.37.648.321,1.3.634,1.941.96s1.3.657,1.925.994c.335.174.665.366,1,.543q1.167.623,2.319,1.262c.084.047.172.09.255.138.327.18.674.361,1,.562H2144c.183.1.388.22.571.34.486.258.933.537,1.4.8.227.132.447.268.674.4l.744.444c.02.02.041.02.061.04.061.04.142.08.2.121.756.44,1.491.881,2.226,1.341a.321.321,0,0,0,.086.066q.527.327,1.052.661c.1.065.208.131.313.194.776.481,1.552.982,2.307,1.5.266.16.532.34.776.5l.228.153c.1.067.207.138.311.208.08.052.163.109.239.16.538.358,1.054.737,1.583,1.1q2.537,1.757,5,3.6c.437.326.878.639,1.317.972.164.124.319.256.481.38q5.037,3.87,9.752,8.111c.481.432.974.85,1.45,1.284q1.653,1.517,3.255,3.087c.274.265.545.529.815.8,1.073,1.053,2.145,2.12,3.18,3.189,1.164,1.222,2.328,2.465,3.473,3.707q3.431,3.757,6.575,7.713c.532.673,1.052,1.362,1.581,2.04,2.578,3.321,5.045,6.729,7.366,10.241,1.492,2.2,2.88,4.447,4.229,6.731.674,1.142,1.347,2.284,1.981,3.446.653,1.161,1.307,2.323,1.92,3.505.612,1.163,1.225,2.344,1.816,3.546.43.841.858,1.7,1.267,2.564.287.621.593,1.242.879,1.863.143.341.306.681.449,1.022.409.842.776,1.7,1.144,2.565,0,.019.02.04.02.059.45,1.022.878,2.064,1.308,3.105l1.348,3.427a.145.145,0,0,1,.021.08c.387.981.734,1.964,1.082,2.945.078.212.147.426.225.641.044.128.09.255.135.386.118.339.243.677.355,1.016.123.321.225.641.326.962,0,.019.021.059.021.08.1.3.2.6.307.9.042.14.082.28.143.441.041.161.1.321.143.461.368,1.1.714,2.2,1.042,3.325.021.069.032.132.049.194.071.237.128.477.2.714.33,1.094.641,2.186.94,3.3.347,1.3.674,2.6,1,3.924l0,.013c.653,2.639,1.223,5.283,1.713,7.963v.021q.306,1.533.551,3.065c.14.857.276,1.7.4,2.539.044.3.094.591.136.886.139.92.259,1.823.38,2.725q.152,1.2.306,2.4c.012.207.041.427.065.643.009.075.015.149.023.222.006.048.008.092.014.138.144,1.241.266,2.5.368,3.765.039.476.063.956.1,1.431.041.539.076,1.077.112,1.616.028.455.069.9.093,1.36.083,1.362.144,2.745.185,4.127a90.129,90.129,0,0,1,22.589-2.885,88.694,88.694,0,0,1,46.343,12.981A88.022,88.022,0,0,1,2375,1738.936c.879,0,1.736.02,2.595.04.592.019,1.2.04,1.8.08l.135.007c.408.021.815.043,1.221.07.264.015.527.021.789.042.653.04,1.286.1,1.94.161l1.164.12c.065.007.139.017.207.026.36.038.715.089,1.074.132.427.039.868.09,1.293.163.347.04.715.1,1.062.14.533.082,1.054.169,1.581.261,1.765.3,3.514.638,5.241,1.041q1.5.331,2.941.722l.245.06c.477.12.938.262,1.4.4.156.046.313.091.473.134.073.025.151.043.227.067.653.181,1.307.381,1.939.6.512.159,1,.321,1.492.48.239.086.471.168.707.25l.355.125c.189.069.385.135.572.205.632.22,1.246.461,1.858.7.551.2,1.083.421,1.614.641.075.032.149.067.225.1.2.08.389.17.582.253.688.291,1.379.575,2.053.892.674.3,1.348.62,2,.941.919.441,1.818.9,2.716,1.383.846.435,1.691.905,2.521,1.375q.128.075.257.148c.762.44,1.523.881,2.267,1.342a3.529,3.529,0,0,1,.449.28c.733.456,1.483.93,2.2,1.42.083.058.169.115.255.171.75.5,1.485,1,2.2,1.515.061.041.1.08.163.12.551.4,1.083.78,1.614,1.2a4.366,4.366,0,0,1,.367.281l.074.057c.234.18.468.358.7.541.124.1.252.188.37.285.49.38.98.781,1.471,1.181.633.5,1.246,1.043,1.858,1.563.137.12.268.244.4.367.2.178.4.363.6.543.223.2.452.4.675.613.592.522,1.144,1.061,1.715,1.6.45.421.9.862,1.328,1.3.056.055.109.116.164.172.1.1.189.2.286.3.428.437.858.874,1.266,1.333.573.6,1.145,1.222,1.675,1.842.265.3.53.581.8.9l.049.057c.032.038.067.076.1.116.114.126.227.25.34.388l.287.342c.489.6.98,1.181,1.449,1.8.368.461.735.922,1.063,1.382.1.13.19.257.288.384.16.211.318.422.476.634.083.114.173.229.257.345.04.04.061.1.1.14.062.1.143.18.2.28.082.121.184.241.266.381.307.421.592.842.9,1.283.511.741,1,1.483,1.491,2.243a89.559,89.559,0,0,1,66.911-3.586c.244-1.082.49-2.184.756-3.245a4.64,4.64,0,0,1,.144-.581c.265-1.081.551-2.144.857-3.206v-.02c.306-1.022.592-2.024.919-3.045q.613-1.924,1.286-3.847c.389-1.061.776-2.083,1.185-3.125l.123-.3.062-.181c.359-.884.723-1.747,1.1-2.612.086-.207.175-.413.263-.617.388-.9.791-1.794,1.213-2.681.123-.279.266-.58.387-.861.43-.881.858-1.763,1.308-2.625a.325.325,0,0,1,.061-.119c.4-.772.809-1.521,1.22-2.277.947-1.75,1.934-3.479,2.971-5.171.046-.075.09-.147.14-.226.531-.882,1.082-1.742,1.634-2.584l.109-.162c.346-.525.7-1.037,1.058-1.556.375-.55.739-1.108,1.119-1.647l.113-.146c.083-.12.165-.24.251-.358.01-.01.015-.026.025-.036.19-.275.4-.537.6-.807.684-.938,1.377-1.867,2.088-2.781.053-.066.1-.136.15-.2.526-.687,1.075-1.359,1.63-2.029.429-.524.866-1.042,1.3-1.558.023-.027.042-.055.067-.081l.049-.055q1.3-1.525,2.647-3l.062-.069c.612-.68,1.225-1.341,1.858-2,.593-.62,1.206-1.221,1.818-1.823.551-.56,1.1-1.1,1.675-1.642.085-.084.177-.162.264-.247.193-.184.392-.366.588-.551l.026-.024.879-.8c.571-.521,1.164-1.062,1.755-1.583.237-.208.478-.412.719-.617.291-.25.579-.5.87-.745l.208-.18,1.838-1.5c.213-.172.435-.333.649-.5.822-.649,1.646-1.291,2.486-1.919.208-.158.413-.326.623-.482.634-.482,1.287-.941,1.941-1.4.088-.064.184-.127.271-.189q.564-.4,1.134-.787c.188-.128.363-.257.556-.387.878-.594,1.789-1.172,2.7-1.753.554-.353,1.106-.7,1.668-1.047.748-.453,1.5-.907,2.253-1.346a1.765,1.765,0,0,1,.246-.161,2.068,2.068,0,0,0,.286-.159c.242-.139.488-.268.731-.4.525-.3,1.053-.583,1.583-.872.114-.06.225-.129.341-.188.163-.1.347-.2.531-.3.673-.36,1.348-.7,2.021-1.042.167-.084.33-.16.492-.243.459-.23.917-.46,1.382-.684.037-.015.071-.038.107-.054a.55.55,0,0,1,.143-.08c.144-.081.287-.141.45-.22,1.009-.482,2.04-.934,3.07-1.387.325-.143.644-.3.973-.44,1.524-.655,3.063-1.286,4.618-1.879l.549-.2.061-.025c.292-.1.581-.212.88-.317.612-.22,1.2-.441,1.818-.642.755-.28,1.531-.541,2.309-.781.094-.03.2-.056.291-.086.483-.154.977-.282,1.461-.43.933-.283,1.859-.579,2.8-.825.273-.077.544-.147.817-.223.337-.09.672-.185,1.011-.272.1-.029.21-.06.317-.087.817-.2,1.654-.4,2.471-.6.62-.144,1.241-.271,1.86-.406.358-.075.714-.159,1.07-.232l.195-.042c.675-.14,1.349-.28,2.022-.4.51-.1,1.021-.18,1.531-.261.4-.069.809-.132,1.216-.2.268-.043.535-.09.8-.132a.556.556,0,0,0,.063-.01c1-.14,1.981-.3,2.982-.42.816-.1,1.652-.2,2.485-.284l.165-.019c.111-.011.22-.027.332-.037.879-.08,1.757-.161,2.615-.221q1.347-.12,2.7-.181h.061c.29-.016.583-.024.875-.036.811-.042,1.625-.089,2.435-.1,1.022-.019,2.042-.04,3.063-.04a115.561,115.561,0,0,1,56.167,14.465c.266-.761.531-1.5.818-2.263s.571-1.5.857-2.244c.971-2.549,2.019-5.042,3.134-7.508.131-.3.255-.594.385-.888a.087.087,0,0,0,.016-.039q.826-1.833,1.714-3.667c.614-1.281,1.247-2.564,1.9-3.826.041-.06.061-.141.1-.2.653-1.262,1.328-2.5,2-3.747.637-1.142,1.276-2.261,1.928-3.371.154-.268.311-.533.468-.8,1.072-1.831,2.18-3.647,3.364-5.425.116-.191.249-.377.367-.565.34-.526.677-1.058,1.025-1.58l.037-.06q.642-.992,1.347-1.982.552-.871,1.226-1.742c.446-.654.913-1.306,1.407-1.962.348-.474.69-.951,1.043-1.424.035-.048.066-.092.1-.141.327-.441.653-.9,1-1.343a.381.381,0,0,0,.082-.1c.1-.121.184-.261.286-.382.388-.5.755-.981,1.144-1.482.467-.584.962-1.154,1.434-1.737q.906-1.121,1.832-2.221c.42-.5.819-1.018,1.247-1.511s.879-1,1.309-1.5c.612-.685,1.217-1.365,1.837-2.036.27-.3.543-.59.814-.886.618-.673,1.239-1.343,1.882-2.006.347-.4.735-.781,1.1-1.163.858-.881,1.737-1.762,2.615-2.624q1.41-1.412,2.88-2.765c.858-.8,1.736-1.6,2.614-2.4.106-.094.211-.184.318-.279l0,0c.687-.6,1.361-1.211,2.067-1.8.776-.682,1.573-1.362,2.368-2a.211.211,0,0,1,.1-.08c.247-.215.509-.413.759-.622.412-.339.819-.679,1.23-1.014.1-.072.184-.153.278-.226l.021-.021c1.042-.841,2.083-1.642,3.146-2.444.644-.512,1.3-1,1.963-1.483.163-.122.32-.253.485-.373.027-.02.054-.045.084-.068,1.042-.762,2.083-1.5,3.146-2.244.935-.649,1.851-1.278,2.783-1.892.263-.175.524-.358.79-.532.088-.058.172-.122.266-.18s.184-.12.266-.18c1.388-.922,2.824-1.785,4.254-2.656.779-.475,1.548-.965,2.335-1.431q1.433-.861,2.887-1.684c1.148-.64,2.278-1.261,3.426-1.882.076-.039.149-.08.223-.12,1.126-.6,2.272-1.181,3.418-1.783a.079.079,0,0,1,.062-.019q3.614-1.835,7.312-3.467c1.215-.526,2.428-1.053,3.644-1.562l.211-.088c1.145-.483,2.291-.95,3.458-1.393.224-.081.428-.161.612-.242,1.006-.37,2.014-.75,3.021-1.112l.927-.33c1.115-.4,2.23-.8,3.344-1.162,2.594-.882,5.228-1.683,7.884-2.4,1.242-.356,2.484-.676,3.728-.993l.464-.119c1.158-.3,2.332-.569,3.488-.852l.551-.12c1.164-.26,2.328-.5,3.492-.741.056-.011.106-.023.161-.032l.438-.088c.1-.021.2-.04.3-.06,1.021-.2,2.042-.4,3.064-.582l1.022-.18c1.1-.184,2.225-.365,3.333-.534.234-.035.47-.068.705-.1.983-.15,1.958-.281,2.945-.406.716-.1,1.43-.2,2.146-.26a1.084,1.084,0,0,1,.245-.04c.123-.019.226-.019.347-.04s.225-.019.347-.04c.1-.021.225-.021.327-.04.164-.021.346-.04.511-.06a3.651,3.651,0,0,1,.47-.04c.143-.014.29-.031.437-.044l.406-.042c.114-.013.229-.022.34-.034.715-.061,1.451-.12,2.167-.18a1.935,1.935,0,0,1,.346-.04c.675-.061,1.329-.121,2-.141a5.373,5.373,0,0,1,.592-.041c.062,0,.124-.02.185-.02.611-.059,1.245-.08,1.879-.119h.191c.3-.017.6-.039.893-.053.041,0,.08-.008.12-.008,1.022-.06,2.063-.1,3.105-.119.305-.021.613-.021.918-.021,1.409-.04,2.8-.06,4.208-.06,1.47,0,2.921.02,4.371.06.357,0,.707.022,1.054.046.739.022,1.479.043,2.216.078.824.026,1.653.066,2.469.116.735.04,1.451.08,2.186.14.082,0,.184.02.267.02.14.008.27.027.41.034.461.036.921.078,1.38.116.038.006.072.006.109.011l.674.06c1.144.08,2.267.2,3.411.32.082,0,.163.021.245.021.164.02.306.04.469.06.133.014.264.031.4.047.326.038.651.08.978.118l.278.035c.612.06,1.226.14,1.839.22.183.021.386.06.572.08.8.1,1.572.221,2.348.341.226.034.452.073.677.108.182.027.365.058.547.087.388.061.778.117,1.166.185.8.12,1.573.26,2.349.4.837.153,1.676.308,2.515.479l.275.054q1.513.289,3.03.63c.918.2,1.839.4,2.758.621l.113.028c.355.083.707.175,1.06.261l.053.012c.062.02.122.02.184.041,1.777.42,3.533.881,5.29,1.362,1.021.3,2.063.581,3.084.9.817.24,1.634.481,2.451.741.2.06.409.12.633.2,1.287.42,2.573.841,3.86,1.282.081.02.163.059.245.08.906.323,1.814.657,2.721,1,.6.22,1.188.444,1.783.669.947.351,1.895.7,2.83,1.079,1.21.487,2.422.994,3.614,1.5l.2.085c.929.407,1.855.813,2.764,1.219.654.281,1.288.581,1.92.882.624.283,1.245.587,1.865.894.494.236.985.479,1.475.721q1.378.679,2.747,1.37l.245.12q1.39.734,2.764,1.483c.387.21.774.425,1.162.636,1.837,1.016,3.66,2.064,5.457,3.158q.813.489,1.619.987c.863.524,1.723,1.056,2.561,1.609,1,.641,2,1.3,3,1.963.07.047.137.1.207.145.136.093.268.188.4.28,1.061.723,2.124,1.444,3.167,2.2.956.69,1.913,1.4,2.87,2.105l.244.184c1.005.755,2.029,1.526,3.012,2.318,1.042.8,2.064,1.623,3.084,2.464v.02c.837.681,1.655,1.382,2.472,2.083q.91.781,1.8,1.577.624.547,1.24,1.1c.694.615,1.388,1.238,2.083,1.886.514.475,1.013.955,1.511,1.438q.523.5,1.038,1c.605.581,1.21,1.157,1.8,1.751.616.617,1.214,1.24,1.814,1.865.226.235.457.468.682.7l.038.037c.428.46.876.921,1.306,1.381.45.461.878.942,1.308,1.423.2.213.386.439.581.655q.858.943,1.7,1.9c.091.1.186.2.275.308.714.8,1.41,1.6,2.084,2.423.169.2.32.4.484.592.4.479.791.959,1.181,1.439.03.038.062.075.09.113.111.136.215.279.326.414q3.906,4.854,7.444,9.991c.375.548.751,1.095,1.115,1.635s.711,1.078,1.063,1.617c.422.646.844,1.3,1.258,1.949.395.622.794,1.245,1.173,1.863.426.7.846,1.406,1.266,2.112q.4.675.8,1.356c.191.33.386.659.572,1,.49.842.959,1.683,1.429,2.544.112.2.213.4.323.6.273.507.547,1.012.816,1.521.027.054.061.108.086.163.346.661.694,1.322,1.041,2,.309.588.6,1.18.875,1.768.279.562.56,1.119.83,1.682.335.659.653,1.321.95,2,.367.8.757,1.624,1.1,2.444.049.107.09.213.136.319.2.442.389.887.578,1.332.106.252.224.5.327.753.531,1.242,1.042,2.484,1.552,3.746.1.251.188.5.286.75l.033.088c.216.563.437,1.126.641,1.687.225.6.45,1.221.675,1.823.253.713.5,1.416.745,2.125.592,1.715,1.143,3.449,1.681,5.19.8,2.595,1.561,5.206,2.23,7.851,2.838-.221,5.7-.361,8.6-.361a106.706,106.706,0,0,1,55.8,15.625q.869-1.669,1.8-3.3c.034-.059.064-.121.1-.182.451-.781.879-1.542,1.349-2.283l.028-.047c.213-.351.432-.7.647-1.045l.018-.031q.491-.782.981-1.562c.136-.21.275-.422.412-.632l.05-.076.518-.795c.021-.021.041-.021.041-.04.183-.281.388-.582.592-.862.087-.126.178-.25.266-.378q.438-.635.885-1.262c.052-.072.1-.151.157-.223.152-.216.313-.418.467-.628q1.045-1.427,2.138-2.819c.093-.117.178-.242.273-.359.02-.039.062-.08.083-.12a4.308,4.308,0,0,0,.265-.341,2.15,2.15,0,0,1,.183-.22c.1-.116.191-.228.286-.347s.217-.258.326-.389c.12-.147.247-.3.37-.446.1-.14.224-.26.326-.4.284-.345.583-.681.878-1.02.526-.613,1.065-1.214,1.6-1.815.305-.336.6-.676.909-1.011.039-.042.077-.08.119-.122q2.681-2.891,5.587-5.576l.033-.031c.071-.067.148-.129.216-.2.73-.67,1.465-1.335,2.212-1.987h0l.019-.017q1.209-1.051,2.449-2.068a.468.468,0,0,1,.066-.058c1.532-1.26,3.114-2.464,4.722-3.622a106.068,106.068,0,0,1,27.362-14.318l.022-.01c.022,0,.042-.02.063-.02l.054-.018a106.5,106.5,0,0,1,14.957-4.012c.08-.02.16-.038.247-.056.047-.012.1-.014.148-.022.355-.068.71-.139,1.065-.2.1-.02.2-.04.3-.057s.184-.021.266-.04h.039q2.723-.469,5.5-.8c.265-.033.527-.073.8-.105.023,0,.054,0,.081-.006,2.222-.245,4.469-.414,6.73-.522.085,0,.169-.01.255-.013l.05,0c.237-.012.471-.027.706-.036l.02,0h.024c.231-.009.463-.009.694-.016.529-.022,1.054-.045,1.59-.045.469-.019.918-.019,1.388-.019.021-.321.021-.661.021-.982,0-1.222-.021-2.425-.042-3.627v-.04l.062-.015q.181-15.6,1.871-30.816,1.121-10.145,2.886-20.093.88-4.975,1.92-9.891,2.075-9.835,4.763-19.441t5.964-18.954a311.636,311.636,0,0,1,24.671-53.526q7.411-12.769,15.976-24.776a319.006,319.006,0,0,1,24.718-30.5" transform="translate(-1620.667 -1182.438)" fill="#4d0877"/>
</svg>
