<svg xmlns="http://www.w3.org/2000/svg" xmlns:xlink="http://www.w3.org/1999/xlink" width="255.892" height="148.909" viewBox="0 0 255.892 148.909">
  <defs>
    <linearGradient id="linear-gradient" y1="0.5" x2="1" y2="0.5" gradientUnits="objectBoundingBox">
      <stop offset="0" stop-color="#ffd03f"/>
      <stop offset="0.2" stop-color="#fcc939"/>
      <stop offset="0.46" stop-color="#f5b82a"/>
      <stop offset="0.77" stop-color="#ea9c12"/>
      <stop offset="0.9" stop-color="#e58e06"/>
      <stop offset="1" stop-color="#df8800"/>
    </linearGradient>
  </defs>
  <path id="Path_31687" data-name="Path 31687" d="M257.906,189.544a19.391,19.391,0,0,1-6.654,1.571,7.183,7.183,0,0,1-1.479-.185,17.618,17.618,0,0,0-2.957-.277c-4.344,0-7.486,2.218-10.905,5.545-7.763,7.393-16.45,10.813-25.877,10.813a50.49,50.49,0,0,1-17.1-3.327c-9.889,16.358-25.877,24.675-42.049,24.675s-31.791-8.04-41.957-24.583c-3.142,1.109-6.284,2.5-9.611,3.327a44.5,44.5,0,0,1-10.813,1.386c-9.426,0-18.114-3.235-26.154-9.519a12.486,12.486,0,0,0-7.208-2.773H54.5a22.957,22.957,0,0,1-3.512.185c-15.526,0-28.187-10.166-29.943-25.045-2.033-17,9.426-30.775,27.17-32.623,1.017-.092,2.033-.277,3.05-.37,3.6-19.407,11.367-29.019,23.289-29.019,6.192,0,13.493,2.588,21.9,7.671,8.687-15.711,21.348-26.616,38.907-31.422a60.867,60.867,0,0,1,62.474,19.5,57.59,57.59,0,0,1,10.073,17.1c1.756,4.436,4.344,5.453,8.5,6.931a75.466,75.466,0,0,1,21.071,11.552c3.7,2.865,6.469,4.9,11.182,4.9H250.7c10.905,0,19.777,8.04,21.625,18.761a2.56,2.56,0,0,1,.092.832A22.525,22.525,0,0,1,257.906,189.544Z" transform="translate(-18.788 -81.45)" stroke="#fff" stroke-width="4" fill="url(#linear-gradient)"/>
</svg>
