<svg xmlns="http://www.w3.org/2000/svg" xmlns:xlink="http://www.w3.org/1999/xlink" width="336.963" height="193.88" viewBox="0 0 336.963 193.88">
  <defs>
    <linearGradient id="linear-gradient" y1="0.5" x2="1" y2="0.5" gradientUnits="objectBoundingBox">
      <stop offset="0" stop-color="#ffd03f"/>
      <stop offset="0.2" stop-color="#fcc939"/>
      <stop offset="0.46" stop-color="#f5b82a"/>
      <stop offset="0.77" stop-color="#ea9c12"/>
      <stop offset="0.9" stop-color="#e58e06"/>
      <stop offset="1" stop-color="#df8800"/>
    </linearGradient>
  </defs>
  <path id="Path_14" data-name="Path 14" d="M338.031,225.4a25.945,25.945,0,0,1-8.9,2.1,9.609,9.609,0,0,1-1.978-.247,23.574,23.574,0,0,0-3.957-.371c-5.811,0-10.016,2.968-14.59,7.419-10.386,9.892-22.009,14.467-34.621,14.467a67.553,67.553,0,0,1-22.875-4.451c-13.23,21.886-34.621,33.014-56.26,33.014s-42.535-10.757-56.136-32.89c-4.2,1.484-8.408,3.339-12.859,4.451a59.538,59.538,0,0,1-14.467,1.855c-12.612,0-24.235-4.328-34.992-12.736a16.7,16.7,0,0,0-9.645-3.709h-.866a30.718,30.718,0,0,1-4.7.247c-20.773,0-37.713-13.6-40.062-33.509-2.72-22.751,12.612-41.175,36.353-43.648,1.36-.124,2.72-.371,4.08-.495,4.822-25.966,15.209-38.826,31.159-38.826,8.284,0,18.053,3.462,29.3,10.263,11.623-21.02,28.563-35.611,52.056-42.04a81.437,81.437,0,0,1,83.586,26.09,77.053,77.053,0,0,1,13.478,22.875c2.349,5.935,5.811,7.3,11.376,9.274a100.97,100.97,0,0,1,28.192,15.456c4.946,3.833,8.655,6.553,14.961,6.553h2.72c14.591,0,26.461,10.757,28.934,25.1a3.425,3.425,0,0,1,.124,1.113A30.137,30.137,0,0,1,338.031,225.4Z" transform="translate(-20.81 -83.45)" fill="url(#linear-gradient)"/>
</svg>
