<svg xmlns="http://www.w3.org/2000/svg" width="12.332" height="12.332" viewBox="0 0 12.332 12.332">
  <path id="phone-call_6_" data-name="phone-call (6)" d="M1.4,9.879c.034-.027,2.481-1.791,3.152-1.664.321.057.5.275.872.713.059.071.2.24.312.36a5.145,5.145,0,0,0,.679-.276,5.631,5.631,0,0,0,2.6-2.6,5.121,5.121,0,0,0,.276-.679c-.121-.111-.29-.253-.363-.314-.436-.366-.655-.549-.712-.871C8.1,3.885,9.858,1.421,9.877,1.4a.941.941,0,0,1,.7-.4c.714,0,2.754,2.646,2.754,3.092,0,.026-.037,2.658-3.283,5.96-3.3,3.242-5.931,3.28-5.957,3.28C3.646,13.332,1,11.292,1,10.577a.938.938,0,0,1,.4-.7Z" transform="translate(-1 -1)" fill="#401460"/>
</svg>
