<svg xmlns="http://www.w3.org/2000/svg" xmlns:xlink="http://www.w3.org/1999/xlink" width="23.717" height="26.538" viewBox="0 0 23.717 26.538">
  <defs>
    <linearGradient id="linear-gradient" x1="0.181" y1="0.899" x2="0.905" y2="0.171" gradientUnits="objectBoundingBox">
      <stop offset="0" stop-color="#ffd03f"/>
      <stop offset="0.2" stop-color="#fcc939"/>
      <stop offset="0.46" stop-color="#f5b82a"/>
      <stop offset="0.77" stop-color="#ea9c12"/>
      <stop offset="0.9" stop-color="#e58e06"/>
      <stop offset="1" stop-color="#df8800"/>
    </linearGradient>
  </defs>
  <path id="reliability" d="M52.245,16l10.73,4.6v8.677a12.585,12.585,0,0,1-.562,3.752,5.312,5.312,0,0,0-1.451-.249,10.947,10.947,0,0,0,.573-3.5V21.84a.442.442,0,0,0-.3-.418l-8.82-3.78a.44.44,0,0,0-.346,0l-8.848,3.792a.441.441,0,0,0-.269.406h0v7.435a10.965,10.965,0,0,0,2.609,7.1,11.153,11.153,0,0,0,6.607,3.781.44.44,0,0,0,.162,0,11.185,11.185,0,0,0,3.224-1.09A5.284,5.284,0,0,0,56,40.419a13.879,13.879,0,0,1-3.755,1.217,12.51,12.51,0,0,1-10.73-12.36V20.6Zm8.547,17.66A4.439,4.439,0,1,0,65.232,38.1,4.439,4.439,0,0,0,60.793,33.66Zm2.47,3.507c-1.17,1.182-1.523,1.55-2.7,2.726a.613.613,0,0,1-.867,0l-1.373-1.373a.613.613,0,0,1,.867-.867l.938.938L62.4,36.305a.611.611,0,1,1,.867.862ZM52.245,18.528l-8.406,3.6v7.145a10.084,10.084,0,0,0,2.4,6.534,10.266,10.266,0,0,0,6.008,3.467,10.288,10.288,0,0,0,3.224-1.164s0-.009,0-.013A5.325,5.325,0,0,1,60,32.834a10.07,10.07,0,0,0,.646-3.558V22.131Zm-5.412,14.65v-6.6h1.66v6.6h-1.66Zm11.1-3.113h-.67a.955.955,0,1,1,0,1.911h-.57a.955.955,0,0,1,0,1.911H54.6c-2.4.415-3.783.667-5.219-.708v-6.6c1.173-.881,2.669-1.635,2.669-3.3v-2a2.411,2.411,0,0,1,2.4,2.4v1.555a2.2,2.2,0,0,1-.48,1.016h3.56a.955.955,0,0,1,0,1.911h.4a.955.955,0,1,1,0,1.911Z" transform="translate(-41.515 -16)" fill-rule="evenodd" fill="url(#linear-gradient)"/>
</svg>
