<svg xmlns="http://www.w3.org/2000/svg" xmlns:xlink="http://www.w3.org/1999/xlink" width="24.001" height="23.999" viewBox="0 0 24.001 23.999">
  <defs>
    <linearGradient id="linear-gradient" y1="1" x2="1" gradientUnits="objectBoundingBox">
      <stop offset="0" stop-color="#ffd03f"/>
      <stop offset="0.2" stop-color="#fcc939"/>
      <stop offset="0.46" stop-color="#f5b82a"/>
      <stop offset="0.77" stop-color="#ea9c12"/>
      <stop offset="0.9" stop-color="#e58e06"/>
      <stop offset="1" stop-color="#df8800"/>
    </linearGradient>
  </defs>
  <g id="rocket" transform="translate(0 -0.001)">
    <path id="Union_4" data-name="Union 4" d="M-1029.854-1961.147a.5.5,0,0,1-.125-.5c.164-.547,1.633-5.381,2.7-6.451a3.1,3.1,0,0,1,4.371,0,3.094,3.094,0,0,1,0,4.37c-1.07,1.07-5.9,2.54-6.451,2.7a.529.529,0,0,1-.144.021A.5.5,0,0,1-1029.854-1961.147Zm13.487-1.15a.5.5,0,0,1-.354-.386l-.552-3.854-.534.476a.5.5,0,0,1-.333.127.5.5,0,0,1-.354-.146l-6.427-6.427a.5.5,0,0,1-.02-.688l.476-.533-3.855-.552a.5.5,0,0,1-.4-.339.5.5,0,0,1,.123-.512,12.694,12.694,0,0,1,8.7-3.7,18.582,18.582,0,0,1,13.41-6.164.5.5,0,0,1,.489.488,18.494,18.494,0,0,1-6.163,13.409,12.664,12.664,0,0,1-3.671,8.664.564.564,0,0,1-.387.16A.453.453,0,0,1-1016.367-1962.3Zm1.732-17.6a2.5,2.5,0,0,0,0,3.536,2.492,2.492,0,0,0,1.768.731,2.5,2.5,0,0,0,1.768-.731,2.5,2.5,0,0,0,0-3.536,2.494,2.494,0,0,0-1.768-.731A2.492,2.492,0,0,0-1014.636-1979.9Z" transform="translate(1030 1985)" fill="url(#linear-gradient)"/>
  </g>
</svg>
