<svg xmlns="http://www.w3.org/2000/svg" width="1600" height="597.417" viewBox="0 0 1600 597.417">
  <g id="Group_5783" data-name="Group 5783" transform="translate(0 -91.831)">
    <g id="Group_5831" data-name="Group 5831" transform="translate(0 91.831)">
      <path id="Path_31494" data-name="Path 31494" d="M1600,688.938V91.831a88.691,88.691,0,0,0-20.98,117.033c-32.11,7.5-57.238,32.767-64.007,64.73a86.236,86.236,0,0,0-66.639-6.385,104.925,104.925,0,0,0-25.587,9.406c-16.368-33.622-53.571-57.114-96.875-57.114-58.419,0-105.775,42.733-105.775,95.448a86.819,86.819,0,0,0,4.5,27.577,129.872,129.872,0,0,0-61.693,22.371A142.412,142.412,0,0,0,982.766,296.15c-9.5-39.46-45.457-68.819-88.386-68.819-50.187,0-90.87,40.113-90.87,89.6l.025.942a144.141,144.141,0,0,0-16.224-.942c-59.525,0-110.41,36.319-131.2,87.694a108.014,108.014,0,0,0-103.82,4.509,141.328,141.328,0,0,0-112.681-73.411l.015-.541c0-53.66-44.116-97.155-98.533-97.155a99.275,99.275,0,0,0-41.026,8.825c-14.217-62.1-70.471-108.5-137.749-108.5a142.437,142.437,0,0,0-57.348,12c.569-5.086-44.545-48.777-76.269-34.822C16.6,120.845,7.754,124.44,1.771,131.808c-.05.059-.517.672-.517.672L0,688.938Z" transform="translate(0 -91.831)" fill="#4d0877"/>
      <path id="Path_31495" data-name="Path 31495" d="M1600,736.154V157.763c-60.881,15.469-105.852,69.894-105.852,134.66a137.6,137.6,0,0,0,.889,15.461,142.623,142.623,0,0,0-57.349-11.98c-67.279,0-123.532,46.323-137.75,108.331a99.391,99.391,0,0,0-41.024-8.812c-54.421,0-98.534,43.429-98.534,97.007l.015.541a141.334,141.334,0,0,0-112.68,73.3,108.156,108.156,0,0,0-103.819-4.5c-20.8-51.3-71.684-87.561-131.205-87.561a144.4,144.4,0,0,0-16.225.941l.027-.941c0-49.409-40.684-89.46-90.871-89.46-42.929,0-78.883,29.316-88.39,68.715a142.529,142.529,0,0,0-180.176,68.643,129.99,129.99,0,0,0-61.692-22.338,86.54,86.54,0,0,0,4.5-27.535c0-52.634-47.357-95.3-105.779-95.3-43.3,0-80.508,23.456-96.872,57.027a105.088,105.088,0,0,0-25.588-9.392,86.356,86.356,0,0,0-66.639,6.376c-6.768-31.914-31.9-57.139-64.008-64.632a88.025,88.025,0,0,0,13.418-46.8A88.773,88.773,0,0,0,0,249.454v486.7Z" transform="translate(0 -138.737)" fill="#401460"/>
    </g>
  </g>
</svg>
