<svg xmlns="http://www.w3.org/2000/svg" width="1600" height="390"><defs><clipPath id="a"><path fill="#fff" d="M-173.5.2h1600v390h-1600z" data-name="Rectangle 25037"/></clipPath></defs><g clip-path="url(#a)" data-name="Mask Group 4" transform="translate(173.5 -.2)"><g data-name="Group 899"><path fill="#070707" d="M-679.5 110.8A102.2 102.2 0 0 0-536.9 99a179.7 179.7 0 0 0-1.3 21.2 176.4 176.4 0 0 0 42.5 115 170 170 0 0 1-315.2 6.5v-72.9a104.7 104.7 0 0 0 131.4-57.9" data-name="Path 31464"/><path fill="#570087" d="M2807.4 309a67 67 0 0 1-43.2-15.5 67.5 67.5 0 0 1-73 20.4 67.1 67.1 0 0 1-49 21.3c-37.1 0-67.1-29.8-67.1-66.6a65.9 65.9 0 0 1 5.5-26.5 66.7 66.7 0 0 1-59.4-66.2 68 68 0 0 1 .3-6.8 106.6 106.6 0 0 1-68.3-37.7 56.3 56.3 0 0 1-51.8 33.8 57.1 57.1 0 0 1-10.5-1 67.2 67.2 0 0 1-122.3-22.7h-1.3a67 67 0 0 1-33.5-9 84.7 84.7 0 0 1-85 82.7 85 85 0 0 1-76-46.6 67.5 67.5 0 0 1-77-11.1 67.3 67.3 0 0 1-100.5 27.3 67 67 0 0 1-51.9 24.4h-2.4a66.2 66.2 0 0 1 2.4 17.8c0 36.8-30 66.6-67 66.6a67.2 67.2 0 0 1-40.2-13.3c-5.9 51.6-50 91.8-103.5 91.8a104.2 104.2 0 0 1-66.4-23.7 104.3 104.3 0 0 1-90.5 52.2 103.8 103.8 0 0 1-104.2-103.4 102.7 102.7 0 0 1 2.1-20.7 85 85 0 0 1-48.5-29 83.6 83.6 0 0 1-19.4-53.7v-2.2a84.6 84.6 0 0 1-28.7-12.5 85 85 0 0 1-76.7 48c-42.6 0-77.8-31.1-84-71.7a67.2 67.2 0 0 1-19 2.7 66.8 66.8 0 0 1-67-69.7 67.6 67.6 0 0 1-61.3-10.7 67.2 67.2 0 0 1-98.2 44.7A85.2 85.2 0 0 1 708.2 138a67.4 67.4 0 0 1-88.8-41 67.5 67.5 0 0 1-79.9-1.1 83.6 83.6 0 0 1 1.1 13.6c0 46.6-38 84.4-85 84.4a85 85 0 0 1-59.6-24.3 67 67 0 0 1-61.3 39.7 67.8 67.8 0 0 1-18.5-2.5 79.2 79.2 0 0 1-149.8 7.3 79.6 79.6 0 0 1-84-11.5 67 67 0 0 1-61.5 40c-37 0-67-29.8-67-66.6a65.3 65.3 0 0 1 .5-7.8 67.2 67.2 0 0 1-31.6 7.8c-25.4 0-82.1-36.3-93.5-56.9.8-7 36 8.3 36 1q0-4.8-.3-9.5l3.5.5.7.1a127 127 0 0 0 4.8.5h1.3a.6.6 0 0 0 .1 0l1.1.1h3.1A82.6 82.6 0 0 0-76 99l1.5 3.5 1 2.2.6 1.3 1.4 2.8.4.7.8 1.6.3.4a82 82 0 0 0 4.7 7.6l1.1 1.6 1.6 2.2a84.5 84.5 0 0 0 5.4 6.7l.1.1 1.2 1.3 1.3 1.4 1.3 1.4 1.3 1.3 1.4 1.3a132.7 132.7 0 0 0 4.2 3.8l1.5 1.2 1.4 1.2 2.5 1.9.5.4 1.6 1q1.4 1.1 2.9 2a102.8 102.8 0 0 0 9.2 5.5l4.5 2.2q3.8 1.7 7.7 3.2l1.5.5.2.1.5.2h.3l2.3.8.2.1q3.2 1 6.6 1.8l.7.2.3.1.8.2 1.5.3h.5c.4.2.9.3 1.3.3l1 .2.7.2H4l1 .1.7.2h.6l1.6.3h.8l.7.2h.5a2 2 0 0 0 .3 0l.9.2h.9l1 .2h1l1.4.1h.5l1.4.1h1l1 .1h7.2l4.7-.3 1.6-.2 1.3-.1 1.4-.2a107.1 107.1 0 0 0 6.4-1l1.5-.3h.3l.8-.2h.2l1.2-.3 1.5-.4.5-.1.7-.2h.3l3.1-.9h.3l.2-.1 1.1-.4c.4 0 .7-.2 1.1-.3l1.5-.5h.2a103.9 103.9 0 0 0 6.4-2.5h.1l.2-.1 2-.9.6-.3 1.4-.6.9-.4 1.4-.7 1.6-.8 1.2-.6.1-.1.6-.3.4-.2 2-1.1 3.7-2.3.4-.3 1.3-.9.8-.5a66.8 66.8 0 0 0 3-2l.9-.7.5-.4.4-.3.3-.2a35 35 0 0 0 3-2.5h.2l.1-.2 1.8-1.5 1.5-1.4 1-.9 1.3-1.2 1.2-1.2a87.6 87.6 0 0 0 2.3-2.4.8.8 0 0 0 .2-.1l1.2-1.4.7-.8h.1l1.2-1.4.9-1 .6-.8.3-.4.2-.2a60 60 0 0 0 2.5-3.3l.2-.2.3-.4.1-.2.6-.7.7-1 1.4-2.1a98.9 98.9 0 0 0 91.7-4.8l.7 1.3a30.4 30.4 0 0 0 .8 1.3 100.4 100.4 0 0 0 7.5 10.4l1.2 1.4.4.5 1.3 1.4v.1l1.6 1.7 1.2 1.3.3.4 1.5 1.4.6.6.5.5.8.7.4.4a2.2 2.2 0 0 0 .2.2l2.3 2.1 2.2 2 .9.6q2 1.7 4 3.1l.1.1a29.5 29.5 0 0 0 2.5 1.8l.4.2.7.5 1.6 1 .2.2 1.6 1 .3.2 1.7 1 1 .5 2 1.1.9.6 2 1 1.8.9 1.6.7.5.3h.3l.7.4 1.6.7 1 .4 1.3.5 1 .4 1.3.5h.1l.3.2h.3l.6.3.5.2a64.8 64.8 0 0 0 3.7 1.1l.2.1c0 .1.1 0 .2 0l1.7.6a2.2 2.2 0 0 0 .3 0 104.6 104.6 0 0 0 9.3 2.2l2.7.4 2.7.4 2.7.4 2.8.2 1.6.1h1.1a1 1 0 0 1 .2.1h2.4l.4.1h4.9a1.8 1.8 0 0 0 .3 0h.6a2.5 2.5 0 0 0 .3 0h2l.1-.1h1.3l.2-.1h1.2l1.1-.2h.1a.5.5 0 0 0 .1 0h.8l1-.2h.9l.5-.1.6-.1c.7 0 1.4-.2 2-.3a2.5 2.5 0 0 0 .4 0h.1l2-.4H311.3l1-.3h.3l.6-.1a183.5 183.5 0 0 0 10.7-2.7 67 67 0 0 0 5.6-1.9h.3l2-.9 2.8-1.1 2.7-1.2 1.4-.6a82.9 82.9 0 0 0 6.2-3.3l1-.5 1.4-1a78.2 78.2 0 0 0 5.4-3.4l1-.7 1-.7h.1l1.3-1 1.7-1.3a50.7 50.7 0 0 0 3-2.4l.6-.5 1-.9.6-.6 1.3-1.1 3-2.8 2.8-3 1.4-1.5 1.4-1.6 28.7 9a98.5 98.5 0 0 0 31.4 5h4A98.1 98.1 0 0 0 524.5 80l.5-1.3.5-1.4.5-1.5.7-2.1a75.2 75.2 0 0 0 1.1-3.8l.4-1.5.1-.5.3-1.2.1-.5.5-2.1c0-.6.2-1 .3-1.6v-.5l.2-1a65.8 65.8 0 0 0 .6-4l.2-2 .2-2.3a62.7 62.7 0 0 0 9.7.7 62 62 0 0 0 32.7-9.2l.6 1 .5 1.1a30.4 30.4 0 0 0 2.2 3.5l.3.5c0 .2.2.3.3.5l.6.8a57.3 57.3 0 0 0 6.4 7.6l.8.9a45.8 45.8 0 0 0 4 3.6l1 .8 1 .7a47 47 0 0 0 4.2 3l1.2.7.4.3 1.3.7a2 2 0 0 0 .2 0l1.4.8 3.1 1.6 1.6.6 1.6.7a1.5 1.5 0 0 0 .2 0l1.5.6a40.2 40.2 0 0 0 5 1.6h.2l1.6.4 1.8.4 1.4.2 1.6.3h.5l.3.1 1 .1h.4l1.3.2 1 .1h1.6l1.5.1a72.5 72.5 0 0 0 6.3-.1h.7l.6-.1h.8a1 1 0 0 0 .2-.1l2.3-.3h.2l1.1-.2 2-.4.6-.1.4-.1 1-.2 1.3-.4c.5 0 .9-.2 1.3-.3l.5-.2h.2l1.4-.5 1.6-.5.3-.1.5-.2 1.1-.4h.1l.6-.3 1.2-.5 1.6-.7.6-.3 1.3-.7a1 1 0 0 0 .2 0 62.4 62.4 0 0 0 6.4-3.8l.5-.4h.1l1.2-1 .4-.2.4-.3.3-.2 1-.9a94.9 94.9 0 0 0 1.5 6v.2l.3 1a34.2 34.2 0 0 0 1 3.5l.6 1.5.4 1.3.5 1.4.2.4.5 1.3.5 1.2.6 1.4.7 1.6.1.3.1.2a74.4 74.4 0 0 0 3.6 7l.4.7 2.4 4a88 88 0 0 0 2.3 3.4l1.2 1.8 1.1 1.4.5.7a57.8 57.8 0 0 0 2.4 3h.2l1.3 1.7c.4.6 1 1 1.4 1.5l.2.2a47.4 47.4 0 0 0 2.9 3 80.4 80.4 0 0 0 3.1 3l3.4 3 1.6 1.3 1.8 1.3 1.8 1.4 1.7 1.1v.1l.3.2a46.7 46.7 0 0 0 3 2l.4.2.7.4 1.5 1 1.4.8.4.2.4.2.8.4 1.2.7.3.2.9.4.2.1.4.2.2.1 1 .5q2.6 1.3 5.2 2.3l.4.2 1.4.6 1.1.4 1 .4 2.5.8 6.4 2 1.7.4.6.1 1.6.4 1.3.2h.2l3.2.7 1.4.2h.6l.5.2 1.5.2h.1a99.8 99.8 0 0 0 12.3.7h2.8a61 61 0 0 0 1.2 0h.8l.8-.1h.8l.7-.1a.4.4 0 0 1 .1 0 .4.4 0 0 0 .2 0l.7-.1h1l1.7-.3 2-.2 1.9-.3h.9l.5-.2h.7l.2-.1a152.7 152.7 0 0 0 2.7-.5l.8-.2a299.5 299.5 0 0 0 3.6-.8l.4-.1 1.2-.4.7-.1 1.5-.5h.1l1.2-.3 1.3-.5.7-.2.5-.2.6-.2 2.4-.9.5-.1 1.1-.5.7-.2 1-.5 1-.4.7-.3.3-.1 1.8-.8.9-.4.9-.5.4-.2 1.1-.6 1.2-.6.6-.3 1.3-.7.2-.1.6-.3.3-.2.8-.5c.2 0 .3-.2.4-.3l.5-.2.1-.1 1.3-.8.7-.4.2-.2a31.9 31.9 0 0 0 1.8-1.2h.1l.2-.2h.1l1-.7 2.9-2.1.8-.6.3-.2q3-2.3 5.7-4.9l.8-.7 2-1.9.4-.4a103.6 103.6 0 0 0 4-4.1q2-2.2 3.8-4.6l.9-1.2a98 98 0 0 0 8-12.1l1-2.1 1.1-2.1.8-1.5.5-1.1.3-.6.6-1.5.8-2 .8-2 .6-1.8.2-.3v-.3l.3-.6.2-.5.1-.6.1-.3.1-.2.6-2v-.1l.2-.5.5-2 .6-2.2 1-4.8.3-1.8.3-1.5v-.5l.3-1.7.1-1.4v-.4h.1v-.2l.2-2.2v-.9l.1-1 .1-.7.1-2.5a52.3 52.3 0 0 0 13.3 1.7 51.5 51.5 0 0 0 27.1-7.7 51.5 51.5 0 0 0 45.9 28 63.3 63.3 0 0 0 2.6-.1H951.7l1.2-.2h.7l.7-.2h.8l.6-.1a44.8 44.8 0 0 0 4-.8l1.7-.4h.2l.8-.3h.3V68l1.2-.4.9-.3.4-.1.2-.1.4-.1 1-.4 1-.4h.1l.4-.2 1.2-.6 1.1-.5a40.5 40.5 0 0 0 3.1-1.6l.2-.1 1.3-.8a2 2 0 0 0 .2-.2 35.2 35.2 0 0 0 2.8-1.8v-.1l1-.7a2.6 2.6 0 0 0 .2-.2l.5-.3.2-.2.9-.7 1-1c.1 0 .2 0 .3-.2l.3-.3.4-.3 1-1 .8-.8h.1l.2-.2a25.5 25.5 0 0 0 1.7-2l.5-.5.3-.3.1-.2.9-1 .6-.9.2-.2.3-.4.1-.2.2-.2.2-.3.5-.7.9-1.4a52 52 0 0 0 39.2 2.2l.4 1.9a2.9 2.9 0 0 0 .1.3l.5 2 .6 1.8.7 2.2.7 1.9v.2h.1l.7 1.6.1.4.7 1.6.2.5.8 1.6.8 1.4 1.7 3v.2l1 1.5.1.1.6 1 .7 1 .2.2.4.5 1.2 1.7a34.4 34.4 0 0 0 1.8 2.2l1.6 1.9 1.1 1.2 1.1 1 1 1 .1.2.4.3.5.5 1 1c.2 0 .3.2.5.3l.5.5h.1l1 1c.2 0 .3.2.5.3l1.4 1.1.4.3 1.1.8.2.1.6.5.4.2a61.6 61.6 0 0 0 2.5 1.7l1.4.8a1 1 0 0 0 .1 0 1.2 1.2 0 0 1 .2.2l.4.2 1 .5.1.1.3.2 1.2.6.3.2.8.4a.3.3 0 0 0 .2 0l.2.2 1.8.8.6.3 2.7 1.1.3.1.6.2 1 .4 1.4.5h.2l.8.3 1.7.5.4.1.6.2h.2l1.5.4 1 .2.7.1h.1l1.2.3.9.2h.7l.5.2 1.8.2 1.4.2H1089.4l1.5.1 1.6.2h3.8a67.1 67.1 0 0 0 33-8.5c0 .4.2.9.4 1.3l.5 1.4 1.8 4.4.3.5 1 2.2 1.1 2.3v.1a129.9 129.9 0 0 0 2.4 4.2l.2.5a65 65 0 0 0 2 3.2l.2.4.6 1 .8 1.1.8 1 .8 1.2.6.9.6.8a.2.2 0 0 1 0 .1l.3.2.6 1 .9 1 1 1.3.8.9.7.9 1.1 1.2.5.5 1 1.2.7.7 1.6 1.5 1.7 1.7 1.5 1.4.2.2 1.2 1 1.4 1.2.5.4.7.6.2.2a69.8 69.8 0 0 0 3 2.3l.3.2a99.5 99.5 0 0 0 3.5 2.5l.5.3.1.1.2.1 2.5 1.6 1.3.9 1.7 1 2 1 .2.2 2 1q2.1 1.1 4.3 2l2.1 1h.1l2 .9.4.1 1.8.7.5.2 2 .7 4.6 1.4 2.2.6h.3l2 .6h.3l2.1.5h.5l1.8.4.6.1 2 .4h.4l1.7.3 1.3.1a.6.6 0 0 0 .1 0h.4l.2.1h.3a2.1 2.1 0 0 0 .3 0l.2.1h.5l1.3.1a1.1 1.1 0 0 0 .2 0l1.1.2a3.1 3.1 0 0 0 .4 0H1217.2a47.2 47.2 0 0 0 7.5.2h.6l1.3-.1h1.4l1.3-.1h.4l.8-.2h.5l2-.2H1233.5l.6-.1h.2l1-.2h.4l1.4-.2h.4l.3-.1.7-.2 1.4-.2 1.4-.3h.2l1.8-.4 1.6-.3.7-.2h.1l3.1-.9 1.8-.5 1.5-.4.3-.2 2.3-.7h.1a119.2 119.2 0 0 0 2.7-1l1.6-.7 2.1-.9h.2a234.4 234.4 0 0 0 2.7-1.3l1.1-.5.9-.4 1.6-.8.1-.1 1.6-.9.7-.4 3.2-1.9 1-.5a46 46 0 0 0 3.2-2.2h.2l.2-.2 1.8-1.3 1.7-1.3h.2a69.7 69.7 0 0 0 3.5-3l1.5-1.2 1-.9.8-.6a62 62 0 0 0 2-2l.7-.6 1-1 1.1-1.2.4-.4.8-.8.8-.9.3-.3 1-1.2.2-.2 1.2-1.4.3-.3.7-.9c0-.2.1-.2.2-.3q2.3-2.9 4.4-6l.6-1 .7-.9.7-1.1.7-1.1.7-1.3.5-.8.3-.6.9-1.5c0-.1 0-.2.2-.3l.4-1 .7-1.2.5-1 .5-1 .5-1.3.7-1.4v-.2l.4-.8.2-.4 1-2.3v-.4h.1l.4-1 .4-1.1.4-1.3a99.4 99.4 0 0 0 2.3-7.7l5 .2a62 62 0 0 0 32.8-9.3l1 2 .9 1.4.4.7.5 1 .3.3.3.5.4.5.1.3.6.7v.2l.3.3 1.3 1.7.1.2a2.4 2.4 0 0 1 .2.3 1.2 1.2 0 0 0 .2.1l.1.2.2.2.2.3.2.2.5.7 1 1 .5.6v.1l3.4 3.3.1.1 1.3 1.2 1.4 1.3a55 55 0 0 0 2.9 2.1 62 62 0 0 0 16 8.5 61.8 61.8 0 0 0 8.8 2.5h.2l.7.1H1399.5q1.7.4 3.3.5l.4.1 4 .3h2l.8.1v2.7q.1 9.3 1.1 18.3.7 6 1.7 12 .5 3 1.2 5.8 1.2 5.9 2.7 11.6t3.5 11.2a186 186 0 0 0 14.5 31.8q4.4 7.5 9.4 14.7a188.8 188.8 0 0 0 14.5 18l4 4.3a189.4 189.4 0 0 0 62.4 43l4.7 1.9a189.5 189.5 0 0 0 247-110c2.8.6 5.5 1 8.3 1.3a98.4 98.4 0 0 0 83.6-31.8 97.2 97.2 0 0 0 19.3-32l5.8.2a83.7 83.7 0 0 0 8.9-.5 82.6 82.6 0 0 0 62.2-39.9 67.1 67.1 0 0 1 16 11.3l1.2-2.7a62.6 62.6 0 0 0 45.9 1.3 98.2 98.2 0 0 0 70.4 64.6 98.7 98.7 0 0 0 107.3-45c1.2-2 2.4-4 3.4-6.1a63.2 63.2 0 0 0 10.7 1 61 61 0 0 0 6.3-.4 62 62 0 0 0 29.6-11 96.6 96.6 0 0 0 13.1 30.4 97.8 97.8 0 0 0 15.3 18.1q2.7 2.5 5.5 4.8a98.8 98.8 0 0 0 82.6 19.4l2.8-.7a98.1 98.1 0 0 0 63.2-49.3 95.9 95.9 0 0 0 9.2-25.5l3.6 1.2a62.2 62.2 0 0 0 73.1-33.9 52 52 0 0 0 10.3 1 51.4 51.4 0 0 0 26.8-7.4 157.5 157.5 0 0 0-14.8 66.9q0 7.1.6 14a157.2 157.2 0 0 0 10.5 44.3 160.6 160.6 0 0 0 88.6 89.1 161.2 161.2 0 0 0 60.8 11.8h2.4a161.5 161.5 0 0 0 34.8-4.3 158.7 158.7 0 0 0 35.8-13A160.4 160.4 0 0 0 2826 216v90.4a67.8 67.8 0 0 1-18.5 2.6" data-name="Path 31465" opacity=".6"/><path fill="#401460" d="M2753.7 281.8h-2.4a165 165 0 0 1-61.6-11.8 163.3 163.3 0 0 1-52.8-34.4A159.2 159.2 0 0 1 2600 181a155.6 155.6 0 0 1-10.7-44.3c-.4-4.6-.6-9.3-.6-14a156 156 0 0 1 15-67 52.5 52.5 0 0 1-27.1 7.5 53.1 53.1 0 0 1-10.5-1 62.8 62.8 0 0 1-57.1 36 63.8 63.8 0 0 1-16.9-2.2l-3.6-1.1a95.1 95.1 0 0 1-9.3 25.4 99.3 99.3 0 0 1-64 49.3l-2.9.7a101.4 101.4 0 0 1-21.2 2.2A100 100 0 0 1 2329 151q-3-2.3-5.7-4.9a98 98 0 0 1-15.4-18 96 96 0 0 1-13.3-30.5 63.7 63.7 0 0 1-36.4 11.4 64.7 64.7 0 0 1-10.8-1c-1 2.1-2.2 4.2-3.4 6.2a99.7 99.7 0 0 1-85.5 47.6 101.2 101.2 0 0 1-23.2-2.6 99.6 99.6 0 0 1-35-15.8 97.8 97.8 0 0 1-36.3-48.9 63.5 63.5 0 0 1-62.8-11.4l-1 1.6a68.2 68.2 0 0 0-7.1-3.1 68.2 68.2 0 0 1 7.1 3 83.8 83.8 0 0 1-63 40 85.7 85.7 0 0 1-9 .4l-5.9-.2a97 97 0 0 1-19.5 32 99.9 99.9 0 0 1-52.8 30.2 102.1 102.1 0 0 1-31.8 1.6l-8.4-1.2a189 189 0 0 1-61.1 82.6 195 195 0 0 1-189 27.3l-4.9-2a191.8 191.8 0 0 1-63.2-42.9l-4-4.2a189.1 189.1 0 0 1-14.7-18.1q-5-7.1-9.5-14.7a184.8 184.8 0 0 1-14.6-31.8q-2-5.5-3.5-11.2t-2.9-11.5l-1.1-5.9q-1-5.9-1.7-12-1-9-1.1-18.2V121.9H1435.4a45.7 45.7 0 0 1-3.8-.3 1.1 1.1 0 0 1-.2 0l-.5-.1-1.6-.2-1.6-.3h-.4l-.6-.2h-.4l-1.6-.4a2.2 2.2 0 0 1-.3 0l-1.5-.4-1.6-.4a19.7 19.7 0 0 1-2.3-.7 13.3 13.3 0 0 1-1.4-.5h-.1l-1.4-.5a2.7 2.7 0 0 1-.3-.1l-1.1-.5-2-.8-2-.9-1.8-1-1.9-1-1.8-1-1.8-1.2-1.7-1.2c-.2 0-.3-.2-.5-.3l-2.8-2.2-1.5-1.2-1.3-1.2-.1-.1-1-1a44.9 44.9 0 0 1-2.3-2.4h-.1l-.6-.6-.6-.8-.3-.3-.5-.6-.2-.2-.2-.3-.2-.2-.2-.2a1.3 1.3 0 0 1-.1-.2 2.3 2.3 0 0 0-.2-.2l-.2-.3-1-1.2-.3-.4c-.2-.1-.1-.3-.2-.4l-.1-.1-.5-.8-.2-.2-.4-.5-.3-.5-.3-.4-.5-1-.4-.6-.9-1.4-1-2a63.3 63.3 0 0 1-33.2 9.2 66 66 0 0 1-5.1-.2 95 95 0 0 1-2.2 7.5l-.1.2-.5 1.3-.4 1c0 .4-.2.8-.4 1v.1l-.1.5-1 2.2c0 .2 0 .3-.2.5l-.3.7v.2l-.7 1.5-.6 1.2-.4.8v.2c-.3.3-.4.7-.6 1l-.6 1.2v.1l-.6.9-.2.4a59.4 59.4 0 0 1-1.1 2l-.3.4-.2.5a276.7 276.7 0 0 1-1.5 2.3c0 .2-.2.4-.3.5l-.4.7-.6 1-.7 1-.4.5-4 5.3-.2.3-.8.9-.3.4-1.2 1.4-.2.2-1 1.1-.3.4-.8.8-.8.9-.4.4-1 1.1-1.1 1-.3.3-.4.3-.9.9-1.2 1.1-.4.3c-.2.1-.2.2-.3.4l-1.1.9-1.5 1.2a68.2 68.2 0 0 1-3.6 2.9h-.1l-1.7 1.3c-.7.5-1.3 1-2 1.3 0 .1 0 .2-.2.2l-1.9 1.3-1.5 1-.3.1a2 2 0 0 1-.3.2l-.3.2a90 90 0 0 1-3.3 1.9l-.4.2s-.2 0-.3.2l-1.6.8-.2.1-1.6.8-.5.3-.4.1-1 .6-1.2.5-1.6.7h-.1a133.9 133.9 0 0 1-3.9 1.6l-.6.2-.4.2-1.7.6h-.1l-2.3.8-.4.1-1.4.5-1.9.5-3.1.8h-.1l-.7.2-1.7.4-1.8.3h-.1l-1.5.4-1.4.2-.7.1h-.3l-.4.1-1.4.2h-.4l-1 .2h-.8l-.2.1h-.5l-2 .3h-1.7a43.2 43.2 0 0 1-2.7.2h-1.4l-.6.1a92.9 92.9 0 0 1-5 0h-2.9a.6.6 0 0 1-.1 0h-.2l-1.1-.2h-.1a3.3 3.3 0 0 1-.4 0h-1.1a1.2 1.2 0 0 1-.3-.1l-1.2-.1h-.7a2.3 2.3 0 0 1-.3-.1h-.7l-.2-.1a.6.6 0 0 1-.2 0l-1.2-.2-1.8-.2h-.2l-.2-.1-2-.3-.6-.1-1.8-.4h-.5l-2.1-.5h-.3l-2.1-.6H1223a80.5 80.5 0 0 1-8.9-2.8h-.3l-.2-.2-1.8-.6-.4-.2-2-.8h-.1l-2.2-1-4.4-2-2-1v-.1h-.2l-2-1.2-1.7-1-.3-.2-1-.6-2.6-1.6-.2-.1-.1-.1-.4-.3h-.1a79.1 79.1 0 0 1-3.5-2.5.6.6 0 0 1-.1 0l-.3-.2a37.4 37.4 0 0 1-3-2.4l-.2-.1-.7-.6-.4-.4a.1.1 0 0 1-.1 0l-1.4-1.2-1.2-1-.2-.3-1.6-1.4-1.7-1.6-1.5-1.6-.7-.7a59 59 0 0 1-1.1-1.2l-.3-.2-.2-.3-1-1.2-.9-.9-.7-.9q-.6-.6-1-1.3l-1-1-.6-1-.2-.1a.2.2 0 0 0 0-.1l-.6-.8-.6-.8-.1-.1a30 30 0 0 1-.8-1.2l-.8-1-.8-1.2-.6-1-.2-.3-2-3.2-.2-.3-.1-.2-1.1-2-1.2-2.2-.1-.1a76 76 0 0 1-1.1-2.3l-1-2.2-.3-.5-1.8-4.5-.5-1.3-.5-1.4a68.6 68.6 0 0 1-33.4 8.6h-3.7l-1.7-.2-1.5-.1H1113.5l-1.5-.2-1.8-.3h-.5l-.7-.2a25 25 0 0 1-2.1-.4h-.1l-.7-.1-1-.3-1.5-.3h-.2l-.6-.3h-.5l-1.7-.6-.9-.2h-.1l-1.4-.5-1-.4-.6-.2-.4-.1-2.7-1.2-.6-.2-1.8-.8-.3-.2h-.1l-.8-.5-.3-.1-1.2-.6-.3-.2-.2-.1-1-.5-.4-.3a1.3 1.3 0 0 0-.2 0 1 1 0 0 1-.1-.2 76 76 0 0 1-1.4-.8l-.4-.2-.6-.4-1.6-1-.3-.3a36 36 0 0 1-.7-.4l-.1-.1-1.2-.9-.3-.3-1.5-1.1-.4-.3-1.1-.9h-.1l-.5-.5-.5-.4-1-1-.5-.4-.4-.4-.1-.1-1-1-1.1-1-1.1-1.2-1.6-1.9h-.1l-.6-.8-.2-.2-1-1.2a45 45 0 0 1-1.2-1.7l-.4-.5a.7.7 0 0 1-.1-.2l-.2-.1-.6-1-.6-.8v-.1l-.1-.1-1-1.6V82l-.2-.2-1.2-2.1-.4-.8-.7-1.3a.2.2 0 0 1 0-.1c-.4-.5-.6-1-.9-1.6l-.2-.5-.7-1.6v-.1l-.2-.2-.6-1.6-.1-.3-.7-1.8-.8-2.3-.5-1.8a50 50 0 0 1-.5-2 3 3 0 0 1-.1-.3l-.5-1.9a53.2 53.2 0 0 1-39.7-2.1l-.9 1.3-.5.8-.2.2v.2h-.2l-.1.3-.3.3-.2.3-.6.8-.9 1-.1.2-.2.3h-.1l-.5.6-1 1.1-.7.8-.2.2h-.1l-.8.8-1 1-.4.4c-.1.2-.2.2-.4.3l-.2.2-1.1 1-.9.6-.2.2-.4.3a2.5 2.5 0 0 1-.3.2l-1 .7v.1l-1.3.9h-.1v.1l-1.4.8a2 2 0 0 1-.3.2l-1.3.8-.2.1a36.7 36.7 0 0 1-5.5 2.7l-.3.2h-.2l-1 .4-1 .4-.4.1-.2.1-.4.2a30.7 30.7 0 0 1-2 .6h-.2l-.2.1-.9.3h-.1l-1.8.4c-1 .3-1.9.5-2.9.6h-.2l-1 .2h-.5l-.8.2h-.8l-.7.2h-1.6l-.7.1h-1.2l-1.5.1a52.2 52.2 0 0 1-46.4-28 52.7 52.7 0 0 1-27.5 7.8 53.5 53.5 0 0 1-13.5-1.7v2.4l-.1.8v1l-.1.8-.3 2.3V69.4l-.2 1.4-.2 1.6v.3l-.1.2-.2 1.5-.4 1.9-1 4.7a123.7 123.7 0 0 1-1.1 4.3l-.1.3a.8.8 0 0 1 0 .1v.1l-.7 2v.3l-.2.2-.2.6-.2.6-.2.6v.2l-.2.4-.6 1.7v.1l-.8 2a34.5 34.5 0 0 1-1.5 3.4l-.3.6-.5 1.1a71.7 71.7 0 0 1-4.1 7.8 76.5 76.5 0 0 1-6 8.9l-1 1.2-.9 1.2q-1.8 2.3-3.9 4.5a194.3 194.3 0 0 1-4 4.1l-.1.3-.3.2-2 1.8-.8.8-1.4 1.2a70.7 70.7 0 0 1-4.4 3.6l-.3.2-.8.6-1.6 1.2-1.3 1-1 .6h-.1l-.2.2-.1.1-.5.3-1.4.9-.1.1-.7.4-1.3.8-.2.1-.4.3-.4.2-.9.5-.3.2-.6.3-.2.1-1.3.8-.6.3-1.2.6-1.1.6-.5.2-.9.4-.8.4-1.8.8-.4.2-.7.3-1 .4-1 .4-.4.2-.3.1-1.1.4-.5.2-2.5.9-.6.2-.5.2h-.3l-.5.2-1.3.4-1.1.4h-.2l-1.5.4-.6.2-1.3.3-.4.1a104.3 104.3 0 0 1-3.7.9l-.7.1-.8.2h-.5l-1.5.3h-.2l-.3.1h-.4l-.5.2-1 .1-1.9.3-2 .2-1.2.1h-.5l-1 .1-.7.1a.4.4 0 0 1-.2 0h-.8l-.6.1h-1.4l-.4.1h-7.1a83 83 0 0 1-5.5-.3h-1a1.5 1.5 0 0 1-.2 0l-1.7-.3a.6.6 0 0 1-.1 0h-1l-1.6-.3h-.5l-.3-.1h-.3l-1.4-.3c-.3 0-.7 0-1-.2l-1.8-.3a2.8 2.8 0 0 1-.3 0h-.2l-.1-.1-1.3-.3c-.6 0-1.1-.2-1.7-.3l-.5-.2-1.7-.4-.8-.2-.6-.1-1.6-.5h-.2l-1.3-.4a.7.7 0 0 1-.1 0l-1.8-.7h-.2l-2.5-.9-1-.3-1-.5h-.2l-1.1-.5h-.2l-.4-.2-1.4-.6-2.6-1.1-1.3-.6-1-.5-.2-.1-.3-.2-.3-.1-1-.5-.2-.1-1.3-.7-.8-.4-.3-.2-.4-.2-1.5-.9-1.5-.9-.8-.5-.3-.2a74.2 74.2 0 0 1-3-2l-.3-.1-.1-.1-1.7-1.2-1.8-1.3a92.7 92.7 0 0 1-3.5-2.7l-3.3-3-1.6-1.4-1.6-1.5-1.6-1.6-1.4-1.5-.2-.2-1.4-1.5-1.3-1.6h-.1a81.8 81.8 0 0 1-2.5-3c0-.2-.2-.3-.3-.4l-.2-.4-1.1-1.4-1.3-1.8c-.8-1-1.6-2.2-2.3-3.4l-.1-.2-2.3-3.8-.4-.6-1.8-3.3-.1-.2-.9-1.7-.9-1.8v-.2l-.2-.3-.7-1.7-.6-1.4-.3-.6-.2-.6-.5-1.2-.2-.5-.5-1.4v-.1l-.1-.2-.3-1-.5-1.4-.5-1.6-.2-.4v-.4l-.4-1.1-.3-1v-.3c-.2-.3-.2-.7-.3-1l-.1-.5-1-4.4-1.1.8-.4.3-.3.2-.4.3-1 .7-.3.2-.6.4-.9.6-1.4.9-.8.5a65.6 65.6 0 0 1-3.4 1.8 1 1 0 0 1-.2.1l-1.3.7-.6.2-1 .5-.5.2-1.3.5-.2.1-.4.2h-.1l-1.1.4-.4.2h-.1l-.3.1-1.6.6-1.5.4h-.1l-.6.2a40.1 40.1 0 0 1-2.4.6h-.2l-.1.1-1 .2-.4.1-.6.1-1.2.3-.8.1-1.1.2a1.4 1.4 0 0 1-.2 0l-2.3.3a1 1 0 0 1-.2 0l-.9.1-1.3.2a52 52 0 0 1-4.7.1h-3.2l-.7-.1c-.2-.1-.6 0-.8 0l-1-.1-1.4-.2h-.4l-1-.1h-.3l-.6-.2a32 32 0 0 1-4.8-.8l-1.6-.4h-.2a49 49 0 0 1-5-1.6l-1.6-.6a1.8 1.8 0 0 1-.2 0l-1.6-.7-1.6-.7-3.2-1.5-1.4-.7a2 2 0 0 1-.2-.2l-1.3-.7-.4-.2-1.3-.8a37.1 37.1 0 0 1-4.3-3l-.9-.7-1-.7A29 29 0 0 1 605 75l-2-1.8-.8-.8a73.8 73.8 0 0 1-7-8.4l-.4-.6c0-.2-.2-.3-.3-.5a48.9 48.9 0 0 1-2.1-3.4l-.6-1-.6-1.2a63.4 63.4 0 0 1-33.2 9.3 64.3 64.3 0 0 1-9.7-.8l-.2 2.4-.2 1.9a.7.7 0 0 1 0 .1 41.8 41.8 0 0 1-.6 4l-.2 1v.3l-.1.2-.3 1.5-.4 2.1-.2.5v.1l-.2 1.1-.2.5c0 .5-.2 1-.4 1.5l-.4 1.6-.6 2.2-.8 2.2-.5 1.5-.5 1.4-.5 1.2a99.3 99.3 0 0 1-88.7 62.5h-4a100.8 100.8 0 0 1-31.8-5l-29-9a151 151 0 0 1-2.9 3.2l-3 3-2.9 2.7-1.3 1.2-.7.6-1 .8a23.2 23.2 0 0 1-2 1.7 61.9 61.9 0 0 1-4.6 3.5l-1 .7-1.1.8a84.8 84.8 0 0 1-5.5 3.4l-1.5 1c-.3 0-.6.3-.9.4a66.4 66.4 0 0 1-6.4 3.3l-1.3.6-2.8 1.2-2.8 1.2-2 .8h-.3l-.8.4a79 79 0 0 1-4.8 1.5 44.4 44.4 0 0 1-4.6 1.3 74.6 74.6 0 0 1-6.2 1.4 6.6 6.6 0 0 1-.7.1l-1.4.3h-.4l-2.2.4h-.1a2.7 2.7 0 0 1-.3 0l-2.1.3-1.1.2h-.4l-.7.1h-.8l-.9.2h-.1a63.3 63.3 0 0 1-2.4.2H312.7l-2 .1a2.6 2.6 0 0 1-.2 0h-.7a2 2 0 0 1-.2 0 134.7 134.7 0 0 1-5 0h-2.8a1 1 0 0 0-.2 0l-.9-.1-2-.1a104.9 104.9 0 0 1-20.3-3.6 2.3 2.3 0 0 1-.3 0l-1.8-.6h-.2l-.2-.1-2-.6-1.7-.6-.4-.2h-.1l-.6-.2h-.3l-.3-.2h-.2l-1.2-.5-1-.4-1.3-.5-1-.4-1.7-.8c-.3 0-.5-.2-.7-.3h-.3l-.5-.3a99.8 99.8 0 0 1-3.5-1.7l-2-1-1-.5-2-1.1-1-.6-1.7-1-.2-.1h-.1l-1.6-1-.2-.2a84 84 0 0 1-1.7-1l-.6-.5-.4-.3a33.3 33.3 0 0 1-2.5-1.7l-.1-.1-4-3-.1-.1-.9-.7-2.2-1.9-2.4-2.1a2.4 2.4 0 0 1-.2-.2l-.4-.4-.8-.7-.5-.5-.7-.6-1.4-1.5-.1-.1-.2-.2a73.6 73.6 0 0 1-2.8-3v-.1l-1.4-1.5-.4-.4-1.2-1.4a100.6 100.6 0 0 1-7.6-10.5l-.2-.4-.6-.8-.7-1.3a101.2 101.2 0 0 1-92.8 4.7l-1.5 2.1-.7 1-.5.8-.2.2-.2.3-.2.3a37.5 37.5 0 0 1-2.8 3.5l-.3.4-.6.7-1 1-1.1 1.4h-.1l-.4.5-.4.4-1.2 1.3a.8.8 0 0 1-.1.2l-1.4 1.3-.4.4a.4.4 0 0 1 0 .1l-.6.6-1.3 1.2-1.3 1.2-.6.5c0 .2-.2.3-.3.4l-1.6 1.4-1.8 1.5h-.1l-.1.2a61.3 61.3 0 0 1-3.1 2.4l-.4.3-.4.3-.4.3-1 .7-1 .8a65.8 65.8 0 0 1-4.1 2.7c-.1 0-.2 0-.3.2h-.1l-3.5 2.1-.3.2-2 1.1-.4.2-.6.3-.1.1-1.2.6-1.6.8-1.5.7-.9.5-1.3.6c-.3 0-.5.2-.7.3l-2 .8h-.2l-.1.2a85 85 0 0 1-6.5 2.4h-.2l-1.5.5-1.1.4-1.2.3h-.2l-.2.1-3.2 1h-.4l-.6.1-.5.2-1.5.3-1.2.3h-.3l-.8.2h-.2l-1.6.4-1.9.3h-.2l-4.4.7-1.4.1-1.3.2-1.6.1h-.1a111.7 111.7 0 0 1-12 .3h-3.4l-.3-.1h-.2L25 178l-.8-.1-1.1-.1h-1l-.8-.2a2.3 2.3 0 0 1-.3 0h-.5l-.8-.2h-.8l-1.6-.3h-.5l-.9-.2-1-.2-.7-.1-.9-.2H13l-1.3-.3h-.5l-1.5-.4-.8-.1-.3-.1-.7-.2-1-.2a72.8 72.8 0 0 1-5.8-1.6l-.2-.1-2.3-.8h-.3l-.5-.2-.2-.1-1.5-.6-.9-.3a80.1 80.1 0 0 1-5.8-2.4l-1-.4-4.7-2.3a104.3 104.3 0 0 1-9.2-5.4l-3-2-1.6-1-.5-.5-2.5-1.8-1.5-1.2-1.4-1.2a111 111 0 0 1-4.3-3.8l-1.4-1.4-1.4-1.3-1.3-1.3-1.3-1.4-1.2-1.3v-.1l-1.8-2a79.7 79.7 0 0 1-3.8-4.8l-1.6-2.1-1.1-1.6a68.9 68.9 0 0 1-4.8-7.6l-.2-.5-.9-1.5-.4-.7-1.4-2.8-.6-1.3-1-2.2-1.5-3.5a84.4 84.4 0 0 1-45 12.8h-3.1l-1.1-.1a.6.6 0 0 1-.2 0h-1.3l-2-.2-1.9-.2-1-.1-.7-.1-3.5-.6c.2 3.2-64.8-23.9-65.7-16.9-1.3 11-27.3 14.4-30.6 24.6-1.6 5.1 8.7 26.5 6.6 31.4-1 2.5 21.5 17.6 20.4 20-8.7 18 32 60.5 18 74.5l-5.8 5.5q-5.9 5.4-12.2 10.2-3.2 2.5-6.5 4.7a181.4 181.4 0 0 1-46.7 23.5l-7.9 2.4-12 3q-6 1.3-12.4 2l-8.4 1q-8.5.8-17.1.8a181.7 181.7 0 0 1-137.4-62 174.4 174.4 0 0 1-43.3-115 176.2 176.2 0 0 1 1.3-21.2A105.7 105.7 0 0 1-630.9 124a106.8 106.8 0 0 1-98.3 63.9 108.4 108.4 0 0 1-35.8-6v-740.4H2872v567h-1.5l1.5.9v219.8a162.2 162.2 0 0 1-46.7 35.1M-132.6 122.1a54.8 54.8 0 0 0 6.4 1.4l.4.1Z" data-name="Path 31466"/></g></g></svg>